<svg id="svg" version="1.1" xmlns="http://www.w3.org/2000/svg" xmlns:xlink="http://www.w3.org/1999/xlink" width="400" height="77.4703557312253" viewBox="0, 0, 400,77.4703557312253"><g id="svgg"><path id="path0" d="M359.167 0.151 C 359.167 0.245,359.051 0.278,358.910 0.224 C 358.709 0.147,358.670 0.219,358.730 0.553 C 358.787 0.864,358.746 0.956,358.582 0.893 C 358.446 0.841,358.249 1.012,358.090 1.320 C 357.944 1.602,357.747 1.833,357.653 1.833 C 357.558 1.833,357.527 1.908,357.583 2.000 C 357.640 2.092,357.569 2.167,357.427 2.167 C 357.284 2.167,357.167 2.284,357.167 2.427 C 357.167 2.569,357.105 2.648,357.030 2.602 C 356.863 2.498,356.321 3.099,356.458 3.236 C 356.512 3.289,356.431 3.333,356.278 3.333 C 356.125 3.333,356.000 3.446,356.000 3.583 C 356.000 3.721,355.879 3.833,355.732 3.833 C 355.554 3.833,355.499 3.924,355.567 4.102 C 355.641 4.294,355.599 4.343,355.419 4.274 C 355.278 4.220,355.167 4.268,355.167 4.382 C 355.167 4.495,354.984 4.784,354.760 5.025 C 354.536 5.267,354.399 5.510,354.454 5.565 C 354.510 5.621,354.431 5.667,354.278 5.667 C 354.125 5.667,354.000 5.779,354.000 5.917 C 354.000 6.054,353.890 6.167,353.755 6.167 C 353.606 6.167,353.548 6.264,353.606 6.417 C 353.667 6.575,353.604 6.667,353.434 6.667 C 353.260 6.667,353.167 6.811,353.167 7.080 C 353.167 7.386,353.054 7.522,352.736 7.602 C 352.419 7.681,352.327 7.792,352.387 8.022 C 352.434 8.199,352.399 8.290,352.307 8.233 C 352.217 8.178,352.103 8.291,352.053 8.483 C 352.002 8.676,351.895 8.833,351.814 8.833 C 351.733 8.833,351.667 8.946,351.667 9.083 C 351.667 9.221,351.564 9.333,351.438 9.333 C 351.311 9.333,351.162 9.565,351.105 9.849 C 351.040 10.175,350.877 10.397,350.661 10.453 C 350.449 10.509,350.338 10.655,350.368 10.840 C 350.395 11.004,350.267 11.275,350.083 11.444 C 349.900 11.612,349.724 11.897,349.693 12.077 C 349.661 12.257,349.455 12.560,349.235 12.749 C 349.014 12.939,348.833 13.223,348.833 13.380 C 348.833 13.538,348.754 13.667,348.657 13.667 C 348.560 13.667,348.523 13.736,348.576 13.821 C 348.628 13.906,348.445 14.222,348.169 14.525 C 347.893 14.827,347.667 15.200,347.667 15.353 C 347.667 15.506,347.555 15.674,347.419 15.726 C 347.284 15.778,347.213 15.926,347.262 16.056 C 347.312 16.185,347.236 16.335,347.093 16.390 C 346.950 16.445,346.833 16.642,346.833 16.828 C 346.833 17.014,346.740 17.168,346.625 17.169 C 346.486 17.171,346.500 17.226,346.667 17.333 C 346.833 17.441,346.847 17.496,346.708 17.497 C 346.594 17.499,346.500 17.612,346.500 17.750 C 346.500 17.887,346.387 18.000,346.250 18.000 C 346.113 18.000,346.000 18.146,346.000 18.323 C 346.000 18.501,345.920 18.697,345.822 18.757 C 345.724 18.818,345.683 18.970,345.732 19.095 C 345.780 19.221,345.710 19.433,345.576 19.567 C 345.443 19.700,345.333 20.002,345.333 20.238 C 345.333 20.508,345.241 20.667,345.083 20.667 C 344.929 20.667,344.833 20.823,344.833 21.073 C 344.833 21.297,344.758 21.527,344.667 21.583 C 344.575 21.640,344.500 21.909,344.500 22.182 C 344.500 22.468,344.395 22.718,344.250 22.773 C 344.113 22.826,344.000 23.044,344.000 23.258 C 344.000 23.472,343.925 23.693,343.833 23.750 C 343.742 23.807,343.667 24.111,343.667 24.427 C 343.667 24.742,343.592 25.000,343.500 25.000 C 343.408 25.000,343.333 25.113,343.333 25.250 C 343.333 25.406,343.176 25.500,342.917 25.500 C 342.644 25.500,342.500 25.407,342.500 25.231 C 342.500 25.033,342.389 24.982,342.083 25.041 C 341.791 25.097,341.667 25.047,341.667 24.874 C 341.667 24.701,341.542 24.652,341.250 24.707 C 340.971 24.761,340.833 24.712,340.833 24.560 C 340.833 24.435,340.689 24.333,340.512 24.333 C 340.335 24.333,340.073 24.216,339.930 24.073 C 339.787 23.929,339.590 23.861,339.494 23.920 C 339.398 23.980,339.228 23.955,339.118 23.865 C 338.639 23.475,337.608 23.144,337.852 23.458 C 338.067 23.736,338.061 23.736,337.734 23.458 C 337.545 23.298,337.225 23.167,337.023 23.167 C 336.821 23.167,336.613 23.054,336.560 22.917 C 336.508 22.779,336.280 22.667,336.056 22.667 C 335.826 22.667,335.692 22.594,335.750 22.500 C 335.811 22.402,335.626 22.331,335.302 22.328 C 334.998 22.325,334.604 22.212,334.425 22.077 C 334.209 21.914,333.914 21.866,333.550 21.934 C 333.138 22.011,333.000 21.978,333.000 21.801 C 333.000 21.641,332.772 21.552,332.296 21.524 C 331.909 21.501,331.546 21.407,331.489 21.316 C 331.432 21.224,331.318 21.162,331.235 21.178 C 330.661 21.286,329.833 21.139,329.833 20.929 C 329.833 20.742,329.622 20.707,328.833 20.765 C 328.018 20.825,327.833 20.792,327.833 20.586 C 327.833 20.384,327.598 20.333,326.667 20.333 C 325.915 20.333,325.500 20.267,325.500 20.146 C 325.500 20.024,325.402 20.039,325.218 20.188 C 325.026 20.343,324.976 20.350,325.061 20.208 C 325.158 20.048,324.841 20.000,323.682 20.000 C 322.500 20.000,322.195 19.953,322.262 19.779 C 322.325 19.616,322.148 19.555,321.590 19.547 L 320.833 19.537 320.833 21.352 C 320.833 22.872,320.792 23.167,320.578 23.167 C 320.356 23.167,320.324 23.607,320.340 26.500 C 320.356 29.264,320.399 29.833,320.596 29.833 C 320.789 29.833,320.833 30.237,320.833 32.000 C 320.833 33.333,320.897 34.167,321.000 34.167 C 321.095 34.167,321.167 34.673,321.167 35.351 C 321.167 36.407,321.198 36.525,321.458 36.434 C 321.726 36.341,321.725 36.352,321.449 36.566 C 321.245 36.725,321.214 36.821,321.352 36.867 C 321.480 36.910,321.552 37.259,321.545 37.801 C 321.536 38.437,321.595 38.667,321.767 38.667 C 321.967 38.667,322.123 39.721,322.020 40.375 C 322.009 40.444,322.075 40.500,322.167 40.500 C 322.258 40.500,322.333 40.837,322.333 41.250 C 322.333 41.662,322.408 42.000,322.500 42.000 C 322.592 42.000,322.667 42.227,322.667 42.505 C 322.667 42.801,322.771 43.050,322.917 43.106 C 323.080 43.169,323.167 43.429,323.167 43.856 C 323.167 44.252,323.256 44.545,323.392 44.597 C 323.530 44.650,323.587 44.842,323.539 45.092 C 323.481 45.398,323.533 45.500,323.750 45.500 C 323.965 45.500,324.014 45.593,323.944 45.862 C 323.884 46.093,323.953 46.310,324.133 46.458 C 324.320 46.612,324.332 46.651,324.167 46.571 C 323.964 46.474,323.956 46.493,324.125 46.676 C 324.240 46.799,324.333 47.027,324.333 47.182 C 324.333 47.337,324.440 47.505,324.570 47.555 C 324.718 47.612,324.773 47.779,324.716 47.997 C 324.658 48.217,324.728 48.425,324.903 48.553 C 325.056 48.665,325.194 48.919,325.209 49.117 C 325.224 49.315,325.295 49.440,325.368 49.395 C 325.441 49.350,325.500 49.537,325.500 49.810 C 325.500 50.082,325.579 50.332,325.676 50.364 C 325.772 50.396,325.869 50.542,325.890 50.688 C 325.912 50.834,326.053 51.077,326.204 51.228 C 326.355 51.378,326.525 51.670,326.583 51.876 C 326.770 52.545,327.052 53.000,327.278 53.000 C 327.401 53.000,327.500 53.178,327.500 53.399 C 327.500 53.618,327.607 53.839,327.737 53.889 C 327.882 53.944,327.939 54.113,327.884 54.323 C 327.821 54.565,327.874 54.667,328.064 54.667 C 328.212 54.667,328.333 54.742,328.333 54.833 C 328.333 54.925,328.443 55.000,328.578 55.000 C 328.936 55.000,328.727 55.386,328.247 55.609 C 328.019 55.715,327.875 55.734,327.926 55.651 C 327.978 55.568,327.895 55.500,327.742 55.500 C 327.574 55.500,327.499 55.591,327.553 55.731 C 327.615 55.893,327.546 55.937,327.321 55.878 C 327.144 55.832,327.000 55.878,327.000 55.981 C 327.000 56.083,326.786 56.167,326.523 56.167 C 326.211 56.167,325.940 56.309,325.738 56.578 C 325.518 56.870,325.392 56.930,325.301 56.786 C 325.201 56.629,325.171 56.630,325.169 56.792 C 325.168 56.907,324.961 57.001,324.708 57.003 C 324.351 57.005,324.305 57.041,324.500 57.167 C 324.702 57.297,324.676 57.329,324.370 57.331 C 324.161 57.332,323.946 57.446,323.894 57.583 C 323.841 57.721,323.664 57.833,323.500 57.833 C 323.336 57.833,323.160 57.945,323.107 58.081 C 323.055 58.216,322.905 58.286,322.773 58.236 C 322.641 58.185,322.477 58.236,322.408 58.348 C 322.322 58.487,322.351 58.509,322.500 58.417 C 322.644 58.327,322.678 58.347,322.599 58.474 C 322.534 58.580,322.380 58.667,322.258 58.667 C 322.136 58.667,321.991 58.784,321.936 58.927 C 321.881 59.071,321.760 59.141,321.668 59.084 C 321.468 58.961,320.713 59.453,320.833 59.628 C 320.879 59.695,320.729 59.776,320.500 59.808 C 320.271 59.839,320.027 59.964,319.959 60.084 C 319.890 60.204,319.684 60.263,319.500 60.215 C 319.117 60.115,319.044 60.468,319.375 60.824 C 319.542 61.004,319.542 61.025,319.375 60.931 C 319.260 60.867,319.167 60.898,319.167 61.002 C 319.167 61.210,319.575 61.667,319.761 61.667 C 319.980 61.667,320.323 62.246,320.328 62.625 C 320.331 62.831,320.408 63.000,320.499 63.000 C 320.835 63.000,321.500 63.739,321.500 64.113 C 321.500 64.326,321.584 64.500,321.686 64.500 C 321.897 64.500,323.500 66.132,323.500 66.347 C 323.500 66.424,323.792 66.785,324.150 67.149 C 324.507 67.514,324.757 67.854,324.705 67.906 C 324.653 67.958,324.771 68.000,324.967 68.000 C 325.231 68.000,325.295 68.072,325.216 68.279 C 325.135 68.490,325.176 68.532,325.388 68.451 C 325.541 68.392,325.667 68.417,325.667 68.507 C 325.667 68.717,326.572 69.667,326.773 69.667 C 327.007 69.667,327.994 70.617,327.879 70.732 C 327.823 70.788,327.903 70.833,328.056 70.833 C 328.208 70.833,328.333 70.916,328.333 71.018 C 328.333 71.119,328.453 71.156,328.599 71.100 C 328.776 71.033,328.893 71.110,328.952 71.333 C 329.000 71.516,329.143 71.667,329.269 71.667 C 329.396 71.667,329.500 71.750,329.500 71.851 C 329.500 71.953,329.610 71.993,329.745 71.942 C 329.879 71.890,330.041 71.931,330.104 72.033 C 330.173 72.145,330.142 72.171,330.026 72.099 C 329.920 72.034,329.833 72.069,329.833 72.176 C 329.833 72.292,329.974 72.335,330.177 72.282 C 330.404 72.223,330.556 72.287,330.626 72.471 C 330.799 72.928,331.158 73.206,331.436 73.099 C 331.606 73.034,331.727 73.110,331.781 73.316 C 331.838 73.536,331.988 73.620,332.265 73.590 C 332.514 73.563,332.667 73.632,332.667 73.773 C 332.667 73.898,332.817 74.000,333.000 74.000 C 333.183 74.000,333.333 74.075,333.333 74.167 C 333.333 74.258,333.481 74.333,333.661 74.333 C 333.885 74.333,333.959 74.413,333.894 74.583 C 333.823 74.766,333.914 74.833,334.232 74.833 C 334.471 74.833,334.667 74.903,334.667 74.987 C 334.667 75.072,334.934 75.108,335.262 75.068 C 335.645 75.020,335.819 75.055,335.750 75.166 C 335.692 75.261,335.562 75.288,335.463 75.227 C 335.355 75.160,335.330 75.193,335.401 75.308 C 335.466 75.413,335.778 75.500,336.093 75.500 C 336.452 75.500,336.651 75.575,336.625 75.701 C 336.602 75.811,336.741 75.905,336.933 75.909 C 337.125 75.913,337.405 76.019,337.556 76.144 C 337.706 76.268,337.937 76.329,338.069 76.279 C 338.201 76.228,338.386 76.280,338.481 76.394 C 338.575 76.507,338.974 76.620,339.367 76.643 C 339.782 76.667,340.137 76.787,340.217 76.929 C 340.323 77.118,340.590 77.153,341.416 77.085 C 342.048 77.033,342.521 77.065,342.582 77.165 C 342.728 77.400,349.167 77.393,349.167 77.158 C 349.167 77.043,349.514 77.023,350.194 77.100 C 351.107 77.203,351.209 77.185,351.116 76.941 C 351.027 76.709,351.138 76.667,351.839 76.667 C 352.294 76.667,352.667 76.592,352.667 76.500 C 352.667 76.408,352.817 76.333,353.000 76.333 C 353.183 76.333,353.333 76.258,353.333 76.167 C 353.333 76.075,353.633 76.000,354.000 76.000 C 354.425 76.000,354.667 75.924,354.667 75.790 C 354.667 75.675,354.825 75.482,355.017 75.361 C 355.210 75.241,355.318 75.223,355.258 75.321 C 355.197 75.419,355.226 75.500,355.323 75.500 C 355.421 75.500,355.500 75.425,355.500 75.333 C 355.500 75.242,355.679 75.167,355.899 75.167 C 356.118 75.167,356.343 75.048,356.399 74.903 C 356.455 74.758,356.591 74.669,356.702 74.706 C 356.814 74.743,357.066 74.600,357.263 74.387 C 357.460 74.174,357.782 74.000,357.977 74.000 C 358.173 74.000,358.333 73.920,358.333 73.821 C 358.333 73.532,358.784 73.167,359.141 73.167 C 359.323 73.167,359.510 73.073,359.557 72.958 C 359.620 72.801,359.686 72.812,359.821 73.000 C 359.980 73.222,360.018 73.222,360.164 73.000 C 360.274 72.833,360.329 72.819,360.331 72.958 C 360.332 73.073,360.450 73.167,360.593 73.167 C 360.736 73.167,360.810 73.236,360.757 73.321 C 360.705 73.406,360.814 73.524,361.000 73.583 C 361.186 73.642,361.295 73.760,361.243 73.845 C 361.190 73.930,361.252 74.000,361.381 74.000 C 361.862 74.000,362.715 74.534,362.476 74.685 C 362.298 74.798,362.309 74.829,362.528 74.831 C 362.681 74.832,362.843 74.740,362.890 74.625 C 362.936 74.510,362.980 74.585,362.987 74.792 C 362.997 75.077,363.100 75.167,363.417 75.167 C 363.646 75.167,363.833 75.237,363.833 75.323 C 363.833 75.409,364.077 75.502,364.375 75.531 C 364.673 75.560,364.913 75.658,364.909 75.750 C 364.902 75.931,365.901 76.327,366.375 76.331 C 366.535 76.332,366.667 76.408,366.667 76.500 C 366.667 76.592,367.004 76.667,367.417 76.667 C 367.999 76.667,368.167 76.727,368.167 76.938 C 368.167 77.171,368.307 77.194,369.153 77.098 C 369.776 77.028,370.178 77.050,370.246 77.160 C 370.314 77.270,371.532 77.333,373.603 77.333 C 376.159 77.333,376.826 77.289,376.728 77.125 C 376.634 76.969,376.670 76.971,376.870 77.133 C 377.017 77.252,377.179 77.282,377.230 77.199 C 377.281 77.117,377.745 77.072,378.260 77.101 C 379.026 77.143,379.180 77.108,379.104 76.910 C 379.012 76.671,379.656 76.564,380.576 76.664 C 380.831 76.691,380.861 76.651,380.714 76.475 C 380.564 76.293,380.645 76.250,381.139 76.250 C 381.475 76.250,381.736 76.172,381.720 76.076 C 381.702 75.974,381.923 75.930,382.262 75.970 C 382.704 76.021,382.833 75.976,382.833 75.768 C 382.833 75.584,382.983 75.500,383.316 75.500 C 383.599 75.500,383.839 75.393,383.898 75.239 C 383.953 75.096,384.073 75.026,384.165 75.083 C 384.258 75.140,384.333 75.069,384.333 74.927 C 384.333 74.784,384.406 74.667,384.495 74.667 C 384.584 74.667,384.613 74.779,384.560 74.917 C 384.508 75.054,384.547 75.167,384.649 75.167 C 384.750 75.167,384.833 75.092,384.833 75.000 C 384.833 74.908,384.996 74.833,385.194 74.833 C 385.393 74.833,385.506 74.784,385.446 74.724 C 385.247 74.525,385.672 74.199,386.013 74.289 C 386.236 74.347,386.331 74.302,386.299 74.154 C 386.272 74.032,386.346 73.928,386.464 73.924 C 386.582 73.920,386.732 73.834,386.798 73.732 C 386.863 73.630,387.048 73.567,387.208 73.592 C 387.370 73.617,387.500 73.532,387.500 73.402 C 387.500 73.263,387.668 73.167,387.911 73.167 C 388.210 73.167,388.296 73.098,388.226 72.915 C 388.157 72.735,388.206 72.692,388.398 72.766 C 388.576 72.834,388.667 72.779,388.667 72.601 C 388.667 72.454,388.771 72.333,388.898 72.333 C 389.243 72.333,390.011 71.900,389.886 71.775 C 389.827 71.716,389.903 71.667,390.056 71.667 C 390.208 71.667,390.333 71.554,390.333 71.417 C 390.333 71.276,390.482 71.167,390.674 71.167 C 391.018 71.167,391.833 70.482,391.833 70.193 C 391.833 70.108,392.077 69.921,392.375 69.778 C 392.673 69.635,393.103 69.289,393.332 69.009 C 393.560 68.729,393.878 68.500,394.040 68.500 C 394.201 68.500,394.333 68.387,394.333 68.250 C 394.333 68.112,394.417 68.000,394.519 68.000 C 394.625 68.000,394.667 67.852,394.616 67.657 C 394.542 67.376,394.569 67.350,394.763 67.511 C 394.949 67.665,395.000 67.656,395.000 67.465 C 395.000 67.332,395.185 67.124,395.411 67.003 C 395.637 66.882,395.786 66.725,395.743 66.655 C 395.699 66.585,395.777 66.414,395.915 66.275 C 396.053 66.137,396.167 65.943,396.167 65.845 C 396.167 65.747,396.247 65.667,396.345 65.667 C 396.614 65.667,397.012 65.214,396.961 64.967 C 396.937 64.848,397.019 64.772,397.144 64.798 C 397.395 64.851,397.820 64.374,397.828 64.030 C 397.834 63.801,398.229 63.333,398.417 63.333 C 398.621 63.333,398.943 62.913,398.881 62.726 C 398.847 62.623,398.934 62.423,399.076 62.281 C 399.217 62.140,399.333 61.943,399.333 61.845 C 399.333 61.747,399.446 61.667,399.583 61.667 C 399.862 61.667,399.866 61.658,399.916 60.815 C 399.946 60.299,399.901 60.217,399.601 60.232 C 399.385 60.243,399.269 60.162,399.298 60.021 C 399.330 59.874,399.254 59.828,399.084 59.893 C 398.922 59.955,398.775 59.883,398.702 59.706 C 398.637 59.547,398.471 59.417,398.333 59.417 C 398.196 59.417,398.105 59.314,398.132 59.188 C 398.167 59.023,398.042 58.981,397.677 59.034 C 397.275 59.093,397.211 59.064,397.358 58.887 C 397.497 58.720,397.476 58.667,397.270 58.667 C 397.122 58.667,397.000 58.554,397.000 58.417 C 397.000 58.263,396.844 58.167,396.593 58.167 C 396.369 58.167,396.137 58.087,396.076 57.989 C 396.016 57.891,395.869 57.848,395.750 57.894 C 395.629 57.940,395.495 57.832,395.447 57.650 C 395.400 57.471,395.262 57.345,395.139 57.370 C 395.017 57.396,394.938 57.314,394.965 57.188 C 394.995 57.047,394.920 56.995,394.769 57.053 C 394.634 57.105,394.432 57.035,394.319 56.899 C 394.206 56.763,394.006 56.693,393.875 56.743 C 393.726 56.800,393.601 56.703,393.545 56.486 C 393.476 56.224,393.354 56.156,393.060 56.212 C 392.802 56.261,392.667 56.209,392.667 56.060 C 392.667 55.929,392.490 55.833,392.250 55.833 C 392.021 55.833,391.833 55.758,391.833 55.667 C 391.833 55.575,391.571 55.500,391.250 55.500 C 390.843 55.500,390.667 55.425,390.667 55.250 C 390.667 55.112,390.747 55.000,390.845 55.000 C 391.139 55.000,391.500 54.548,391.500 54.179 C 391.500 53.989,391.575 53.833,391.667 53.833 C 391.758 53.833,391.833 53.646,391.833 53.417 C 391.833 53.150,391.927 53.000,392.093 53.000 C 392.236 53.000,392.307 52.925,392.250 52.833 C 392.193 52.742,392.273 52.667,392.426 52.667 C 392.624 52.667,392.680 52.569,392.618 52.330 C 392.569 52.145,392.635 51.888,392.765 51.759 C 392.894 51.630,393.000 51.443,393.000 51.345 C 393.000 51.247,393.121 51.167,393.268 51.167 C 393.471 51.167,393.511 51.065,393.432 50.750 C 393.354 50.443,393.393 50.333,393.580 50.333 C 393.739 50.333,393.833 50.178,393.833 49.917 C 393.833 49.688,393.907 49.500,393.997 49.500 C 394.087 49.500,394.207 49.313,394.265 49.083 C 394.322 48.854,394.425 48.667,394.493 48.667 C 394.560 48.667,394.623 48.430,394.631 48.141 C 394.639 47.852,394.707 47.571,394.781 47.516 C 394.856 47.461,394.942 47.267,394.972 47.083 C 395.003 46.900,395.108 46.675,395.205 46.583 C 395.328 46.468,395.341 46.489,395.249 46.651 C 395.159 46.808,395.179 46.846,395.308 46.766 C 395.413 46.701,395.500 46.389,395.500 46.073 C 395.500 45.758,395.575 45.500,395.667 45.500 C 395.758 45.500,395.833 45.313,395.833 45.083 C 395.833 44.854,395.908 44.667,396.000 44.667 C 396.092 44.667,396.167 44.329,396.167 43.917 C 396.167 43.368,396.232 43.167,396.412 43.167 C 396.590 43.167,396.647 42.997,396.620 42.542 C 396.595 42.116,396.650 41.930,396.792 41.958 C 396.906 41.981,396.991 41.944,396.980 41.875 C 396.887 41.287,397.031 40.340,397.208 40.375 C 397.357 40.405,397.406 40.169,397.381 39.549 C 397.352 38.847,397.392 38.700,397.589 38.775 C 397.787 38.851,397.833 38.678,397.833 37.865 C 397.833 37.218,397.907 36.831,398.042 36.777 C 398.198 36.713,398.188 36.648,398.000 36.515 C 397.831 36.395,397.817 36.338,397.958 36.336 C 398.103 36.334,398.167 36.004,398.167 35.250 C 398.167 34.398,398.220 34.167,398.417 34.167 C 398.572 34.167,398.667 34.009,398.667 33.750 C 398.667 33.521,398.577 33.333,398.467 33.333 C 398.311 33.333,398.311 33.289,398.467 33.133 C 398.597 33.003,398.668 32.317,398.669 31.175 C 398.671 29.978,398.723 29.497,398.833 29.667 C 398.940 29.832,398.996 28.723,398.997 26.375 C 398.999 23.651,398.952 22.833,398.792 22.834 C 398.635 22.834,398.596 22.420,398.636 21.181 L 398.688 19.528 397.917 19.528 C 397.405 19.528,397.115 19.607,397.055 19.764 C 396.986 19.943,396.609 20.000,395.496 20.000 C 394.666 20.000,394.004 20.072,393.972 20.167 C 393.942 20.258,393.373 20.341,392.708 20.352 C 391.752 20.366,391.500 20.422,391.500 20.621 C 391.500 20.828,391.339 20.852,390.583 20.757 C 389.831 20.663,389.647 20.690,389.565 20.905 C 389.495 21.088,389.244 21.167,388.732 21.167 C 388.329 21.167,388.000 21.242,388.000 21.333 C 388.000 21.425,387.625 21.500,387.167 21.500 C 386.550 21.500,386.333 21.563,386.333 21.741 C 386.333 21.917,386.174 21.967,385.744 21.926 C 385.393 21.892,385.061 21.962,384.923 22.101 C 384.795 22.229,384.581 22.333,384.446 22.333 C 384.312 22.333,384.166 22.427,384.122 22.542 C 384.071 22.675,383.760 22.739,383.271 22.719 C 382.697 22.695,382.500 22.748,382.500 22.927 C 382.500 23.059,382.365 23.167,382.200 23.167 C 382.035 23.167,381.799 23.260,381.676 23.375 C 381.496 23.542,381.475 23.541,381.571 23.371 C 381.640 23.249,381.443 23.298,381.109 23.486 C 380.789 23.665,380.390 23.836,380.222 23.865 C 380.054 23.893,379.830 24.032,379.724 24.173 C 379.618 24.314,379.319 24.420,379.060 24.408 C 378.800 24.397,378.491 24.485,378.373 24.603 C 378.254 24.722,378.047 24.777,377.912 24.725 C 377.765 24.669,377.667 24.729,377.667 24.876 C 377.667 25.038,377.526 25.105,377.250 25.075 C 376.981 25.046,376.833 25.113,376.833 25.265 C 376.833 25.394,376.727 25.500,376.597 25.500 C 376.467 25.500,376.223 25.545,376.055 25.599 C 375.840 25.669,375.813 25.653,375.964 25.544 C 376.188 25.383,376.073 24.833,375.816 24.833 C 375.734 24.833,375.667 24.604,375.667 24.323 C 375.667 24.026,375.597 23.857,375.500 23.917 C 375.407 23.974,375.324 23.831,375.313 23.593 C 375.276 22.854,375.240 22.749,375.034 22.792 C 374.904 22.819,374.833 22.599,374.833 22.167 C 374.833 21.800,374.758 21.500,374.667 21.500 C 374.575 21.500,374.500 21.354,374.500 21.177 C 374.500 20.999,374.425 20.807,374.333 20.750 C 374.242 20.693,374.167 20.501,374.167 20.323 C 374.167 20.146,374.063 20.000,373.936 20.000 C 373.808 20.000,373.663 19.794,373.612 19.542 C 373.396 18.465,373.267 18.076,373.055 17.864 C 372.931 17.741,372.873 17.570,372.926 17.485 C 372.978 17.400,372.904 17.286,372.761 17.231 C 372.617 17.176,372.500 16.952,372.500 16.732 C 372.500 16.482,372.403 16.333,372.240 16.333 C 372.097 16.333,372.023 16.264,372.075 16.180 C 372.127 16.096,372.057 15.914,371.918 15.775 C 371.780 15.637,371.667 15.443,371.667 15.345 C 371.667 15.247,371.592 15.167,371.500 15.167 C 371.408 15.167,371.333 14.979,371.333 14.750 C 371.333 14.521,371.258 14.333,371.167 14.333 C 371.075 14.333,371.000 14.218,371.000 14.078 C 371.000 13.938,370.887 13.780,370.750 13.727 C 370.613 13.674,370.500 13.484,370.500 13.304 C 370.500 12.962,370.137 12.500,369.868 12.500 C 369.783 12.500,369.749 12.313,369.793 12.083 C 369.843 11.818,369.796 11.667,369.663 11.667 C 369.390 11.667,369.012 11.163,369.005 10.792 C 369.002 10.631,368.915 10.500,368.810 10.500 C 368.583 10.500,368.179 10.001,368.172 9.710 C 368.164 9.419,367.635 8.833,367.470 8.935 C 367.395 8.982,367.333 8.828,367.333 8.593 C 367.333 8.359,367.258 8.167,367.167 8.167 C 367.075 8.167,367.000 8.086,367.000 7.988 C 367.000 7.757,366.576 7.333,366.345 7.333 C 366.247 7.333,366.167 7.254,366.167 7.157 C 366.167 7.060,366.104 7.019,366.028 7.066 C 365.951 7.113,365.889 7.046,365.889 6.917 C 365.889 6.787,365.957 6.723,366.040 6.775 C 366.123 6.826,366.093 6.710,365.972 6.517 C 365.852 6.325,365.659 6.167,365.543 6.167 C 365.428 6.167,365.333 6.088,365.333 5.992 C 365.333 5.897,365.165 5.638,364.958 5.417 C 364.340 4.756,364.167 4.522,364.167 4.352 C 364.167 4.262,364.017 4.142,363.833 4.083 C 363.650 4.025,363.500 3.881,363.500 3.762 C 363.500 3.644,363.313 3.406,363.083 3.234 C 362.854 3.062,362.667 2.826,362.667 2.710 C 362.667 2.595,362.588 2.500,362.492 2.500 C 362.281 2.500,361.500 1.741,361.500 1.535 C 361.500 1.341,360.452 0.408,360.292 0.460 C 360.223 0.482,360.185 0.406,360.208 0.292 C 360.233 0.167,360.033 0.062,359.708 0.031 C 359.410 0.002,359.167 0.056,359.167 0.151 M359.833 10.667 C 359.833 10.758,359.988 10.833,360.177 10.833 C 360.365 10.833,360.480 10.898,360.431 10.977 C 360.290 11.205,360.721 11.991,361.044 12.096 C 361.206 12.148,361.300 12.252,361.253 12.328 C 361.207 12.403,361.281 12.508,361.419 12.561 C 361.557 12.614,361.661 12.716,361.650 12.787 C 361.600 13.119,361.889 13.612,362.219 13.757 C 362.444 13.856,362.604 14.096,362.637 14.388 C 362.675 14.716,362.764 14.832,362.929 14.768 C 363.068 14.715,363.167 14.778,363.167 14.922 C 363.167 15.057,363.242 15.167,363.333 15.167 C 363.425 15.167,363.500 15.354,363.500 15.583 C 363.500 15.835,363.595 16.000,363.740 16.000 C 363.872 16.000,364.034 16.087,364.099 16.192 C 364.173 16.312,364.145 16.340,364.026 16.266 C 363.629 16.021,363.847 16.668,364.250 16.932 C 364.502 17.097,364.667 17.362,364.667 17.603 C 364.667 17.833,364.765 18.000,364.901 18.000 C 365.053 18.000,365.105 18.117,365.048 18.333 C 364.988 18.565,365.043 18.667,365.231 18.667 C 365.407 18.667,365.500 18.811,365.500 19.083 C 365.500 19.339,365.595 19.500,365.745 19.500 C 365.884 19.500,365.952 19.599,365.902 19.728 C 365.854 19.854,365.930 20.001,366.071 20.056 C 366.219 20.112,366.286 20.262,366.229 20.410 C 366.166 20.575,366.226 20.667,366.399 20.667 C 366.571 20.667,366.667 20.811,366.667 21.069 C 366.667 21.291,366.751 21.500,366.854 21.535 C 366.957 21.569,367.042 21.806,367.042 22.062 C 367.042 22.317,367.134 22.562,367.246 22.605 C 367.363 22.650,367.417 22.858,367.373 23.092 C 367.316 23.389,367.368 23.500,367.564 23.500 C 367.712 23.500,367.836 23.631,367.839 23.792 C 367.842 23.952,367.946 24.218,368.071 24.383 C 368.196 24.547,368.260 24.828,368.213 25.006 C 368.160 25.209,368.230 25.368,368.403 25.434 C 368.569 25.498,368.641 25.652,368.586 25.825 C 368.536 25.982,368.636 26.273,368.808 26.471 C 369.004 26.697,369.091 26.987,369.041 27.247 C 368.991 27.510,369.048 27.696,369.197 27.753 C 369.357 27.814,369.410 28.028,369.364 28.421 C 369.312 28.870,369.357 29.000,369.565 29.000 C 369.759 29.000,369.833 29.157,369.833 29.563 C 369.833 29.873,369.943 30.217,370.078 30.329 C 370.257 30.477,370.296 30.728,370.222 31.263 C 370.141 31.857,370.175 32.014,370.407 32.103 C 370.648 32.195,370.677 32.374,370.601 33.267 C 370.529 34.102,370.563 34.352,370.761 34.463 C 371.146 34.678,371.123 43.400,370.737 43.786 C 370.537 43.986,370.501 44.234,370.584 44.835 C 370.673 45.485,370.643 45.640,370.408 45.730 C 370.182 45.817,370.146 45.969,370.228 46.485 C 370.306 46.974,370.271 47.155,370.083 47.227 C 369.937 47.283,369.833 47.534,369.833 47.828 C 369.833 48.172,369.751 48.333,369.576 48.333 C 369.435 48.333,369.331 48.427,369.346 48.542 C 369.417 49.093,369.317 49.676,369.167 49.583 C 369.073 49.525,369.000 49.659,369.000 49.889 C 369.000 50.114,368.883 50.343,368.739 50.398 C 368.596 50.453,368.492 50.629,368.509 50.791 C 368.573 51.418,368.511 51.608,368.333 51.333 C 368.207 51.139,368.171 51.185,368.169 51.542 C 368.168 51.794,368.092 52.000,368.000 52.000 C 367.908 52.000,367.833 52.150,367.833 52.333 C 367.833 52.529,367.722 52.667,367.564 52.667 C 367.366 52.667,367.316 52.778,367.374 53.083 C 367.418 53.313,367.379 53.500,367.287 53.500 C 367.050 53.500,366.678 54.029,366.672 54.375 C 366.669 54.535,366.581 54.667,366.477 54.667 C 366.227 54.667,365.845 55.178,365.839 55.522 C 365.836 55.672,365.676 55.836,365.483 55.886 C 365.291 55.936,365.180 56.054,365.238 56.147 C 365.300 56.247,365.199 56.288,364.989 56.248 C 364.738 56.200,364.662 56.248,364.726 56.415 C 364.779 56.553,364.683 56.692,364.491 56.753 C 364.313 56.809,364.167 56.923,364.167 57.006 C 364.167 57.089,364.062 57.116,363.934 57.067 C 363.805 57.018,363.644 57.069,363.574 57.181 C 363.489 57.320,363.518 57.342,363.667 57.250 C 363.808 57.163,363.845 57.180,363.770 57.300 C 363.707 57.402,363.546 57.443,363.412 57.392 C 363.259 57.333,363.110 57.444,363.012 57.691 C 362.925 57.907,362.850 58.024,362.844 57.952 C 362.838 57.879,362.729 57.917,362.601 58.035 C 362.473 58.153,362.397 58.298,362.433 58.357 C 362.468 58.415,362.305 58.589,362.071 58.743 C 361.363 59.206,361.012 59.552,361.102 59.696 C 361.148 59.772,361.069 59.833,360.927 59.833 C 360.784 59.833,360.685 59.890,360.708 59.958 C 360.731 60.027,360.675 60.119,360.583 60.162 C 360.226 60.332,359.855 60.733,359.935 60.863 C 359.982 60.938,359.868 61.000,359.682 61.000 C 359.431 61.000,359.371 60.925,359.448 60.708 C 359.506 60.548,359.497 60.467,359.429 60.528 C 359.361 60.589,359.018 60.351,358.667 60.000 C 358.315 59.649,357.984 59.405,357.931 59.458 C 357.877 59.512,357.833 59.449,357.833 59.318 C 357.833 59.187,357.683 58.987,357.500 58.872 C 357.317 58.758,357.167 58.554,357.167 58.420 C 357.167 58.273,357.069 58.215,356.917 58.273 C 356.758 58.334,356.667 58.271,356.667 58.101 C 356.667 57.954,356.546 57.833,356.399 57.833 C 356.225 57.833,356.166 57.742,356.230 57.575 C 356.288 57.425,356.259 57.359,356.164 57.419 C 356.072 57.475,355.953 57.404,355.898 57.261 C 355.843 57.117,355.656 57.000,355.482 57.000 C 355.309 57.000,355.167 56.925,355.167 56.833 C 355.167 56.742,355.054 56.667,354.917 56.667 C 354.779 56.667,354.667 56.559,354.667 56.427 C 354.667 56.296,354.404 56.093,354.083 55.977 C 353.700 55.839,353.500 55.660,353.500 55.455 C 353.500 55.083,353.066 54.606,352.850 54.740 C 352.766 54.791,352.740 54.672,352.792 54.474 C 352.856 54.230,352.825 54.152,352.695 54.233 C 352.571 54.309,352.539 54.260,352.603 54.092 C 352.668 53.922,352.607 53.833,352.425 53.833 C 352.272 53.833,352.193 53.758,352.250 53.667 C 352.307 53.575,352.274 53.500,352.177 53.500 C 352.079 53.500,352.000 53.313,352.000 53.083 C 352.000 52.824,351.906 52.667,351.750 52.667 C 351.613 52.667,351.500 52.550,351.500 52.407 C 351.500 52.243,351.423 52.193,351.292 52.272 C 351.150 52.357,351.157 52.307,351.312 52.115 C 351.461 51.932,351.476 51.833,351.354 51.833 C 351.251 51.833,351.167 51.683,351.167 51.500 C 351.167 51.317,351.092 51.167,351.000 51.167 C 350.908 51.167,350.833 50.979,350.833 50.750 C 350.833 50.521,350.777 50.342,350.708 50.353 C 350.354 50.409,350.225 50.298,350.253 49.958 C 350.269 49.752,350.210 49.536,350.121 49.477 C 350.031 49.419,349.958 49.180,349.958 48.945 C 349.958 48.711,349.857 48.481,349.732 48.433 C 349.577 48.373,349.538 48.187,349.607 47.842 C 349.682 47.467,349.638 47.312,349.437 47.235 C 349.237 47.158,349.166 46.909,349.164 46.274 C 349.162 45.659,349.116 45.487,349.000 45.667 C 348.809 45.961,348.796 45.885,348.815 44.625 C 348.826 43.923,348.769 43.667,348.604 43.667 C 348.420 43.667,348.381 42.832,348.393 39.083 C 348.403 35.651,348.456 34.500,348.605 34.500 C 348.739 34.500,348.807 34.131,348.813 33.377 C 348.818 32.759,348.899 32.228,348.994 32.196 C 349.089 32.165,349.167 31.741,349.167 31.254 C 349.167 30.590,349.234 30.343,349.438 30.265 C 349.643 30.186,349.687 30.022,349.617 29.593 C 349.549 29.176,349.593 29.000,349.781 28.928 C 349.958 28.860,350.015 28.675,349.964 28.331 C 349.914 27.992,349.961 27.833,350.112 27.833 C 350.252 27.833,350.333 27.627,350.333 27.268 C 350.333 26.901,350.428 26.666,350.602 26.599 C 350.774 26.533,350.840 26.375,350.784 26.162 C 350.736 25.978,350.802 25.722,350.932 25.592 C 351.061 25.463,351.167 25.127,351.167 24.845 C 351.167 24.564,351.242 24.333,351.333 24.333 C 351.425 24.333,351.500 24.146,351.500 23.917 C 351.500 23.657,351.594 23.500,351.750 23.500 C 351.906 23.500,352.000 23.343,352.000 23.083 C 352.000 22.854,352.075 22.667,352.167 22.667 C 352.258 22.667,352.333 22.404,352.333 22.083 C 352.333 21.657,352.406 21.500,352.603 21.500 C 352.800 21.500,352.851 21.389,352.793 21.083 C 352.739 20.804,352.788 20.667,352.940 20.667 C 353.065 20.667,353.167 20.528,353.167 20.358 C 353.167 20.188,353.354 19.846,353.583 19.599 C 353.813 19.352,354.000 18.999,354.000 18.815 C 354.000 18.631,354.075 18.527,354.167 18.583 C 354.258 18.640,354.333 18.532,354.333 18.343 C 354.333 18.154,354.408 18.000,354.500 18.000 C 354.592 18.000,354.667 17.813,354.667 17.583 C 354.667 17.354,354.747 17.167,354.845 17.167 C 355.139 17.167,355.500 16.714,355.500 16.345 C 355.500 16.138,355.608 16.000,355.769 16.000 C 355.967 16.000,356.018 15.889,355.959 15.583 C 355.915 15.354,355.950 15.167,356.035 15.167 C 356.121 15.167,356.303 15.054,356.440 14.917 C 356.606 14.751,356.623 14.667,356.491 14.667 C 356.344 14.667,356.340 14.609,356.478 14.443 C 356.580 14.320,356.614 14.170,356.554 14.110 C 356.494 14.049,356.607 14.000,356.806 14.000 C 357.022 14.000,357.167 13.896,357.167 13.740 C 357.167 13.597,357.229 13.519,357.305 13.566 C 357.381 13.613,357.549 13.384,357.677 13.058 C 357.805 12.731,358.080 12.330,358.288 12.166 C 358.496 12.003,358.667 11.795,358.667 11.705 C 358.667 11.615,358.778 11.448,358.915 11.335 C 359.051 11.222,359.122 11.062,359.072 10.981 C 359.021 10.900,359.097 10.833,359.240 10.833 C 359.383 10.833,359.500 10.758,359.500 10.667 C 359.500 10.575,359.575 10.500,359.667 10.500 C 359.758 10.500,359.833 10.575,359.833 10.667 M328.667 28.000 C 328.667 28.092,329.007 28.167,329.422 28.167 C 329.939 28.167,330.207 28.245,330.273 28.417 C 330.338 28.586,330.604 28.667,331.101 28.667 C 331.504 28.667,331.833 28.726,331.833 28.798 C 331.833 28.870,332.077 28.947,332.375 28.970 C 332.673 28.992,332.942 29.083,332.972 29.172 C 333.003 29.261,333.276 29.333,333.579 29.333 C 333.932 29.333,334.168 29.430,334.234 29.601 C 334.290 29.748,334.439 29.829,334.564 29.780 C 334.689 29.732,334.997 29.800,335.248 29.930 C 335.499 30.060,335.809 30.167,335.936 30.167 C 336.063 30.167,336.167 30.242,336.167 30.333 C 336.167 30.425,336.246 30.500,336.343 30.500 C 336.440 30.500,336.477 30.430,336.424 30.345 C 336.371 30.260,336.416 30.135,336.523 30.069 C 336.643 29.995,336.674 30.021,336.602 30.136 C 336.532 30.249,336.654 30.366,336.910 30.430 C 337.143 30.488,337.333 30.649,337.333 30.786 C 337.333 30.937,337.430 30.999,337.579 30.942 C 337.713 30.890,337.933 30.957,338.067 31.090 C 338.200 31.224,338.457 31.333,338.637 31.333 C 338.817 31.333,339.009 31.451,339.064 31.594 C 339.119 31.737,339.240 31.807,339.333 31.750 C 339.426 31.693,339.546 31.760,339.600 31.901 C 339.664 32.068,339.862 32.137,340.168 32.102 C 340.510 32.062,340.614 32.109,340.551 32.274 C 340.492 32.429,340.601 32.500,340.899 32.500 C 341.174 32.500,341.333 32.592,341.333 32.750 C 341.333 32.887,341.433 33.000,341.554 33.000 C 341.800 33.000,341.740 33.938,341.474 34.274 C 341.281 34.516,341.314 43.523,341.508 43.759 C 341.588 43.855,341.672 44.445,341.695 45.069 C 341.722 45.809,341.811 46.233,341.952 46.286 C 342.087 46.338,342.167 46.672,342.167 47.184 C 342.167 47.792,342.229 48.000,342.412 48.000 C 342.594 48.000,342.633 48.125,342.563 48.476 C 342.491 48.839,342.541 48.982,342.776 49.077 C 343.069 49.196,343.067 49.209,342.750 49.340 C 342.456 49.460,342.452 49.478,342.716 49.488 C 342.966 49.498,342.997 49.595,342.906 50.083 C 342.817 50.554,342.848 50.667,343.065 50.667 C 343.212 50.667,343.333 50.802,343.333 50.967 C 343.333 51.132,343.427 51.368,343.542 51.491 C 343.708 51.671,343.708 51.692,343.542 51.598 C 343.427 51.533,343.333 51.560,343.333 51.657 C 343.333 51.754,343.408 51.833,343.500 51.833 C 343.592 51.833,343.667 52.021,343.667 52.250 L 343.667 52.667 340.828 52.667 C 338.422 52.667,337.974 52.706,337.891 52.924 C 337.813 53.126,337.567 53.171,336.746 53.133 C 336.171 53.105,335.735 53.027,335.778 52.957 C 335.820 52.888,335.737 52.786,335.594 52.731 C 335.451 52.676,335.333 52.470,335.333 52.272 C 335.333 52.075,335.183 51.820,335.000 51.705 C 334.817 51.591,334.667 51.350,334.667 51.171 C 334.667 50.992,334.511 50.762,334.320 50.660 C 334.130 50.558,333.897 50.255,333.804 49.987 C 333.710 49.719,333.566 49.500,333.484 49.500 C 333.401 49.500,333.333 49.387,333.333 49.250 C 333.333 49.112,333.277 49.000,333.207 49.000 C 333.091 49.000,332.850 48.514,332.604 47.781 C 332.548 47.615,332.427 47.526,332.335 47.583 C 332.238 47.642,332.167 47.500,332.167 47.250 C 332.167 47.002,332.095 46.858,332.000 46.917 C 331.903 46.977,331.833 46.812,331.833 46.524 C 331.833 46.251,331.759 46.003,331.668 45.972 C 331.577 45.942,331.485 45.702,331.463 45.439 C 331.442 45.176,331.329 44.924,331.212 44.879 C 331.095 44.834,331.000 44.618,331.000 44.399 C 331.000 44.179,330.925 44.000,330.833 44.000 C 330.742 44.000,330.667 43.737,330.667 43.417 C 330.667 43.009,330.591 42.833,330.417 42.833 C 330.242 42.833,330.167 42.657,330.167 42.250 C 330.167 41.929,330.092 41.667,330.000 41.667 C 329.908 41.667,329.833 41.404,329.833 41.083 C 329.833 40.762,329.758 40.500,329.667 40.500 C 329.575 40.500,329.500 40.262,329.500 39.971 C 329.500 39.681,329.394 39.325,329.265 39.180 C 329.135 39.035,329.009 38.617,328.984 38.250 C 328.959 37.883,328.884 37.508,328.817 37.417 C 328.751 37.325,328.677 36.912,328.653 36.500 C 328.629 36.087,328.516 35.637,328.402 35.500 C 328.277 35.350,328.205 34.824,328.220 34.180 C 328.238 33.458,328.179 33.087,328.040 33.041 C 327.888 32.990,327.833 32.297,327.833 30.403 L 327.833 27.833 328.250 27.833 C 328.479 27.833,328.667 27.908,328.667 28.000 M391.673 28.156 C 391.368 28.724,391.450 29.675,391.792 29.547 C 392.036 29.455,392.050 29.479,391.876 29.692 C 391.763 29.833,391.725 30.009,391.793 30.084 C 391.861 30.159,391.823 30.166,391.708 30.100 C 391.548 30.008,391.500 30.329,391.500 31.490 C 391.500 32.321,391.436 33.000,391.358 33.000 C 391.280 33.000,391.203 33.469,391.187 34.042 C 391.171 34.615,391.115 35.224,391.061 35.396 C 390.992 35.619,391.024 35.671,391.175 35.578 C 391.312 35.493,391.343 35.516,391.264 35.644 C 391.198 35.751,391.082 35.800,391.006 35.754 C 390.786 35.618,390.696 36.043,390.784 36.801 C 390.852 37.392,390.823 37.486,390.599 37.400 C 390.377 37.315,390.333 37.438,390.333 38.149 C 390.333 38.617,390.262 39.000,390.176 39.000 C 390.089 39.000,389.995 39.356,389.967 39.792 C 389.938 40.252,389.840 40.569,389.733 40.550 C 389.633 40.532,389.544 40.749,389.536 41.034 C 389.527 41.318,389.450 41.596,389.364 41.650 C 389.277 41.705,389.207 41.967,389.207 42.232 C 389.208 42.511,389.090 42.779,388.927 42.871 C 388.719 42.987,388.674 43.154,388.753 43.514 C 388.819 43.812,388.792 44.000,388.683 44.000 C 388.586 44.000,388.459 44.188,388.402 44.417 C 388.344 44.646,388.227 44.833,388.141 44.833 C 388.056 44.833,387.998 44.927,388.012 45.042 C 388.086 45.609,387.978 46.000,387.747 46.000 C 387.560 46.000,387.521 46.109,387.598 46.417 C 387.677 46.732,387.637 46.833,387.435 46.833 C 387.278 46.833,387.167 46.971,387.167 47.167 C 387.167 47.350,387.092 47.500,387.000 47.500 C 386.908 47.500,386.842 47.556,386.853 47.625 C 386.917 48.028,386.810 48.505,386.675 48.422 C 386.501 48.314,386.122 48.900,386.270 49.048 C 386.321 49.099,386.168 49.267,385.931 49.423 C 385.662 49.599,385.500 49.858,385.500 50.112 C 385.500 50.381,385.434 50.479,385.305 50.399 C 385.175 50.319,385.144 50.368,385.213 50.548 C 385.288 50.743,385.245 50.789,385.056 50.716 C 384.849 50.637,384.819 50.693,384.912 50.986 C 385.004 51.276,384.954 51.377,384.682 51.448 C 384.490 51.498,384.333 51.647,384.333 51.779 C 384.333 51.911,384.258 51.973,384.167 51.917 C 384.074 51.860,383.998 51.985,383.995 52.198 C 383.983 53.036,381.894 53.666,381.607 52.918 C 381.531 52.720,381.328 52.655,380.876 52.684 C 376.787 52.949,374.940 52.576,375.987 51.696 C 376.197 51.519,376.200 51.499,376.000 51.595 C 375.797 51.693,375.789 51.673,375.958 51.491 C 376.073 51.368,376.167 51.132,376.167 50.967 C 376.167 50.802,376.242 50.667,376.333 50.667 C 376.425 50.667,376.500 50.404,376.500 50.083 C 376.500 49.743,376.583 49.500,376.699 49.500 C 376.808 49.500,376.751 49.387,376.574 49.250 C 376.352 49.078,376.334 49.028,376.516 49.091 C 376.722 49.162,376.786 49.061,376.797 48.645 C 376.806 48.345,376.927 48.044,377.073 47.962 C 377.248 47.864,377.333 47.574,377.333 47.075 C 377.333 46.667,377.408 46.333,377.500 46.333 C 377.596 46.333,377.667 45.809,377.667 45.093 C 377.667 44.411,377.738 43.809,377.826 43.755 C 377.920 43.696,377.989 41.729,377.995 38.900 C 378.001 35.727,377.948 34.179,377.836 34.249 C 377.732 34.313,377.667 34.091,377.667 33.677 C 377.667 33.304,377.742 33.000,377.833 33.000 C 377.925 33.000,378.000 32.887,378.000 32.750 C 378.000 32.594,378.157 32.500,378.417 32.500 C 378.646 32.500,378.833 32.425,378.833 32.333 C 378.833 32.242,379.029 32.167,379.268 32.167 C 379.570 32.167,379.675 32.096,379.614 31.936 C 379.550 31.770,379.622 31.730,379.867 31.794 C 380.083 31.850,380.266 31.782,380.363 31.608 C 380.447 31.457,380.663 31.333,380.842 31.333 C 381.020 31.333,381.167 31.231,381.167 31.106 C 381.167 30.963,381.320 30.896,381.583 30.925 C 381.853 30.954,382.000 30.887,382.000 30.735 C 382.000 30.584,382.182 30.500,382.512 30.500 C 382.793 30.500,383.133 30.391,383.267 30.257 C 383.400 30.123,383.620 30.057,383.755 30.108 C 383.890 30.160,384.000 30.119,384.000 30.018 C 384.000 29.916,384.227 29.833,384.505 29.833 C 384.801 29.833,385.050 29.729,385.106 29.583 C 385.166 29.428,385.420 29.333,385.778 29.333 C 386.119 29.333,386.311 29.265,386.250 29.167 C 386.154 29.011,386.625 28.920,387.149 28.993 C 387.277 29.011,387.437 28.936,387.504 28.826 C 387.572 28.717,387.941 28.631,388.323 28.636 C 388.781 28.643,389.050 28.564,389.110 28.406 C 389.165 28.264,389.428 28.167,389.758 28.167 C 390.064 28.167,390.360 28.092,390.417 28.000 C 390.636 27.646,391.864 27.798,391.673 28.156 M345.000 60.000 C 345.000 60.092,345.322 60.167,345.717 60.167 C 346.111 60.167,346.505 60.236,346.592 60.321 C 346.679 60.405,346.975 60.499,347.250 60.529 C 347.567 60.563,347.732 60.667,347.702 60.811 C 347.667 60.976,347.767 61.011,348.065 60.936 C 348.330 60.870,348.568 60.925,348.737 61.094 C 348.880 61.237,349.070 61.310,349.159 61.255 C 349.247 61.200,349.544 61.390,349.818 61.676 C 350.091 61.963,350.395 62.148,350.492 62.088 C 350.589 62.028,350.712 62.091,350.765 62.229 C 350.818 62.366,350.970 62.437,351.104 62.386 C 351.238 62.334,351.335 62.358,351.320 62.438 C 351.246 62.843,351.374 63.000,351.778 63.000 C 352.022 63.000,352.176 63.046,352.119 63.103 C 351.993 63.230,352.408 63.667,352.655 63.667 C 352.753 63.667,352.833 63.784,352.833 63.927 C 352.833 64.069,352.908 64.140,353.000 64.083 C 353.092 64.027,353.167 64.096,353.167 64.237 C 353.167 64.378,353.354 64.541,353.583 64.598 C 353.965 64.694,354.066 64.883,354.045 65.458 C 354.041 65.573,354.146 65.667,354.278 65.667 C 354.420 65.667,354.470 65.747,354.399 65.862 C 354.317 65.994,354.371 66.021,354.565 65.947 C 354.722 65.887,354.815 65.896,354.770 65.967 C 354.726 66.038,354.808 66.340,354.952 66.638 C 355.236 67.223,354.969 67.649,354.309 67.661 C 354.159 67.664,353.992 67.779,353.940 67.917 C 353.887 68.054,353.687 68.167,353.495 68.167 C 353.304 68.167,353.193 68.242,353.250 68.333 C 353.307 68.425,353.236 68.500,353.093 68.500 C 352.950 68.500,352.833 68.575,352.833 68.667 C 352.833 68.758,352.687 68.833,352.508 68.833 C 352.330 68.833,352.114 68.957,352.029 69.108 C 351.931 69.284,351.750 69.350,351.527 69.292 C 351.331 69.241,351.095 69.303,350.986 69.434 C 350.879 69.562,350.667 69.667,350.513 69.667 C 350.359 69.667,350.157 69.743,350.064 69.836 C 349.971 69.929,349.511 70.013,349.041 70.024 C 348.485 70.036,348.155 70.123,348.098 70.272 C 347.987 70.561,343.500 70.611,343.500 70.323 C 343.500 70.226,343.425 70.193,343.333 70.250 C 343.242 70.307,343.167 70.286,343.167 70.204 C 343.167 70.122,342.852 70.042,342.468 70.027 C 342.084 70.012,341.717 69.915,341.653 69.810 C 341.588 69.706,341.338 69.659,341.097 69.705 C 340.809 69.760,340.609 69.702,340.516 69.535 C 340.433 69.386,340.159 69.288,339.854 69.296 C 339.506 69.306,339.333 69.232,339.333 69.072 C 339.333 68.929,339.167 68.833,338.917 68.833 C 338.688 68.833,338.500 68.763,338.500 68.678 C 338.500 68.592,338.281 68.529,338.013 68.536 C 337.745 68.544,337.402 68.426,337.251 68.275 C 337.100 68.124,336.902 68.000,336.812 68.000 C 336.721 68.000,336.693 67.925,336.750 67.833 C 336.839 67.689,336.357 67.580,335.946 67.651 C 335.870 67.664,335.856 67.598,335.914 67.504 C 335.972 67.410,335.906 67.333,335.767 67.333 C 335.629 67.333,335.321 67.139,335.083 66.902 C 334.843 66.661,334.544 66.511,334.409 66.563 C 334.265 66.619,334.167 66.557,334.167 66.411 C 334.167 66.273,334.013 66.167,333.813 66.167 C 333.522 66.167,333.495 66.124,333.661 65.923 C 333.828 65.722,333.804 65.691,333.520 65.746 C 333.332 65.782,333.006 65.669,332.797 65.495 C 332.588 65.320,332.468 65.175,332.530 65.172 C 332.726 65.163,331.217 63.667,331.011 63.667 C 330.904 63.667,330.557 63.491,330.241 63.276 L 329.666 62.885 330.002 62.498 C 330.215 62.252,330.521 62.111,330.842 62.111 C 331.148 62.111,331.319 62.037,331.276 61.924 C 331.236 61.821,331.388 61.721,331.613 61.702 C 331.838 61.684,332.128 61.562,332.258 61.432 C 332.390 61.300,332.650 61.237,332.847 61.289 C 333.049 61.342,333.259 61.288,333.336 61.163 C 333.410 61.043,333.699 60.944,333.978 60.944 C 334.257 60.944,334.524 60.844,334.571 60.722 C 334.620 60.593,334.911 60.500,335.263 60.500 C 335.768 60.500,335.852 60.451,335.767 60.208 C 335.683 59.965,335.708 59.971,335.916 60.240 C 336.054 60.418,336.167 60.474,336.167 60.365 C 336.167 60.240,336.458 60.166,336.958 60.164 C 337.394 60.163,337.862 60.089,338.000 60.000 C 338.340 59.780,345.000 59.780,345.000 60.000 M381.333 60.000 C 381.333 60.092,381.741 60.167,382.240 60.167 C 382.739 60.167,383.193 60.242,383.250 60.333 C 383.307 60.425,383.721 60.500,384.171 60.500 C 384.830 60.500,384.971 60.549,384.894 60.750 C 384.841 60.887,384.881 61.000,384.982 61.000 C 385.084 61.000,385.173 60.906,385.180 60.792 C 385.190 60.625,385.210 60.625,385.277 60.792 C 385.323 60.906,385.505 61.000,385.681 61.000 C 385.856 61.000,386.000 61.075,386.000 61.167 C 386.000 61.258,386.131 61.332,386.292 61.331 C 386.543 61.329,386.549 61.304,386.333 61.151 C 386.111 60.994,386.111 60.985,386.333 61.071 C 386.471 61.123,386.715 61.213,386.875 61.269 C 387.035 61.326,387.167 61.438,387.167 61.519 C 387.167 61.600,387.354 61.667,387.583 61.667 C 387.843 61.667,388.000 61.761,388.000 61.917 C 388.000 62.085,388.168 62.167,388.512 62.167 C 389.023 62.167,389.500 62.483,389.500 62.821 C 389.500 62.920,389.425 63.000,389.333 63.000 C 389.242 63.000,389.167 63.121,389.167 63.268 C 389.167 63.433,389.074 63.500,388.925 63.443 C 388.763 63.381,388.714 63.430,388.777 63.594 C 388.845 63.772,388.791 63.807,388.575 63.724 C 388.349 63.637,388.312 63.666,388.421 63.847 C 388.543 64.049,388.523 64.050,388.282 63.855 C 388.039 63.657,388.000 63.663,388.000 63.896 C 388.000 64.045,387.905 64.167,387.790 64.167 C 387.674 64.167,387.502 64.335,387.408 64.542 C 387.315 64.748,387.147 64.898,387.036 64.875 C 386.924 64.852,386.833 64.946,386.833 65.083 C 386.833 65.221,386.721 65.333,386.583 65.333 C 386.446 65.333,386.333 65.408,386.333 65.500 C 386.333 65.592,386.224 65.667,386.091 65.667 C 385.958 65.667,385.661 65.854,385.432 66.083 C 385.203 66.313,384.901 66.500,384.761 66.500 C 384.622 66.500,384.385 66.688,384.235 66.917 C 384.070 67.168,383.804 67.333,383.564 67.333 C 383.335 67.333,383.184 67.422,383.208 67.542 C 383.233 67.667,383.101 67.734,382.875 67.710 C 382.626 67.684,382.500 67.760,382.500 67.936 C 382.500 68.104,382.408 68.167,382.250 68.106 C 382.098 68.048,382.000 68.106,382.000 68.255 C 382.000 68.415,381.830 68.500,381.514 68.500 C 381.247 68.500,381.000 68.584,380.965 68.688 C 380.931 68.791,380.685 68.875,380.420 68.875 C 379.966 68.875,379.956 68.889,380.255 69.108 C 380.545 69.320,380.520 69.334,379.968 69.263 C 379.539 69.208,379.261 69.273,379.015 69.487 C 378.809 69.666,378.508 69.757,378.270 69.711 C 378.052 69.670,377.822 69.717,377.760 69.818 C 377.698 69.918,377.309 70.000,376.897 70.000 C 376.367 70.000,376.182 70.057,376.268 70.195 C 376.349 70.326,376.297 70.355,376.111 70.284 C 375.958 70.225,375.833 70.250,375.833 70.339 C 375.833 70.631,371.386 70.544,371.273 70.250 C 371.204 70.069,370.921 70.000,370.255 70.000 C 369.748 70.000,369.333 69.925,369.333 69.833 C 369.333 69.742,369.079 69.667,368.768 69.667 C 368.433 69.667,368.165 69.570,368.111 69.430 C 368.056 69.285,367.887 69.227,367.677 69.282 C 367.435 69.346,367.333 69.293,367.333 69.103 C 367.333 68.925,367.189 68.833,366.907 68.833 C 366.665 68.833,366.525 68.761,366.583 68.667 C 366.640 68.575,366.522 68.500,366.321 68.500 C 366.119 68.500,365.781 68.313,365.569 68.083 C 365.356 67.854,365.067 67.667,364.925 67.667 C 364.783 67.667,364.667 67.592,364.667 67.500 C 364.667 67.408,364.554 67.333,364.417 67.333 C 364.093 67.333,364.097 67.046,364.426 66.717 C 364.569 66.574,364.645 66.350,364.595 66.220 C 364.545 66.089,364.565 66.020,364.639 66.066 C 364.813 66.174,365.234 65.667,365.305 65.263 C 365.368 64.902,365.728 64.500,365.988 64.500 C 366.086 64.500,366.167 64.387,366.167 64.250 C 366.167 64.112,366.247 64.000,366.345 64.000 C 366.580 64.000,367.000 63.574,367.000 63.335 C 367.000 63.232,367.075 63.193,367.167 63.250 C 367.258 63.307,367.333 63.231,367.333 63.082 C 367.333 62.894,367.428 62.841,367.641 62.909 C 367.849 62.975,368.051 62.871,368.264 62.586 C 368.437 62.356,368.666 62.167,368.772 62.167 C 368.878 62.167,369.008 62.054,369.060 61.917 C 369.113 61.779,369.301 61.667,369.477 61.667 C 369.653 61.667,369.843 61.549,369.898 61.406 C 369.953 61.263,370.082 61.197,370.184 61.261 C 370.287 61.324,370.426 61.287,370.493 61.178 C 370.561 61.068,370.852 60.972,371.141 60.964 C 371.463 60.955,371.667 60.862,371.667 60.725 C 371.667 60.579,371.872 60.500,372.250 60.500 C 372.571 60.500,372.833 60.425,372.833 60.333 C 372.833 60.242,373.166 60.167,373.573 60.167 C 373.981 60.167,374.360 60.092,374.417 60.000 C 374.480 59.898,375.835 59.833,377.927 59.833 C 380.087 59.833,381.333 59.894,381.333 60.000 " stroke="none" fill="#fcb413" fill-rule="evenodd"></path><path id="path1" d="M0.000 45.917 L 0.000 70.000 4.833 70.000 L 9.667 70.000 9.667 60.917 L 9.667 51.833 19.003 51.833 L 28.338 51.833 28.294 46.958 L 28.250 42.083 18.958 42.040 L 9.667 41.997 9.667 36.917 L 9.667 31.836 19.292 31.793 L 28.917 31.750 28.961 26.792 L 29.005 21.833 14.502 21.833 L 0.000 21.833 0.000 45.917 M51.667 45.917 L 51.667 70.000 66.667 70.000 L 81.667 70.000 81.667 65.250 L 81.667 60.500 71.583 60.500 L 61.500 60.500 61.500 55.583 L 61.500 50.667 70.583 50.667 L 79.667 50.667 79.667 45.750 L 79.667 40.833 70.583 40.833 L 61.500 40.833 61.500 36.333 L 61.500 31.833 71.333 31.833 L 81.167 31.833 81.167 26.833 L 81.167 21.833 66.417 21.833 L 51.667 21.833 51.667 45.917 M103.833 45.917 L 103.833 70.000 108.750 70.000 L 113.667 70.000 113.667 61.917 L 113.667 53.833 117.000 53.833 C 119.852 53.833,120.333 53.869,120.333 54.083 C 120.333 54.221,120.446 54.333,120.583 54.333 C 120.722 54.333,120.833 54.481,120.833 54.667 C 120.833 54.850,120.908 55.000,121.000 55.000 C 121.092 55.000,121.167 55.188,121.167 55.417 C 121.167 55.646,121.242 55.833,121.333 55.833 C 121.425 55.833,121.500 55.973,121.500 56.143 C 121.500 56.314,121.688 56.594,121.917 56.766 C 122.146 56.939,122.333 57.249,122.333 57.456 C 122.333 57.664,122.408 57.833,122.500 57.833 C 122.592 57.833,122.667 57.975,122.667 58.149 C 122.667 58.322,122.779 58.508,122.917 58.560 C 123.054 58.613,123.167 58.809,123.167 58.995 C 123.167 59.181,123.242 59.333,123.333 59.333 C 123.425 59.333,123.500 59.446,123.500 59.583 C 123.500 59.721,123.575 59.833,123.667 59.833 C 123.758 59.833,123.833 59.948,123.833 60.089 C 123.833 60.229,123.946 60.387,124.083 60.440 C 124.221 60.492,124.333 60.683,124.333 60.863 C 124.333 61.217,124.700 61.667,124.988 61.667 C 125.086 61.667,125.167 61.854,125.167 62.083 C 125.167 62.313,125.242 62.500,125.333 62.500 C 125.425 62.500,125.500 62.688,125.500 62.917 C 125.500 63.146,125.575 63.333,125.667 63.333 C 125.758 63.333,125.833 63.442,125.833 63.576 C 125.833 63.709,126.021 64.006,126.250 64.235 C 126.479 64.464,126.667 64.805,126.667 64.992 C 126.667 65.180,126.725 65.333,126.795 65.333 C 126.866 65.333,127.066 65.596,127.238 65.917 C 127.411 66.238,127.616 66.500,127.693 66.500 C 127.770 66.500,127.833 66.688,127.833 66.917 C 127.833 67.176,127.928 67.333,128.083 67.333 C 128.222 67.333,128.333 67.481,128.333 67.667 C 128.333 67.850,128.408 68.000,128.500 68.000 C 128.592 68.000,128.667 68.155,128.667 68.345 C 128.667 68.714,129.027 69.167,129.321 69.167 C 129.420 69.167,129.500 69.354,129.500 69.583 L 129.500 70.000 135.000 70.000 L 140.500 70.000 140.500 69.417 C 140.500 69.096,140.425 68.833,140.333 68.833 C 140.242 68.833,140.167 68.694,140.167 68.523 C 140.167 68.353,139.979 68.073,139.750 67.900 C 139.521 67.728,139.333 67.418,139.333 67.210 C 139.333 67.003,139.258 66.833,139.167 66.833 C 139.075 66.833,139.000 66.683,139.000 66.500 C 139.000 66.315,138.889 66.167,138.750 66.167 C 138.612 66.167,138.500 66.054,138.500 65.917 C 138.500 65.779,138.425 65.667,138.333 65.667 C 138.242 65.667,138.167 65.514,138.167 65.328 C 138.167 65.142,138.054 64.946,137.917 64.894 C 137.779 64.841,137.667 64.656,137.667 64.482 C 137.667 64.309,137.592 64.167,137.500 64.167 C 137.408 64.167,137.333 64.011,137.333 63.821 C 137.333 63.452,136.973 63.000,136.679 63.000 C 136.580 63.000,136.500 62.813,136.500 62.583 C 136.500 62.354,136.425 62.167,136.333 62.167 C 136.242 62.167,136.167 62.011,136.167 61.821 C 136.167 61.452,135.806 61.000,135.512 61.000 C 135.414 61.000,135.333 60.813,135.333 60.583 C 135.333 60.354,135.258 60.167,135.167 60.167 C 135.075 60.167,135.000 60.060,135.000 59.930 C 135.000 59.633,134.459 58.669,134.292 58.668 C 134.223 58.667,134.167 58.554,134.167 58.417 C 134.167 58.279,134.092 58.167,134.000 58.167 C 133.908 58.167,133.833 58.017,133.833 57.833 C 133.833 57.648,133.722 57.500,133.583 57.500 C 133.428 57.500,133.333 57.343,133.333 57.083 C 133.333 56.854,133.258 56.667,133.167 56.667 C 133.075 56.667,133.000 56.554,133.000 56.417 C 133.000 56.279,132.925 56.167,132.833 56.167 C 132.742 56.167,132.667 56.017,132.667 55.833 C 132.667 55.648,132.556 55.500,132.417 55.500 C 132.268 55.500,132.167 55.347,132.167 55.120 C 132.167 54.911,132.017 54.632,131.833 54.500 C 131.650 54.368,131.500 54.089,131.500 53.880 C 131.500 53.653,131.399 53.500,131.250 53.500 C 131.094 53.500,131.000 53.343,131.000 53.083 C 131.000 52.854,130.925 52.667,130.833 52.667 C 130.742 52.667,130.667 52.479,130.667 52.250 C 130.667 51.949,130.756 51.833,130.990 51.833 C 131.168 51.833,131.360 51.758,131.417 51.667 C 131.473 51.575,131.638 51.500,131.782 51.500 C 131.926 51.500,132.292 51.237,132.594 50.917 C 132.897 50.596,133.232 50.333,133.339 50.333 C 133.446 50.333,133.796 50.071,134.117 49.750 C 134.438 49.429,134.767 49.167,134.850 49.167 C 134.933 49.167,135.000 49.081,135.000 48.977 C 135.000 48.873,135.262 48.563,135.583 48.289 C 135.904 48.015,136.167 47.668,136.167 47.518 C 136.167 47.368,136.354 47.105,136.583 46.933 C 136.813 46.761,137.000 46.480,137.000 46.310 C 137.000 46.139,137.075 46.000,137.167 46.000 C 137.258 46.000,137.333 45.887,137.333 45.750 C 137.333 45.612,137.408 45.500,137.500 45.500 C 137.592 45.500,137.667 45.358,137.667 45.184 C 137.667 45.011,137.779 44.826,137.917 44.773 C 138.063 44.717,138.167 44.467,138.167 44.172 C 138.167 43.894,138.242 43.667,138.333 43.667 C 138.425 43.667,138.500 43.367,138.500 43.000 C 138.500 42.519,138.569 42.333,138.750 42.333 C 138.935 42.333,139.000 42.139,139.000 41.583 C 139.000 41.171,139.075 40.833,139.167 40.833 C 139.271 40.833,139.333 39.806,139.333 38.083 C 139.333 36.361,139.271 35.333,139.167 35.333 C 139.075 35.333,139.000 34.918,139.000 34.411 C 139.000 33.746,138.931 33.463,138.750 33.394 C 138.596 33.334,138.500 33.081,138.500 32.732 C 138.500 32.421,138.425 32.167,138.333 32.167 C 138.242 32.167,138.167 31.979,138.167 31.750 C 138.167 31.491,138.072 31.333,137.917 31.333 C 137.761 31.333,137.667 31.176,137.667 30.917 C 137.667 30.688,137.592 30.500,137.500 30.500 C 137.408 30.500,137.333 30.350,137.333 30.167 C 137.333 29.983,137.258 29.833,137.167 29.833 C 137.075 29.833,137.000 29.646,137.000 29.417 C 137.000 29.188,136.920 29.000,136.821 29.000 C 136.551 29.000,136.167 28.559,136.167 28.250 C 136.167 27.941,135.782 27.500,135.512 27.500 C 135.414 27.500,135.333 27.421,135.333 27.325 C 135.333 27.108,133.741 25.500,133.526 25.500 C 133.440 25.500,133.326 25.387,133.273 25.250 C 133.220 25.113,133.062 25.000,132.922 25.000 C 132.782 25.000,132.667 24.925,132.667 24.833 C 132.667 24.742,132.554 24.667,132.417 24.667 C 132.279 24.667,132.167 24.592,132.167 24.500 C 132.167 24.408,132.025 24.333,131.851 24.333 C 131.678 24.333,131.492 24.221,131.440 24.083 C 131.387 23.946,131.191 23.833,131.005 23.833 C 130.819 23.833,130.667 23.758,130.667 23.667 C 130.667 23.575,130.479 23.500,130.250 23.500 C 130.021 23.500,129.833 23.425,129.833 23.333 C 129.833 23.242,129.646 23.167,129.417 23.167 C 129.157 23.167,129.000 23.072,129.000 22.917 C 129.000 22.742,128.824 22.667,128.417 22.667 C 128.096 22.667,127.833 22.592,127.833 22.500 C 127.833 22.407,127.389 22.333,126.833 22.333 C 126.056 22.333,125.833 22.278,125.833 22.083 C 125.833 21.864,124.500 21.833,114.833 21.833 L 103.833 21.833 103.833 45.917 M161.833 45.917 L 161.833 70.000 166.750 70.000 L 171.667 70.000 171.667 55.339 C 171.667 42.375,171.696 40.688,171.917 40.773 C 172.054 40.826,172.167 41.016,172.167 41.196 C 172.167 41.550,172.533 42.000,172.821 42.000 C 172.920 42.000,173.000 42.188,173.000 42.417 C 173.000 42.646,173.075 42.833,173.167 42.833 C 173.258 42.833,173.333 42.983,173.333 43.167 C 173.333 43.350,173.408 43.500,173.500 43.500 C 173.592 43.500,173.667 43.612,173.667 43.750 C 173.667 43.887,173.779 44.000,173.917 44.000 C 174.072 44.000,174.167 44.157,174.167 44.417 C 174.167 44.646,174.242 44.833,174.333 44.833 C 174.425 44.833,174.500 44.956,174.500 45.106 C 174.500 45.256,174.688 45.552,174.917 45.765 C 175.146 45.977,175.336 46.248,175.339 46.367 C 175.346 46.665,175.746 47.167,175.977 47.167 C 176.081 47.167,176.167 47.354,176.167 47.583 C 176.167 47.813,176.242 48.000,176.333 48.000 C 176.425 48.000,176.500 48.150,176.500 48.333 C 176.500 48.517,176.575 48.667,176.667 48.667 C 176.758 48.667,176.833 48.779,176.833 48.917 C 176.833 49.054,176.946 49.167,177.083 49.167 C 177.222 49.167,177.333 49.315,177.333 49.500 C 177.333 49.683,177.408 49.833,177.500 49.833 C 177.592 49.833,177.667 49.993,177.667 50.189 C 177.667 50.385,177.854 50.719,178.083 50.931 C 178.313 51.144,178.500 51.433,178.500 51.575 C 178.500 51.717,178.575 51.833,178.667 51.833 C 178.758 51.833,178.833 52.021,178.833 52.250 C 178.833 52.479,178.914 52.667,179.012 52.667 C 179.306 52.667,179.667 53.119,179.667 53.488 C 179.667 53.678,179.742 53.833,179.833 53.833 C 179.925 53.833,180.000 53.973,180.000 54.143 C 180.000 54.314,180.188 54.594,180.417 54.766 C 180.646 54.938,180.833 55.217,180.833 55.385 C 180.833 55.721,181.207 56.167,181.488 56.167 C 181.586 56.167,181.667 56.354,181.667 56.583 C 181.667 56.813,181.742 57.000,181.833 57.000 C 181.925 57.000,182.000 57.155,182.000 57.345 C 182.000 57.714,182.361 58.167,182.655 58.167 C 182.753 58.167,182.833 58.354,182.833 58.583 C 182.833 58.813,182.908 59.000,183.000 59.000 C 183.092 59.000,183.167 59.139,183.167 59.310 C 183.167 59.480,183.354 59.761,183.583 59.933 C 183.813 60.105,184.000 60.383,184.000 60.551 C 184.000 61.431,186.551 61.768,186.765 60.917 C 186.822 60.688,186.936 60.500,187.018 60.500 C 187.100 60.500,187.167 60.350,187.167 60.167 C 187.167 59.983,187.242 59.833,187.333 59.833 C 187.425 59.833,187.500 59.721,187.500 59.583 C 187.500 59.446,187.570 59.333,187.654 59.333 C 187.832 59.333,188.333 58.392,188.333 58.058 C 188.333 57.934,188.408 57.833,188.500 57.833 C 188.592 57.833,188.667 57.721,188.667 57.583 C 188.667 57.446,188.779 57.333,188.917 57.333 C 189.056 57.333,189.167 57.185,189.167 57.000 C 189.167 56.817,189.242 56.667,189.333 56.667 C 189.425 56.667,189.500 56.479,189.500 56.250 C 189.500 55.991,189.594 55.833,189.750 55.833 C 189.887 55.833,190.000 55.721,190.000 55.583 C 190.000 55.446,190.075 55.333,190.167 55.333 C 190.258 55.333,190.333 55.183,190.333 55.000 C 190.333 54.817,190.408 54.667,190.500 54.667 C 190.592 54.667,190.667 54.479,190.667 54.250 C 190.667 54.021,190.747 53.833,190.845 53.833 C 191.139 53.833,191.500 53.381,191.500 53.012 C 191.500 52.822,191.575 52.667,191.667 52.667 C 191.758 52.667,191.833 52.479,191.833 52.250 C 191.833 52.021,191.914 51.833,192.012 51.833 C 192.293 51.833,192.667 51.387,192.667 51.051 C 192.667 50.883,192.854 50.605,193.083 50.433 C 193.313 50.261,193.500 49.980,193.500 49.810 C 193.500 49.639,193.575 49.500,193.667 49.500 C 193.758 49.500,193.833 49.313,193.833 49.083 C 193.833 48.854,193.914 48.667,194.012 48.667 C 194.306 48.667,194.667 48.214,194.667 47.845 C 194.667 47.655,194.742 47.500,194.833 47.500 C 194.925 47.500,195.000 47.384,195.000 47.242 C 195.000 47.100,195.188 46.810,195.417 46.598 C 195.646 46.386,195.833 46.052,195.833 45.856 C 195.833 45.660,195.908 45.500,196.000 45.500 C 196.092 45.500,196.167 45.350,196.167 45.167 C 196.167 44.981,196.278 44.833,196.417 44.833 C 196.554 44.833,196.667 44.721,196.667 44.583 C 196.667 44.446,196.742 44.333,196.833 44.333 C 196.925 44.333,197.000 44.191,197.000 44.018 C 197.000 43.844,197.112 43.659,197.250 43.606 C 197.387 43.554,197.500 43.358,197.500 43.172 C 197.500 42.986,197.575 42.833,197.667 42.833 C 197.758 42.833,197.833 42.721,197.833 42.583 C 197.833 42.446,197.908 42.333,198.000 42.333 C 198.092 42.333,198.167 42.183,198.167 42.000 C 198.167 41.815,198.278 41.667,198.417 41.667 C 198.572 41.667,198.667 41.509,198.667 41.250 C 198.667 41.021,198.742 40.833,198.833 40.833 C 198.943 40.833,199.000 45.806,199.000 55.417 L 199.000 70.000 203.917 70.000 L 208.833 70.000 208.833 45.917 L 208.833 21.833 203.750 21.833 C 199.343 21.833,198.667 21.867,198.667 22.083 C 198.667 22.221,198.554 22.333,198.417 22.333 C 198.268 22.333,198.167 22.487,198.167 22.713 C 198.167 22.922,198.017 23.201,197.833 23.333 C 197.650 23.465,197.500 23.745,197.500 23.953 C 197.500 24.180,197.399 24.333,197.250 24.333 C 197.111 24.333,197.000 24.481,197.000 24.667 C 197.000 24.850,196.925 25.000,196.833 25.000 C 196.742 25.000,196.667 25.113,196.667 25.250 C 196.667 25.387,196.610 25.500,196.542 25.501 C 196.374 25.502,195.833 26.466,195.833 26.764 C 195.833 26.894,195.758 27.000,195.667 27.000 C 195.575 27.000,195.500 27.104,195.500 27.232 C 195.500 27.360,195.387 27.508,195.250 27.560 C 195.112 27.613,195.000 27.771,195.000 27.911 C 195.000 28.052,194.925 28.167,194.833 28.167 C 194.742 28.167,194.667 28.336,194.667 28.544 C 194.667 28.751,194.479 29.061,194.250 29.234 C 194.021 29.406,193.833 29.686,193.833 29.857 C 193.833 30.027,193.758 30.167,193.667 30.167 C 193.575 30.167,193.500 30.322,193.500 30.512 C 193.500 30.881,193.139 31.333,192.845 31.333 C 192.747 31.333,192.667 31.521,192.667 31.750 C 192.667 31.979,192.592 32.167,192.500 32.167 C 192.408 32.167,192.333 32.354,192.333 32.583 C 192.333 32.813,192.253 33.000,192.155 33.000 C 191.874 33.000,191.500 33.446,191.500 33.782 C 191.500 33.950,191.313 34.228,191.083 34.400 C 190.854 34.573,190.667 34.853,190.667 35.023 C 190.667 35.194,190.592 35.333,190.500 35.333 C 190.408 35.333,190.333 35.503,190.333 35.710 C 190.333 35.918,190.146 36.228,189.917 36.400 C 189.688 36.573,189.500 36.853,189.500 37.023 C 189.500 37.194,189.425 37.333,189.333 37.333 C 189.242 37.333,189.167 37.449,189.167 37.591 C 189.167 37.733,188.979 38.023,188.750 38.235 C 188.521 38.448,188.333 38.782,188.333 38.977 C 188.333 39.173,188.258 39.333,188.167 39.333 C 188.075 39.333,188.000 39.483,188.000 39.667 C 188.000 39.852,187.889 40.000,187.750 40.000 C 187.612 40.000,187.500 40.112,187.500 40.250 C 187.500 40.387,187.425 40.500,187.333 40.500 C 187.242 40.500,187.167 40.650,187.167 40.833 C 187.167 41.017,187.092 41.167,187.000 41.167 C 186.908 41.167,186.833 41.354,186.833 41.583 C 186.833 41.843,186.739 42.000,186.583 42.000 C 186.446 42.000,186.333 42.112,186.333 42.250 C 186.333 42.387,186.258 42.500,186.167 42.500 C 186.075 42.500,186.000 42.612,186.000 42.750 C 186.000 42.981,185.439 43.667,185.250 43.667 C 185.204 43.667,185.167 43.511,185.167 43.321 C 185.167 42.952,184.806 42.500,184.512 42.500 C 184.414 42.500,184.333 42.313,184.333 42.083 C 184.333 41.854,184.258 41.667,184.167 41.667 C 184.075 41.667,184.000 41.554,184.000 41.417 C 184.000 41.279,183.925 41.167,183.833 41.167 C 183.742 41.167,183.667 41.017,183.667 40.833 C 183.667 40.648,183.556 40.500,183.417 40.500 C 183.275 40.500,183.167 40.351,183.167 40.155 C 183.167 39.786,182.806 39.333,182.512 39.333 C 182.414 39.333,182.333 39.146,182.333 38.917 C 182.333 38.688,182.258 38.500,182.167 38.500 C 182.075 38.500,182.000 38.345,182.000 38.155 C 182.000 37.786,181.639 37.333,181.345 37.333 C 181.247 37.333,181.167 37.146,181.167 36.917 C 181.167 36.688,181.092 36.500,181.000 36.500 C 180.908 36.500,180.831 36.369,180.828 36.208 C 180.821 35.848,180.446 35.333,180.190 35.333 C 180.085 35.333,180.000 35.146,180.000 34.917 C 180.000 34.688,179.925 34.500,179.833 34.500 C 179.742 34.500,179.667 34.350,179.667 34.167 C 179.667 33.981,179.556 33.833,179.417 33.833 C 179.279 33.833,179.167 33.721,179.167 33.583 C 179.167 33.446,179.092 33.333,179.000 33.333 C 178.908 33.333,178.833 33.146,178.833 32.917 C 178.833 32.688,178.758 32.500,178.667 32.500 C 178.575 32.500,178.500 32.350,178.500 32.167 C 178.500 31.981,178.389 31.833,178.250 31.833 C 178.112 31.833,178.000 31.721,178.000 31.583 C 178.000 31.446,177.925 31.333,177.833 31.333 C 177.742 31.333,177.667 31.183,177.667 31.000 C 177.667 30.817,177.592 30.667,177.500 30.667 C 177.408 30.667,177.333 30.554,177.333 30.417 C 177.333 30.279,177.221 30.167,177.083 30.167 C 176.928 30.167,176.833 30.009,176.833 29.750 C 176.833 29.521,176.758 29.333,176.667 29.333 C 176.575 29.333,176.500 29.211,176.500 29.061 C 176.500 28.911,176.313 28.614,176.083 28.402 C 175.854 28.190,175.667 27.900,175.667 27.758 C 175.667 27.616,175.592 27.500,175.500 27.500 C 175.408 27.500,175.333 27.313,175.333 27.083 C 175.333 26.824,175.239 26.667,175.083 26.667 C 174.946 26.667,174.833 26.554,174.833 26.417 C 174.833 26.279,174.758 26.167,174.667 26.167 C 174.575 26.167,174.500 26.017,174.500 25.833 C 174.500 25.650,174.425 25.500,174.333 25.500 C 174.242 25.500,174.167 25.361,174.167 25.190 C 174.167 25.020,173.979 24.739,173.750 24.567 C 173.521 24.395,173.333 24.085,173.333 23.877 C 173.333 23.670,173.258 23.500,173.167 23.500 C 173.075 23.500,173.000 23.391,173.000 23.258 C 173.000 23.124,172.813 22.828,172.583 22.598 C 172.354 22.369,172.167 22.103,172.167 22.008 C 172.167 21.890,170.483 21.833,167.000 21.833 L 161.833 21.833 161.833 45.917 M245.667 22.248 C 245.667 22.478,245.592 22.667,245.500 22.667 C 245.408 22.667,245.333 22.929,245.333 23.250 C 245.333 23.657,245.258 23.833,245.083 23.833 C 244.909 23.833,244.833 24.009,244.833 24.417 C 244.833 24.738,244.758 25.000,244.667 25.000 C 244.575 25.000,244.500 25.254,244.500 25.566 C 244.500 25.914,244.404 26.168,244.250 26.227 C 244.112 26.280,244.000 26.471,244.000 26.652 C 244.000 26.832,243.925 27.027,243.833 27.083 C 243.742 27.140,243.667 27.407,243.667 27.677 C 243.667 27.946,243.592 28.167,243.500 28.167 C 243.408 28.167,243.333 28.421,243.333 28.732 C 243.333 29.081,243.238 29.334,243.083 29.394 C 242.926 29.454,242.833 29.709,242.833 30.078 C 242.833 30.402,242.758 30.667,242.667 30.667 C 242.575 30.667,242.500 30.929,242.500 31.250 C 242.500 31.571,242.425 31.833,242.333 31.833 C 242.242 31.833,242.167 32.096,242.167 32.417 C 242.167 32.824,242.091 33.000,241.917 33.000 C 241.742 33.000,241.667 33.176,241.667 33.583 C 241.667 33.904,241.592 34.167,241.500 34.167 C 241.408 34.167,241.333 34.322,241.333 34.512 C 241.333 34.702,241.221 34.970,241.083 35.107 C 240.946 35.245,240.833 35.539,240.833 35.762 C 240.833 35.985,240.758 36.167,240.667 36.167 C 240.575 36.167,240.500 36.429,240.500 36.750 C 240.500 37.071,240.425 37.333,240.333 37.333 C 240.242 37.333,240.167 37.596,240.167 37.917 C 240.167 38.324,240.091 38.500,239.917 38.500 C 239.742 38.500,239.667 38.676,239.667 39.083 C 239.667 39.404,239.592 39.667,239.500 39.667 C 239.408 39.667,239.333 39.929,239.333 40.250 C 239.333 40.571,239.258 40.833,239.167 40.833 C 239.075 40.833,239.000 41.096,239.000 41.417 C 239.000 41.824,238.925 42.000,238.750 42.000 C 238.594 42.000,238.500 42.157,238.500 42.417 C 238.500 42.646,238.425 42.833,238.333 42.833 C 238.242 42.833,238.167 43.096,238.167 43.417 C 238.167 43.737,238.092 44.000,238.000 44.000 C 237.908 44.000,237.833 44.262,237.833 44.583 C 237.833 44.991,237.758 45.167,237.583 45.167 C 237.409 45.167,237.333 45.343,237.333 45.750 C 237.333 46.071,237.258 46.333,237.167 46.333 C 237.075 46.333,237.000 46.588,237.000 46.899 C 237.000 47.248,236.904 47.501,236.750 47.560 C 236.604 47.616,236.500 47.866,236.500 48.161 C 236.500 48.439,236.425 48.667,236.333 48.667 C 236.242 48.667,236.167 48.925,236.167 49.240 C 236.167 49.556,236.092 49.860,236.000 49.917 C 235.908 49.973,235.833 50.157,235.833 50.325 C 235.833 50.493,235.721 50.674,235.583 50.727 C 235.439 50.782,235.333 51.032,235.333 51.318 C 235.333 51.591,235.258 51.860,235.167 51.917 C 235.075 51.973,235.000 52.236,235.000 52.500 C 235.000 52.764,234.925 53.027,234.833 53.083 C 234.742 53.140,234.667 53.444,234.667 53.760 C 234.667 54.159,234.590 54.333,234.417 54.333 C 234.242 54.333,234.167 54.509,234.167 54.917 C 234.167 55.237,234.092 55.500,234.000 55.500 C 233.908 55.500,233.833 55.762,233.833 56.083 C 233.833 56.491,233.758 56.667,233.583 56.667 C 233.409 56.667,233.333 56.843,233.333 57.250 C 233.333 57.571,233.258 57.833,233.167 57.833 C 233.075 57.833,233.000 58.021,233.000 58.250 C 233.000 58.479,232.925 58.667,232.833 58.667 C 232.742 58.667,232.667 58.929,232.667 59.250 C 232.667 59.657,232.591 59.833,232.417 59.833 C 232.242 59.833,232.167 60.009,232.167 60.417 C 232.167 60.737,232.092 61.000,232.000 61.000 C 231.908 61.000,231.833 61.262,231.833 61.583 C 231.833 61.904,231.758 62.167,231.667 62.167 C 231.575 62.167,231.500 62.429,231.500 62.750 C 231.500 63.157,231.425 63.333,231.250 63.333 C 231.075 63.333,231.000 63.509,231.000 63.917 C 231.000 64.237,230.925 64.500,230.833 64.500 C 230.742 64.500,230.667 64.754,230.667 65.066 C 230.667 65.414,230.571 65.668,230.417 65.727 C 230.279 65.780,230.167 65.975,230.167 66.161 C 230.167 66.348,230.092 66.500,230.000 66.500 C 229.908 66.500,229.833 66.762,229.833 67.083 C 229.833 67.404,229.758 67.667,229.667 67.667 C 229.575 67.667,229.500 67.921,229.500 68.232 C 229.500 68.581,229.404 68.834,229.250 68.894 C 229.104 68.950,229.000 69.199,229.000 69.495 L 229.000 70.000 234.583 70.000 L 240.167 70.000 240.167 69.583 C 240.167 69.354,240.242 69.167,240.333 69.167 C 240.425 69.167,240.500 68.904,240.500 68.583 C 240.500 68.262,240.575 68.000,240.667 68.000 C 240.758 68.000,240.833 67.737,240.833 67.417 C 240.833 67.009,240.909 66.833,241.083 66.833 C 241.258 66.833,241.333 66.657,241.333 66.250 C 241.333 65.929,241.408 65.667,241.500 65.667 C 241.592 65.667,241.667 65.412,241.667 65.101 C 241.667 64.752,241.762 64.499,241.917 64.440 C 242.063 64.384,242.167 64.134,242.167 63.839 C 242.167 63.561,242.242 63.333,242.333 63.333 C 242.425 63.333,242.500 63.071,242.500 62.750 C 242.500 62.429,242.575 62.167,242.667 62.167 C 242.758 62.167,242.833 62.054,242.833 61.917 C 242.833 61.698,243.954 61.667,251.917 61.667 C 260.936 61.667,261.000 61.669,261.000 62.005 C 261.000 62.191,261.112 62.387,261.250 62.440 C 261.404 62.499,261.500 62.752,261.500 63.101 C 261.500 63.412,261.575 63.667,261.667 63.667 C 261.758 63.667,261.833 63.929,261.833 64.250 C 261.833 64.657,261.909 64.833,262.083 64.833 C 262.257 64.833,262.333 65.008,262.333 65.407 C 262.333 65.722,262.408 66.027,262.500 66.083 C 262.592 66.140,262.667 66.402,262.667 66.667 C 262.667 66.931,262.742 67.193,262.833 67.250 C 262.925 67.307,263.000 67.576,263.000 67.848 C 263.000 68.135,263.105 68.384,263.250 68.440 C 263.394 68.495,263.500 68.744,263.500 69.030 C 263.500 70.005,263.467 70.000,269.405 70.000 L 274.833 70.000 274.833 69.417 C 274.833 69.096,274.758 68.833,274.667 68.833 C 274.575 68.833,274.500 68.646,274.500 68.417 C 274.500 68.188,274.425 68.000,274.333 68.000 C 274.242 68.000,274.167 67.773,274.167 67.495 C 274.167 67.199,274.063 66.950,273.917 66.894 C 273.762 66.834,273.667 66.581,273.667 66.232 C 273.667 65.921,273.592 65.667,273.500 65.667 C 273.408 65.667,273.333 65.404,273.333 65.083 C 273.333 64.762,273.258 64.500,273.167 64.500 C 273.075 64.500,273.000 64.273,273.000 63.995 C 273.000 63.699,272.896 63.450,272.750 63.394 C 272.596 63.334,272.500 63.081,272.500 62.732 C 272.500 62.421,272.425 62.167,272.333 62.167 C 272.242 62.167,272.167 61.979,272.167 61.750 C 272.167 61.491,272.072 61.333,271.917 61.333 C 271.742 61.333,271.667 61.157,271.667 60.750 C 271.667 60.429,271.592 60.167,271.500 60.167 C 271.408 60.167,271.333 59.904,271.333 59.583 C 271.333 59.262,271.258 59.000,271.167 59.000 C 271.075 59.000,271.000 58.737,271.000 58.417 C 271.000 58.009,270.925 57.833,270.750 57.833 C 270.575 57.833,270.500 57.657,270.500 57.250 C 270.500 56.929,270.425 56.667,270.333 56.667 C 270.242 56.667,270.167 56.404,270.167 56.083 C 270.167 55.762,270.092 55.500,270.000 55.500 C 269.908 55.500,269.833 55.318,269.833 55.095 C 269.833 54.873,269.721 54.578,269.583 54.440 C 269.446 54.303,269.333 54.035,269.333 53.845 C 269.333 53.655,269.258 53.500,269.167 53.500 C 269.075 53.500,269.000 53.237,269.000 52.917 C 269.000 52.509,268.925 52.333,268.750 52.333 C 268.575 52.333,268.500 52.157,268.500 51.750 C 268.500 51.429,268.425 51.167,268.333 51.167 C 268.242 51.167,268.167 50.904,268.167 50.583 C 268.167 50.262,268.092 50.000,268.000 50.000 C 267.908 50.000,267.833 49.735,267.833 49.411 C 267.833 49.042,267.740 48.787,267.583 48.727 C 267.429 48.668,267.333 48.414,267.333 48.066 C 267.333 47.754,267.258 47.500,267.167 47.500 C 267.075 47.500,267.000 47.350,267.000 47.167 C 267.000 46.983,266.925 46.833,266.833 46.833 C 266.742 46.833,266.667 46.568,266.667 46.245 C 266.667 45.875,266.574 45.620,266.417 45.560 C 266.262 45.501,266.167 45.248,266.167 44.899 C 266.167 44.588,266.092 44.333,266.000 44.333 C 265.908 44.333,265.833 44.071,265.833 43.750 C 265.833 43.343,265.758 43.167,265.583 43.167 C 265.409 43.167,265.333 42.991,265.333 42.583 C 265.333 42.262,265.258 42.000,265.167 42.000 C 265.075 42.000,265.000 41.737,265.000 41.417 C 265.000 41.096,264.925 40.833,264.833 40.833 C 264.742 40.833,264.667 40.606,264.667 40.328 C 264.667 40.033,264.563 39.783,264.417 39.727 C 264.279 39.674,264.167 39.452,264.167 39.232 C 264.167 39.013,264.092 38.833,264.000 38.833 C 263.908 38.833,263.833 38.571,263.833 38.250 C 263.833 37.929,263.758 37.667,263.667 37.667 C 263.575 37.667,263.500 37.404,263.500 37.083 C 263.500 36.676,263.425 36.500,263.250 36.500 C 263.075 36.500,263.000 36.324,263.000 35.917 C 263.000 35.596,262.925 35.333,262.833 35.333 C 262.742 35.333,262.667 35.071,262.667 34.750 C 262.667 34.429,262.592 34.167,262.500 34.167 C 262.408 34.167,262.333 33.985,262.333 33.762 C 262.333 33.539,262.221 33.245,262.083 33.107 C 261.946 32.970,261.833 32.702,261.833 32.512 C 261.833 32.322,261.758 32.167,261.667 32.167 C 261.575 32.167,261.500 31.904,261.500 31.583 C 261.500 31.176,261.425 31.000,261.250 31.000 C 261.075 31.000,261.000 30.824,261.000 30.417 C 261.000 30.096,260.925 29.833,260.833 29.833 C 260.742 29.833,260.667 29.571,260.667 29.250 C 260.667 28.929,260.592 28.667,260.500 28.667 C 260.408 28.667,260.333 28.404,260.333 28.083 C 260.333 27.676,260.258 27.500,260.083 27.500 C 259.909 27.500,259.833 27.324,259.833 26.917 C 259.833 26.596,259.758 26.333,259.667 26.333 C 259.575 26.333,259.500 26.075,259.500 25.760 C 259.500 25.444,259.425 25.140,259.333 25.083 C 259.242 25.027,259.167 24.835,259.167 24.657 C 259.167 24.479,259.054 24.333,258.917 24.333 C 258.742 24.333,258.667 24.157,258.667 23.750 C 258.667 23.429,258.596 23.167,258.510 23.167 C 258.424 23.167,258.330 22.885,258.302 22.542 L 258.250 21.917 251.958 21.873 L 245.667 21.829 245.667 22.248 M123.940 31.583 C 123.999 31.738,124.252 31.833,124.601 31.833 C 124.912 31.833,125.167 31.908,125.167 32.000 C 125.167 32.092,125.317 32.167,125.500 32.167 C 125.683 32.167,125.833 32.242,125.833 32.333 C 125.833 32.425,125.933 32.500,126.055 32.500 C 126.177 32.500,126.377 32.688,126.500 32.917 C 126.623 33.146,126.791 33.333,126.873 33.333 C 127.046 33.333,127.500 33.756,127.500 33.917 C 127.500 34.090,127.961 34.500,128.155 34.500 C 128.253 34.500,128.333 34.688,128.333 34.917 C 128.333 35.146,128.408 35.333,128.500 35.333 C 128.592 35.333,128.667 35.596,128.667 35.917 C 128.667 36.237,128.742 36.500,128.833 36.500 C 128.933 36.500,129.000 37.139,129.000 38.083 C 129.000 39.028,128.933 39.667,128.833 39.667 C 128.742 39.667,128.667 39.929,128.667 40.250 C 128.667 40.571,128.592 40.833,128.500 40.833 C 128.408 40.833,128.333 41.021,128.333 41.250 C 128.333 41.479,128.253 41.667,128.155 41.667 C 127.861 41.667,127.500 42.119,127.500 42.488 C 127.500 42.684,127.392 42.833,127.250 42.833 C 127.112 42.833,127.000 42.908,127.000 43.000 C 127.000 43.092,126.850 43.167,126.667 43.167 C 126.481 43.167,126.333 43.278,126.333 43.417 C 126.333 43.554,126.221 43.667,126.083 43.667 C 125.946 43.667,125.833 43.742,125.833 43.833 C 125.833 43.925,125.683 44.000,125.500 44.000 C 125.317 44.000,125.167 44.075,125.167 44.167 C 125.167 44.258,124.904 44.333,124.583 44.333 C 124.176 44.333,124.000 44.409,124.000 44.583 C 124.000 44.800,123.315 44.833,118.833 44.833 L 113.667 44.833 113.667 38.083 L 113.667 31.333 118.755 31.333 C 123.125 31.333,123.857 31.369,123.940 31.583 M252.333 35.917 C 252.333 36.324,252.409 36.500,252.583 36.500 C 252.758 36.500,252.833 36.676,252.833 37.083 C 252.833 37.404,252.908 37.667,253.000 37.667 C 253.092 37.667,253.167 37.929,253.167 38.250 C 253.167 38.571,253.242 38.833,253.333 38.833 C 253.425 38.833,253.500 39.096,253.500 39.417 C 253.500 39.824,253.575 40.000,253.750 40.000 C 253.925 40.000,254.000 40.176,254.000 40.583 C 254.000 40.904,254.075 41.167,254.167 41.167 C 254.258 41.167,254.333 41.429,254.333 41.750 C 254.333 42.071,254.408 42.333,254.500 42.333 C 254.592 42.333,254.667 42.506,254.667 42.718 C 254.667 42.930,254.777 43.249,254.911 43.426 C 255.046 43.604,255.158 43.994,255.161 44.292 C 255.164 44.590,255.242 44.833,255.333 44.833 C 255.425 44.833,255.500 45.061,255.500 45.339 C 255.500 45.634,255.604 45.884,255.750 45.940 C 255.904 45.999,256.000 46.252,256.000 46.601 C 256.000 46.912,256.075 47.167,256.167 47.167 C 256.258 47.167,256.333 47.429,256.333 47.750 C 256.333 48.071,256.408 48.333,256.500 48.333 C 256.592 48.333,256.667 48.596,256.667 48.917 C 256.667 49.324,256.742 49.500,256.917 49.500 C 257.091 49.500,257.167 49.676,257.167 50.083 C 257.167 50.404,257.242 50.667,257.333 50.667 C 257.425 50.667,257.500 50.929,257.500 51.250 C 257.500 51.571,257.575 51.833,257.667 51.833 C 257.758 51.833,257.833 51.946,257.833 52.083 C 257.833 52.301,257.065 52.333,251.917 52.333 L 246.000 52.333 246.000 51.917 C 246.000 51.657,246.094 51.500,246.250 51.500 C 246.425 51.500,246.500 51.324,246.500 50.917 C 246.500 50.596,246.575 50.333,246.667 50.333 C 246.758 50.333,246.833 50.146,246.833 49.917 C 246.833 49.688,246.908 49.500,247.000 49.500 C 247.092 49.500,247.167 49.246,247.167 48.934 C 247.167 48.586,247.262 48.332,247.417 48.273 C 247.563 48.217,247.667 47.967,247.667 47.672 C 247.667 47.394,247.742 47.167,247.833 47.167 C 247.925 47.167,248.000 46.936,248.000 46.655 C 248.000 46.373,248.112 46.030,248.250 45.893 C 248.387 45.755,248.500 45.465,248.500 45.248 C 248.500 45.031,248.575 44.807,248.667 44.750 C 248.758 44.693,248.833 44.389,248.833 44.073 C 248.833 43.758,248.908 43.500,249.000 43.500 C 249.092 43.500,249.167 43.246,249.167 42.934 C 249.167 42.586,249.262 42.332,249.417 42.273 C 249.563 42.217,249.667 41.967,249.667 41.672 C 249.667 41.394,249.742 41.167,249.833 41.167 C 249.925 41.167,250.000 40.904,250.000 40.583 C 250.000 40.262,250.075 40.000,250.167 40.000 C 250.258 40.000,250.333 39.746,250.333 39.434 C 250.333 39.086,250.429 38.832,250.583 38.773 C 250.729 38.717,250.833 38.467,250.833 38.172 C 250.833 37.894,250.908 37.667,251.000 37.667 C 251.092 37.667,251.167 37.404,251.167 37.083 C 251.167 36.762,251.242 36.500,251.333 36.500 C 251.425 36.500,251.500 36.237,251.500 35.917 C 251.500 35.406,251.552 35.333,251.917 35.333 C 252.282 35.333,252.333 35.406,252.333 35.917 " stroke="none" fill="#040404" fill-rule="evenodd"></path><path id="path2" d="M390.708 20.782 C 390.869 20.823,391.131 20.823,391.292 20.782 C 391.452 20.740,391.321 20.705,391.000 20.705 C 390.679 20.705,390.548 20.740,390.708 20.782 M379.385 24.117 C 379.404 24.504,379.836 24.330,379.831 23.938 C 379.829 23.828,379.769 23.844,379.684 23.977 C 379.563 24.169,379.527 24.169,379.454 23.977 C 379.406 23.852,379.375 23.915,379.385 24.117 M391.574 29.681 C 391.513 29.781,391.545 29.931,391.646 30.016 C 391.748 30.100,391.794 30.119,391.750 30.058 C 391.706 29.997,391.753 29.847,391.855 29.724 C 391.982 29.571,391.985 29.500,391.864 29.500 C 391.766 29.500,391.636 29.582,391.574 29.681 M370.539 32.667 C 370.539 32.987,370.573 33.119,370.615 32.958 C 370.657 32.798,370.657 32.535,370.615 32.375 C 370.573 32.215,370.539 32.346,370.539 32.667 M328.205 34.833 C 328.205 35.154,328.240 35.285,328.282 35.125 C 328.323 34.965,328.323 34.702,328.282 34.542 C 328.240 34.381,328.205 34.512,328.205 34.833 M348.379 35.167 C 348.379 35.579,348.411 35.748,348.451 35.542 C 348.491 35.335,348.491 34.998,348.451 34.792 C 348.411 34.585,348.379 34.754,348.379 35.167 M396.700 41.867 C 396.590 41.977,396.509 42.220,396.519 42.408 C 396.538 42.743,396.540 42.743,396.621 42.417 C 396.666 42.233,396.779 41.990,396.872 41.875 C 397.087 41.609,396.963 41.603,396.700 41.867 M348.383 42.833 C 348.383 43.337,348.415 43.544,348.453 43.292 C 348.491 43.040,348.491 42.627,348.453 42.375 C 348.415 42.123,348.383 42.329,348.383 42.833 M336.792 53.118 C 336.998 53.157,337.335 53.157,337.542 53.118 C 337.748 53.078,337.579 53.045,337.167 53.045 C 336.754 53.045,336.585 53.078,336.792 53.118 M381.960 53.118 C 382.168 53.158,382.468 53.156,382.627 53.115 C 382.786 53.073,382.617 53.040,382.250 53.042 C 381.883 53.044,381.753 53.078,381.960 53.118 M341.667 77.064 C 341.667 77.100,341.888 77.161,342.158 77.201 C 342.428 77.241,342.611 77.212,342.565 77.137 C 342.482 77.003,341.667 76.937,341.667 77.064 M369.333 77.064 C 369.333 77.100,369.554 77.161,369.825 77.201 C 370.095 77.241,370.278 77.212,370.231 77.137 C 370.149 77.003,369.333 76.937,369.333 77.064 " stroke="none" fill="#fcbc14" fill-rule="evenodd"></path><path id="path3" d="" stroke="none" fill="#40640c" fill-rule="evenodd"></path><path id="path4" d="" stroke="none" fill="#44040c" fill-rule="evenodd"></path></g></svg>