<svg id="svg" version="1.1" xmlns="http://www.w3.org/2000/svg" xmlns:xlink="http://www.w3.org/1999/xlink" width="400" height="77.4703557312253" viewBox="0, 0, 400,77.4703557312253"><g id="svgg"><path id="path0" d="M0.000 45.917 L 0.000 70.000 4.833 70.000 L 9.667 70.000 9.667 60.917 L 9.667 51.833 19.003 51.833 L 28.338 51.833 28.294 46.958 L 28.250 42.083 18.958 42.040 L 9.667 41.997 9.667 36.917 L 9.667 31.836 19.292 31.793 L 28.917 31.750 28.961 26.792 L 29.005 21.833 14.502 21.833 L 0.000 21.833 0.000 45.917 M51.667 45.917 L 51.667 70.000 66.667 70.000 L 81.667 70.000 81.667 65.250 L 81.667 60.500 71.583 60.500 L 61.500 60.500 61.500 55.583 L 61.500 50.667 70.583 50.667 L 79.667 50.667 79.667 45.750 L 79.667 40.833 70.583 40.833 L 61.500 40.833 61.500 36.333 L 61.500 31.833 71.333 31.833 L 81.167 31.833 81.167 26.833 L 81.167 21.833 66.417 21.833 L 51.667 21.833 51.667 45.917 M103.833 45.917 L 103.833 70.000 108.750 70.000 L 113.667 70.000 113.667 61.917 L 113.667 53.833 117.000 53.833 C 119.852 53.833,120.333 53.869,120.333 54.083 C 120.333 54.221,120.446 54.333,120.583 54.333 C 120.722 54.333,120.833 54.481,120.833 54.667 C 120.833 54.850,120.908 55.000,121.000 55.000 C 121.092 55.000,121.167 55.188,121.167 55.417 C 121.167 55.646,121.242 55.833,121.333 55.833 C 121.425 55.833,121.500 55.973,121.500 56.143 C 121.500 56.314,121.688 56.594,121.917 56.766 C 122.146 56.939,122.333 57.249,122.333 57.456 C 122.333 57.664,122.408 57.833,122.500 57.833 C 122.592 57.833,122.667 57.975,122.667 58.149 C 122.667 58.322,122.779 58.508,122.917 58.560 C 123.054 58.613,123.167 58.809,123.167 58.995 C 123.167 59.181,123.242 59.333,123.333 59.333 C 123.425 59.333,123.500 59.446,123.500 59.583 C 123.500 59.721,123.575 59.833,123.667 59.833 C 123.758 59.833,123.833 59.948,123.833 60.089 C 123.833 60.229,123.946 60.387,124.083 60.440 C 124.221 60.492,124.333 60.683,124.333 60.863 C 124.333 61.217,124.700 61.667,124.988 61.667 C 125.086 61.667,125.167 61.854,125.167 62.083 C 125.167 62.313,125.242 62.500,125.333 62.500 C 125.425 62.500,125.500 62.688,125.500 62.917 C 125.500 63.146,125.575 63.333,125.667 63.333 C 125.758 63.333,125.833 63.442,125.833 63.576 C 125.833 63.709,126.021 64.006,126.250 64.235 C 126.479 64.464,126.667 64.805,126.667 64.992 C 126.667 65.180,126.725 65.333,126.795 65.333 C 126.866 65.333,127.066 65.596,127.238 65.917 C 127.411 66.238,127.616 66.500,127.693 66.500 C 127.770 66.500,127.833 66.688,127.833 66.917 C 127.833 67.176,127.928 67.333,128.083 67.333 C 128.222 67.333,128.333 67.481,128.333 67.667 C 128.333 67.850,128.408 68.000,128.500 68.000 C 128.592 68.000,128.667 68.155,128.667 68.345 C 128.667 68.714,129.027 69.167,129.321 69.167 C 129.420 69.167,129.500 69.354,129.500 69.583 L 129.500 70.000 135.000 70.000 L 140.500 70.000 140.500 69.417 C 140.500 69.096,140.425 68.833,140.333 68.833 C 140.242 68.833,140.167 68.694,140.167 68.523 C 140.167 68.353,139.979 68.073,139.750 67.900 C 139.521 67.728,139.333 67.418,139.333 67.210 C 139.333 67.003,139.258 66.833,139.167 66.833 C 139.075 66.833,139.000 66.683,139.000 66.500 C 139.000 66.315,138.889 66.167,138.750 66.167 C 138.612 66.167,138.500 66.054,138.500 65.917 C 138.500 65.779,138.425 65.667,138.333 65.667 C 138.242 65.667,138.167 65.514,138.167 65.328 C 138.167 65.142,138.054 64.946,137.917 64.894 C 137.779 64.841,137.667 64.656,137.667 64.482 C 137.667 64.309,137.592 64.167,137.500 64.167 C 137.408 64.167,137.333 64.011,137.333 63.821 C 137.333 63.452,136.973 63.000,136.679 63.000 C 136.580 63.000,136.500 62.813,136.500 62.583 C 136.500 62.354,136.425 62.167,136.333 62.167 C 136.242 62.167,136.167 62.011,136.167 61.821 C 136.167 61.452,135.806 61.000,135.512 61.000 C 135.414 61.000,135.333 60.813,135.333 60.583 C 135.333 60.354,135.258 60.167,135.167 60.167 C 135.075 60.167,135.000 60.060,135.000 59.930 C 135.000 59.633,134.459 58.669,134.292 58.668 C 134.223 58.667,134.167 58.554,134.167 58.417 C 134.167 58.279,134.092 58.167,134.000 58.167 C 133.908 58.167,133.833 58.017,133.833 57.833 C 133.833 57.648,133.722 57.500,133.583 57.500 C 133.428 57.500,133.333 57.343,133.333 57.083 C 133.333 56.854,133.258 56.667,133.167 56.667 C 133.075 56.667,133.000 56.554,133.000 56.417 C 133.000 56.279,132.925 56.167,132.833 56.167 C 132.742 56.167,132.667 56.017,132.667 55.833 C 132.667 55.648,132.556 55.500,132.417 55.500 C 132.268 55.500,132.167 55.347,132.167 55.120 C 132.167 54.911,132.017 54.632,131.833 54.500 C 131.650 54.368,131.500 54.089,131.500 53.880 C 131.500 53.653,131.399 53.500,131.250 53.500 C 131.094 53.500,131.000 53.343,131.000 53.083 C 131.000 52.854,130.925 52.667,130.833 52.667 C 130.742 52.667,130.667 52.479,130.667 52.250 C 130.667 51.949,130.756 51.833,130.990 51.833 C 131.168 51.833,131.360 51.758,131.417 51.667 C 131.473 51.575,131.638 51.500,131.782 51.500 C 131.926 51.500,132.292 51.237,132.594 50.917 C 132.897 50.596,133.232 50.333,133.339 50.333 C 133.446 50.333,133.796 50.071,134.117 49.750 C 134.438 49.429,134.767 49.167,134.850 49.167 C 134.933 49.167,135.000 49.081,135.000 48.977 C 135.000 48.873,135.262 48.563,135.583 48.289 C 135.904 48.015,136.167 47.668,136.167 47.518 C 136.167 47.368,136.354 47.105,136.583 46.933 C 136.813 46.761,137.000 46.480,137.000 46.310 C 137.000 46.139,137.075 46.000,137.167 46.000 C 137.258 46.000,137.333 45.887,137.333 45.750 C 137.333 45.612,137.408 45.500,137.500 45.500 C 137.592 45.500,137.667 45.358,137.667 45.184 C 137.667 45.011,137.779 44.826,137.917 44.773 C 138.063 44.717,138.167 44.467,138.167 44.172 C 138.167 43.894,138.242 43.667,138.333 43.667 C 138.425 43.667,138.500 43.367,138.500 43.000 C 138.500 42.519,138.569 42.333,138.750 42.333 C 138.935 42.333,139.000 42.139,139.000 41.583 C 139.000 41.171,139.075 40.833,139.167 40.833 C 139.271 40.833,139.333 39.806,139.333 38.083 C 139.333 36.361,139.271 35.333,139.167 35.333 C 139.075 35.333,139.000 34.918,139.000 34.411 C 139.000 33.746,138.931 33.463,138.750 33.394 C 138.596 33.334,138.500 33.081,138.500 32.732 C 138.500 32.421,138.425 32.167,138.333 32.167 C 138.242 32.167,138.167 31.979,138.167 31.750 C 138.167 31.491,138.072 31.333,137.917 31.333 C 137.761 31.333,137.667 31.176,137.667 30.917 C 137.667 30.688,137.592 30.500,137.500 30.500 C 137.408 30.500,137.333 30.350,137.333 30.167 C 137.333 29.983,137.258 29.833,137.167 29.833 C 137.075 29.833,137.000 29.646,137.000 29.417 C 137.000 29.188,136.920 29.000,136.821 29.000 C 136.551 29.000,136.167 28.559,136.167 28.250 C 136.167 27.941,135.782 27.500,135.512 27.500 C 135.414 27.500,135.333 27.421,135.333 27.325 C 135.333 27.108,133.741 25.500,133.526 25.500 C 133.440 25.500,133.326 25.387,133.273 25.250 C 133.220 25.113,133.062 25.000,132.922 25.000 C 132.782 25.000,132.667 24.925,132.667 24.833 C 132.667 24.742,132.554 24.667,132.417 24.667 C 132.279 24.667,132.167 24.592,132.167 24.500 C 132.167 24.408,132.025 24.333,131.851 24.333 C 131.678 24.333,131.492 24.221,131.440 24.083 C 131.387 23.946,131.191 23.833,131.005 23.833 C 130.819 23.833,130.667 23.758,130.667 23.667 C 130.667 23.575,130.479 23.500,130.250 23.500 C 130.021 23.500,129.833 23.425,129.833 23.333 C 129.833 23.242,129.646 23.167,129.417 23.167 C 129.157 23.167,129.000 23.072,129.000 22.917 C 129.000 22.742,128.824 22.667,128.417 22.667 C 128.096 22.667,127.833 22.592,127.833 22.500 C 127.833 22.407,127.389 22.333,126.833 22.333 C 126.056 22.333,125.833 22.278,125.833 22.083 C 125.833 21.864,124.500 21.833,114.833 21.833 L 103.833 21.833 103.833 45.917 M161.833 45.917 L 161.833 70.000 166.750 70.000 L 171.667 70.000 171.667 55.339 C 171.667 42.375,171.696 40.688,171.917 40.773 C 172.054 40.826,172.167 41.016,172.167 41.196 C 172.167 41.550,172.533 42.000,172.821 42.000 C 172.920 42.000,173.000 42.188,173.000 42.417 C 173.000 42.646,173.075 42.833,173.167 42.833 C 173.258 42.833,173.333 42.983,173.333 43.167 C 173.333 43.350,173.408 43.500,173.500 43.500 C 173.592 43.500,173.667 43.612,173.667 43.750 C 173.667 43.887,173.779 44.000,173.917 44.000 C 174.072 44.000,174.167 44.157,174.167 44.417 C 174.167 44.646,174.242 44.833,174.333 44.833 C 174.425 44.833,174.500 44.956,174.500 45.106 C 174.500 45.256,174.688 45.552,174.917 45.765 C 175.146 45.977,175.336 46.248,175.339 46.367 C 175.346 46.665,175.746 47.167,175.977 47.167 C 176.081 47.167,176.167 47.354,176.167 47.583 C 176.167 47.813,176.242 48.000,176.333 48.000 C 176.425 48.000,176.500 48.150,176.500 48.333 C 176.500 48.517,176.575 48.667,176.667 48.667 C 176.758 48.667,176.833 48.779,176.833 48.917 C 176.833 49.054,176.946 49.167,177.083 49.167 C 177.222 49.167,177.333 49.315,177.333 49.500 C 177.333 49.683,177.408 49.833,177.500 49.833 C 177.592 49.833,177.667 49.993,177.667 50.189 C 177.667 50.385,177.854 50.719,178.083 50.931 C 178.313 51.144,178.500 51.433,178.500 51.575 C 178.500 51.717,178.575 51.833,178.667 51.833 C 178.758 51.833,178.833 52.021,178.833 52.250 C 178.833 52.479,178.914 52.667,179.012 52.667 C 179.306 52.667,179.667 53.119,179.667 53.488 C 179.667 53.678,179.742 53.833,179.833 53.833 C 179.925 53.833,180.000 53.973,180.000 54.143 C 180.000 54.314,180.188 54.594,180.417 54.766 C 180.646 54.938,180.833 55.217,180.833 55.385 C 180.833 55.721,181.207 56.167,181.488 56.167 C 181.586 56.167,181.667 56.354,181.667 56.583 C 181.667 56.813,181.742 57.000,181.833 57.000 C 181.925 57.000,182.000 57.155,182.000 57.345 C 182.000 57.714,182.361 58.167,182.655 58.167 C 182.753 58.167,182.833 58.354,182.833 58.583 C 182.833 58.813,182.908 59.000,183.000 59.000 C 183.092 59.000,183.167 59.139,183.167 59.310 C 183.167 59.480,183.354 59.761,183.583 59.933 C 183.813 60.105,184.000 60.383,184.000 60.551 C 184.000 61.431,186.551 61.768,186.765 60.917 C 186.822 60.688,186.936 60.500,187.018 60.500 C 187.100 60.500,187.167 60.350,187.167 60.167 C 187.167 59.983,187.242 59.833,187.333 59.833 C 187.425 59.833,187.500 59.721,187.500 59.583 C 187.500 59.446,187.570 59.333,187.654 59.333 C 187.832 59.333,188.333 58.392,188.333 58.058 C 188.333 57.934,188.408 57.833,188.500 57.833 C 188.592 57.833,188.667 57.721,188.667 57.583 C 188.667 57.446,188.779 57.333,188.917 57.333 C 189.056 57.333,189.167 57.185,189.167 57.000 C 189.167 56.817,189.242 56.667,189.333 56.667 C 189.425 56.667,189.500 56.479,189.500 56.250 C 189.500 55.991,189.594 55.833,189.750 55.833 C 189.887 55.833,190.000 55.721,190.000 55.583 C 190.000 55.446,190.075 55.333,190.167 55.333 C 190.258 55.333,190.333 55.183,190.333 55.000 C 190.333 54.817,190.408 54.667,190.500 54.667 C 190.592 54.667,190.667 54.479,190.667 54.250 C 190.667 54.021,190.747 53.833,190.845 53.833 C 191.139 53.833,191.500 53.381,191.500 53.012 C 191.500 52.822,191.575 52.667,191.667 52.667 C 191.758 52.667,191.833 52.479,191.833 52.250 C 191.833 52.021,191.914 51.833,192.012 51.833 C 192.293 51.833,192.667 51.387,192.667 51.051 C 192.667 50.883,192.854 50.605,193.083 50.433 C 193.313 50.261,193.500 49.980,193.500 49.810 C 193.500 49.639,193.575 49.500,193.667 49.500 C 193.758 49.500,193.833 49.313,193.833 49.083 C 193.833 48.854,193.914 48.667,194.012 48.667 C 194.306 48.667,194.667 48.214,194.667 47.845 C 194.667 47.655,194.742 47.500,194.833 47.500 C 194.925 47.500,195.000 47.384,195.000 47.242 C 195.000 47.100,195.188 46.810,195.417 46.598 C 195.646 46.386,195.833 46.052,195.833 45.856 C 195.833 45.660,195.908 45.500,196.000 45.500 C 196.092 45.500,196.167 45.350,196.167 45.167 C 196.167 44.981,196.278 44.833,196.417 44.833 C 196.554 44.833,196.667 44.721,196.667 44.583 C 196.667 44.446,196.742 44.333,196.833 44.333 C 196.925 44.333,197.000 44.191,197.000 44.018 C 197.000 43.844,197.112 43.659,197.250 43.606 C 197.387 43.554,197.500 43.358,197.500 43.172 C 197.500 42.986,197.575 42.833,197.667 42.833 C 197.758 42.833,197.833 42.721,197.833 42.583 C 197.833 42.446,197.908 42.333,198.000 42.333 C 198.092 42.333,198.167 42.183,198.167 42.000 C 198.167 41.815,198.278 41.667,198.417 41.667 C 198.572 41.667,198.667 41.509,198.667 41.250 C 198.667 41.021,198.742 40.833,198.833 40.833 C 198.943 40.833,199.000 45.806,199.000 55.417 L 199.000 70.000 203.917 70.000 L 208.833 70.000 208.833 45.917 L 208.833 21.833 203.750 21.833 C 199.343 21.833,198.667 21.867,198.667 22.083 C 198.667 22.221,198.554 22.333,198.417 22.333 C 198.268 22.333,198.167 22.487,198.167 22.713 C 198.167 22.922,198.017 23.201,197.833 23.333 C 197.650 23.465,197.500 23.745,197.500 23.953 C 197.500 24.180,197.399 24.333,197.250 24.333 C 197.111 24.333,197.000 24.481,197.000 24.667 C 197.000 24.850,196.925 25.000,196.833 25.000 C 196.742 25.000,196.667 25.113,196.667 25.250 C 196.667 25.387,196.610 25.500,196.542 25.501 C 196.374 25.502,195.833 26.466,195.833 26.764 C 195.833 26.894,195.758 27.000,195.667 27.000 C 195.575 27.000,195.500 27.104,195.500 27.232 C 195.500 27.360,195.387 27.508,195.250 27.560 C 195.112 27.613,195.000 27.771,195.000 27.911 C 195.000 28.052,194.925 28.167,194.833 28.167 C 194.742 28.167,194.667 28.336,194.667 28.544 C 194.667 28.751,194.479 29.061,194.250 29.234 C 194.021 29.406,193.833 29.686,193.833 29.857 C 193.833 30.027,193.758 30.167,193.667 30.167 C 193.575 30.167,193.500 30.322,193.500 30.512 C 193.500 30.881,193.139 31.333,192.845 31.333 C 192.747 31.333,192.667 31.521,192.667 31.750 C 192.667 31.979,192.592 32.167,192.500 32.167 C 192.408 32.167,192.333 32.354,192.333 32.583 C 192.333 32.813,192.253 33.000,192.155 33.000 C 191.874 33.000,191.500 33.446,191.500 33.782 C 191.500 33.950,191.313 34.228,191.083 34.400 C 190.854 34.573,190.667 34.853,190.667 35.023 C 190.667 35.194,190.592 35.333,190.500 35.333 C 190.408 35.333,190.333 35.503,190.333 35.710 C 190.333 35.918,190.146 36.228,189.917 36.400 C 189.688 36.573,189.500 36.853,189.500 37.023 C 189.500 37.194,189.425 37.333,189.333 37.333 C 189.242 37.333,189.167 37.449,189.167 37.591 C 189.167 37.733,188.979 38.023,188.750 38.235 C 188.521 38.448,188.333 38.782,188.333 38.977 C 188.333 39.173,188.258 39.333,188.167 39.333 C 188.075 39.333,188.000 39.483,188.000 39.667 C 188.000 39.852,187.889 40.000,187.750 40.000 C 187.612 40.000,187.500 40.112,187.500 40.250 C 187.500 40.387,187.425 40.500,187.333 40.500 C 187.242 40.500,187.167 40.650,187.167 40.833 C 187.167 41.017,187.092 41.167,187.000 41.167 C 186.908 41.167,186.833 41.354,186.833 41.583 C 186.833 41.843,186.739 42.000,186.583 42.000 C 186.446 42.000,186.333 42.112,186.333 42.250 C 186.333 42.387,186.258 42.500,186.167 42.500 C 186.075 42.500,186.000 42.612,186.000 42.750 C 186.000 42.981,185.439 43.667,185.250 43.667 C 185.204 43.667,185.167 43.511,185.167 43.321 C 185.167 42.952,184.806 42.500,184.512 42.500 C 184.414 42.500,184.333 42.313,184.333 42.083 C 184.333 41.854,184.258 41.667,184.167 41.667 C 184.075 41.667,184.000 41.554,184.000 41.417 C 184.000 41.279,183.925 41.167,183.833 41.167 C 183.742 41.167,183.667 41.017,183.667 40.833 C 183.667 40.648,183.556 40.500,183.417 40.500 C 183.275 40.500,183.167 40.351,183.167 40.155 C 183.167 39.786,182.806 39.333,182.512 39.333 C 182.414 39.333,182.333 39.146,182.333 38.917 C 182.333 38.688,182.258 38.500,182.167 38.500 C 182.075 38.500,182.000 38.345,182.000 38.155 C 182.000 37.786,181.639 37.333,181.345 37.333 C 181.247 37.333,181.167 37.146,181.167 36.917 C 181.167 36.688,181.092 36.500,181.000 36.500 C 180.908 36.500,180.831 36.369,180.828 36.208 C 180.821 35.848,180.446 35.333,180.190 35.333 C 180.085 35.333,180.000 35.146,180.000 34.917 C 180.000 34.688,179.925 34.500,179.833 34.500 C 179.742 34.500,179.667 34.350,179.667 34.167 C 179.667 33.981,179.556 33.833,179.417 33.833 C 179.279 33.833,179.167 33.721,179.167 33.583 C 179.167 33.446,179.092 33.333,179.000 33.333 C 178.908 33.333,178.833 33.146,178.833 32.917 C 178.833 32.688,178.758 32.500,178.667 32.500 C 178.575 32.500,178.500 32.350,178.500 32.167 C 178.500 31.981,178.389 31.833,178.250 31.833 C 178.112 31.833,178.000 31.721,178.000 31.583 C 178.000 31.446,177.925 31.333,177.833 31.333 C 177.742 31.333,177.667 31.183,177.667 31.000 C 177.667 30.817,177.592 30.667,177.500 30.667 C 177.408 30.667,177.333 30.554,177.333 30.417 C 177.333 30.279,177.221 30.167,177.083 30.167 C 176.928 30.167,176.833 30.009,176.833 29.750 C 176.833 29.521,176.758 29.333,176.667 29.333 C 176.575 29.333,176.500 29.211,176.500 29.061 C 176.500 28.911,176.313 28.614,176.083 28.402 C 175.854 28.190,175.667 27.900,175.667 27.758 C 175.667 27.616,175.592 27.500,175.500 27.500 C 175.408 27.500,175.333 27.313,175.333 27.083 C 175.333 26.824,175.239 26.667,175.083 26.667 C 174.946 26.667,174.833 26.554,174.833 26.417 C 174.833 26.279,174.758 26.167,174.667 26.167 C 174.575 26.167,174.500 26.017,174.500 25.833 C 174.500 25.650,174.425 25.500,174.333 25.500 C 174.242 25.500,174.167 25.361,174.167 25.190 C 174.167 25.020,173.979 24.739,173.750 24.567 C 173.521 24.395,173.333 24.085,173.333 23.877 C 173.333 23.670,173.258 23.500,173.167 23.500 C 173.075 23.500,173.000 23.391,173.000 23.258 C 173.000 23.124,172.813 22.828,172.583 22.598 C 172.354 22.369,172.167 22.103,172.167 22.008 C 172.167 21.890,170.483 21.833,167.000 21.833 L 161.833 21.833 161.833 45.917 M245.667 22.248 C 245.667 22.478,245.592 22.667,245.500 22.667 C 245.408 22.667,245.333 22.929,245.333 23.250 C 245.333 23.657,245.258 23.833,245.083 23.833 C 244.909 23.833,244.833 24.009,244.833 24.417 C 244.833 24.738,244.758 25.000,244.667 25.000 C 244.575 25.000,244.500 25.254,244.500 25.566 C 244.500 25.914,244.404 26.168,244.250 26.227 C 244.112 26.280,244.000 26.471,244.000 26.652 C 244.000 26.832,243.925 27.027,243.833 27.083 C 243.742 27.140,243.667 27.407,243.667 27.677 C 243.667 27.946,243.592 28.167,243.500 28.167 C 243.408 28.167,243.333 28.421,243.333 28.732 C 243.333 29.081,243.238 29.334,243.083 29.394 C 242.926 29.454,242.833 29.709,242.833 30.078 C 242.833 30.402,242.758 30.667,242.667 30.667 C 242.575 30.667,242.500 30.929,242.500 31.250 C 242.500 31.571,242.425 31.833,242.333 31.833 C 242.242 31.833,242.167 32.096,242.167 32.417 C 242.167 32.824,242.091 33.000,241.917 33.000 C 241.742 33.000,241.667 33.176,241.667 33.583 C 241.667 33.904,241.592 34.167,241.500 34.167 C 241.408 34.167,241.333 34.322,241.333 34.512 C 241.333 34.702,241.221 34.970,241.083 35.107 C 240.946 35.245,240.833 35.539,240.833 35.762 C 240.833 35.985,240.758 36.167,240.667 36.167 C 240.575 36.167,240.500 36.429,240.500 36.750 C 240.500 37.071,240.425 37.333,240.333 37.333 C 240.242 37.333,240.167 37.596,240.167 37.917 C 240.167 38.324,240.091 38.500,239.917 38.500 C 239.742 38.500,239.667 38.676,239.667 39.083 C 239.667 39.404,239.592 39.667,239.500 39.667 C 239.408 39.667,239.333 39.929,239.333 40.250 C 239.333 40.571,239.258 40.833,239.167 40.833 C 239.075 40.833,239.000 41.096,239.000 41.417 C 239.000 41.824,238.925 42.000,238.750 42.000 C 238.594 42.000,238.500 42.157,238.500 42.417 C 238.500 42.646,238.425 42.833,238.333 42.833 C 238.242 42.833,238.167 43.096,238.167 43.417 C 238.167 43.737,238.092 44.000,238.000 44.000 C 237.908 44.000,237.833 44.262,237.833 44.583 C 237.833 44.991,237.758 45.167,237.583 45.167 C 237.409 45.167,237.333 45.343,237.333 45.750 C 237.333 46.071,237.258 46.333,237.167 46.333 C 237.075 46.333,237.000 46.588,237.000 46.899 C 237.000 47.248,236.904 47.501,236.750 47.560 C 236.604 47.616,236.500 47.866,236.500 48.161 C 236.500 48.439,236.425 48.667,236.333 48.667 C 236.242 48.667,236.167 48.925,236.167 49.240 C 236.167 49.556,236.092 49.860,236.000 49.917 C 235.908 49.973,235.833 50.157,235.833 50.325 C 235.833 50.493,235.721 50.674,235.583 50.727 C 235.439 50.782,235.333 51.032,235.333 51.318 C 235.333 51.591,235.258 51.860,235.167 51.917 C 235.075 51.973,235.000 52.236,235.000 52.500 C 235.000 52.764,234.925 53.027,234.833 53.083 C 234.742 53.140,234.667 53.444,234.667 53.760 C 234.667 54.159,234.590 54.333,234.417 54.333 C 234.242 54.333,234.167 54.509,234.167 54.917 C 234.167 55.237,234.092 55.500,234.000 55.500 C 233.908 55.500,233.833 55.762,233.833 56.083 C 233.833 56.491,233.758 56.667,233.583 56.667 C 233.409 56.667,233.333 56.843,233.333 57.250 C 233.333 57.571,233.258 57.833,233.167 57.833 C 233.075 57.833,233.000 58.021,233.000 58.250 C 233.000 58.479,232.925 58.667,232.833 58.667 C 232.742 58.667,232.667 58.929,232.667 59.250 C 232.667 59.657,232.591 59.833,232.417 59.833 C 232.242 59.833,232.167 60.009,232.167 60.417 C 232.167 60.737,232.092 61.000,232.000 61.000 C 231.908 61.000,231.833 61.262,231.833 61.583 C 231.833 61.904,231.758 62.167,231.667 62.167 C 231.575 62.167,231.500 62.429,231.500 62.750 C 231.500 63.157,231.425 63.333,231.250 63.333 C 231.075 63.333,231.000 63.509,231.000 63.917 C 231.000 64.237,230.925 64.500,230.833 64.500 C 230.742 64.500,230.667 64.754,230.667 65.066 C 230.667 65.414,230.571 65.668,230.417 65.727 C 230.279 65.780,230.167 65.975,230.167 66.161 C 230.167 66.348,230.092 66.500,230.000 66.500 C 229.908 66.500,229.833 66.762,229.833 67.083 C 229.833 67.404,229.758 67.667,229.667 67.667 C 229.575 67.667,229.500 67.921,229.500 68.232 C 229.500 68.581,229.404 68.834,229.250 68.894 C 229.104 68.950,229.000 69.199,229.000 69.495 L 229.000 70.000 234.583 70.000 L 240.167 70.000 240.167 69.583 C 240.167 69.354,240.242 69.167,240.333 69.167 C 240.425 69.167,240.500 68.904,240.500 68.583 C 240.500 68.262,240.575 68.000,240.667 68.000 C 240.758 68.000,240.833 67.737,240.833 67.417 C 240.833 67.009,240.909 66.833,241.083 66.833 C 241.258 66.833,241.333 66.657,241.333 66.250 C 241.333 65.929,241.408 65.667,241.500 65.667 C 241.592 65.667,241.667 65.412,241.667 65.101 C 241.667 64.752,241.762 64.499,241.917 64.440 C 242.063 64.384,242.167 64.134,242.167 63.839 C 242.167 63.561,242.242 63.333,242.333 63.333 C 242.425 63.333,242.500 63.071,242.500 62.750 C 242.500 62.429,242.575 62.167,242.667 62.167 C 242.758 62.167,242.833 62.054,242.833 61.917 C 242.833 61.698,243.954 61.667,251.917 61.667 C 260.936 61.667,261.000 61.669,261.000 62.005 C 261.000 62.191,261.112 62.387,261.250 62.440 C 261.404 62.499,261.500 62.752,261.500 63.101 C 261.500 63.412,261.575 63.667,261.667 63.667 C 261.758 63.667,261.833 63.929,261.833 64.250 C 261.833 64.657,261.909 64.833,262.083 64.833 C 262.257 64.833,262.333 65.008,262.333 65.407 C 262.333 65.722,262.408 66.027,262.500 66.083 C 262.592 66.140,262.667 66.402,262.667 66.667 C 262.667 66.931,262.742 67.193,262.833 67.250 C 262.925 67.307,263.000 67.576,263.000 67.848 C 263.000 68.135,263.105 68.384,263.250 68.440 C 263.394 68.495,263.500 68.744,263.500 69.030 C 263.500 70.005,263.467 70.000,269.405 70.000 L 274.833 70.000 274.833 69.417 C 274.833 69.096,274.758 68.833,274.667 68.833 C 274.575 68.833,274.500 68.646,274.500 68.417 C 274.500 68.188,274.425 68.000,274.333 68.000 C 274.242 68.000,274.167 67.773,274.167 67.495 C 274.167 67.199,274.063 66.950,273.917 66.894 C 273.762 66.834,273.667 66.581,273.667 66.232 C 273.667 65.921,273.592 65.667,273.500 65.667 C 273.408 65.667,273.333 65.404,273.333 65.083 C 273.333 64.762,273.258 64.500,273.167 64.500 C 273.075 64.500,273.000 64.273,273.000 63.995 C 273.000 63.699,272.896 63.450,272.750 63.394 C 272.596 63.334,272.500 63.081,272.500 62.732 C 272.500 62.421,272.425 62.167,272.333 62.167 C 272.242 62.167,272.167 61.979,272.167 61.750 C 272.167 61.491,272.072 61.333,271.917 61.333 C 271.742 61.333,271.667 61.157,271.667 60.750 C 271.667 60.429,271.592 60.167,271.500 60.167 C 271.408 60.167,271.333 59.904,271.333 59.583 C 271.333 59.262,271.258 59.000,271.167 59.000 C 271.075 59.000,271.000 58.737,271.000 58.417 C 271.000 58.009,270.925 57.833,270.750 57.833 C 270.575 57.833,270.500 57.657,270.500 57.250 C 270.500 56.929,270.425 56.667,270.333 56.667 C 270.242 56.667,270.167 56.404,270.167 56.083 C 270.167 55.762,270.092 55.500,270.000 55.500 C 269.908 55.500,269.833 55.318,269.833 55.095 C 269.833 54.873,269.721 54.578,269.583 54.440 C 269.446 54.303,269.333 54.035,269.333 53.845 C 269.333 53.655,269.258 53.500,269.167 53.500 C 269.075 53.500,269.000 53.237,269.000 52.917 C 269.000 52.509,268.925 52.333,268.750 52.333 C 268.575 52.333,268.500 52.157,268.500 51.750 C 268.500 51.429,268.425 51.167,268.333 51.167 C 268.242 51.167,268.167 50.904,268.167 50.583 C 268.167 50.262,268.092 50.000,268.000 50.000 C 267.908 50.000,267.833 49.735,267.833 49.411 C 267.833 49.042,267.740 48.787,267.583 48.727 C 267.429 48.668,267.333 48.414,267.333 48.066 C 267.333 47.754,267.258 47.500,267.167 47.500 C 267.075 47.500,267.000 47.350,267.000 47.167 C 267.000 46.983,266.925 46.833,266.833 46.833 C 266.742 46.833,266.667 46.568,266.667 46.245 C 266.667 45.875,266.574 45.620,266.417 45.560 C 266.262 45.501,266.167 45.248,266.167 44.899 C 266.167 44.588,266.092 44.333,266.000 44.333 C 265.908 44.333,265.833 44.071,265.833 43.750 C 265.833 43.343,265.758 43.167,265.583 43.167 C 265.409 43.167,265.333 42.991,265.333 42.583 C 265.333 42.262,265.258 42.000,265.167 42.000 C 265.075 42.000,265.000 41.737,265.000 41.417 C 265.000 41.096,264.925 40.833,264.833 40.833 C 264.742 40.833,264.667 40.606,264.667 40.328 C 264.667 40.033,264.563 39.783,264.417 39.727 C 264.279 39.674,264.167 39.452,264.167 39.232 C 264.167 39.013,264.092 38.833,264.000 38.833 C 263.908 38.833,263.833 38.571,263.833 38.250 C 263.833 37.929,263.758 37.667,263.667 37.667 C 263.575 37.667,263.500 37.404,263.500 37.083 C 263.500 36.676,263.425 36.500,263.250 36.500 C 263.075 36.500,263.000 36.324,263.000 35.917 C 263.000 35.596,262.925 35.333,262.833 35.333 C 262.742 35.333,262.667 35.071,262.667 34.750 C 262.667 34.429,262.592 34.167,262.500 34.167 C 262.408 34.167,262.333 33.985,262.333 33.762 C 262.333 33.539,262.221 33.245,262.083 33.107 C 261.946 32.970,261.833 32.702,261.833 32.512 C 261.833 32.322,261.758 32.167,261.667 32.167 C 261.575 32.167,261.500 31.904,261.500 31.583 C 261.500 31.176,261.425 31.000,261.250 31.000 C 261.075 31.000,261.000 30.824,261.000 30.417 C 261.000 30.096,260.925 29.833,260.833 29.833 C 260.742 29.833,260.667 29.571,260.667 29.250 C 260.667 28.929,260.592 28.667,260.500 28.667 C 260.408 28.667,260.333 28.404,260.333 28.083 C 260.333 27.676,260.258 27.500,260.083 27.500 C 259.909 27.500,259.833 27.324,259.833 26.917 C 259.833 26.596,259.758 26.333,259.667 26.333 C 259.575 26.333,259.500 26.075,259.500 25.760 C 259.500 25.444,259.425 25.140,259.333 25.083 C 259.242 25.027,259.167 24.835,259.167 24.657 C 259.167 24.479,259.054 24.333,258.917 24.333 C 258.742 24.333,258.667 24.157,258.667 23.750 C 258.667 23.429,258.596 23.167,258.510 23.167 C 258.424 23.167,258.330 22.885,258.302 22.542 L 258.250 21.917 251.958 21.873 L 245.667 21.829 245.667 22.248 M123.940 31.583 C 123.999 31.738,124.252 31.833,124.601 31.833 C 124.912 31.833,125.167 31.908,125.167 32.000 C 125.167 32.092,125.317 32.167,125.500 32.167 C 125.683 32.167,125.833 32.242,125.833 32.333 C 125.833 32.425,125.933 32.500,126.055 32.500 C 126.177 32.500,126.377 32.688,126.500 32.917 C 126.623 33.146,126.791 33.333,126.873 33.333 C 127.046 33.333,127.500 33.756,127.500 33.917 C 127.500 34.090,127.961 34.500,128.155 34.500 C 128.253 34.500,128.333 34.688,128.333 34.917 C 128.333 35.146,128.408 35.333,128.500 35.333 C 128.592 35.333,128.667 35.596,128.667 35.917 C 128.667 36.237,128.742 36.500,128.833 36.500 C 128.933 36.500,129.000 37.139,129.000 38.083 C 129.000 39.028,128.933 39.667,128.833 39.667 C 128.742 39.667,128.667 39.929,128.667 40.250 C 128.667 40.571,128.592 40.833,128.500 40.833 C 128.408 40.833,128.333 41.021,128.333 41.250 C 128.333 41.479,128.253 41.667,128.155 41.667 C 127.861 41.667,127.500 42.119,127.500 42.488 C 127.500 42.684,127.392 42.833,127.250 42.833 C 127.112 42.833,127.000 42.908,127.000 43.000 C 127.000 43.092,126.850 43.167,126.667 43.167 C 126.481 43.167,126.333 43.278,126.333 43.417 C 126.333 43.554,126.221 43.667,126.083 43.667 C 125.946 43.667,125.833 43.742,125.833 43.833 C 125.833 43.925,125.683 44.000,125.500 44.000 C 125.317 44.000,125.167 44.075,125.167 44.167 C 125.167 44.258,124.904 44.333,124.583 44.333 C 124.176 44.333,124.000 44.409,124.000 44.583 C 124.000 44.800,123.315 44.833,118.833 44.833 L 113.667 44.833 113.667 38.083 L 113.667 31.333 118.755 31.333 C 123.125 31.333,123.857 31.369,123.940 31.583 M252.333 35.917 C 252.333 36.324,252.409 36.500,252.583 36.500 C 252.758 36.500,252.833 36.676,252.833 37.083 C 252.833 37.404,252.908 37.667,253.000 37.667 C 253.092 37.667,253.167 37.929,253.167 38.250 C 253.167 38.571,253.242 38.833,253.333 38.833 C 253.425 38.833,253.500 39.096,253.500 39.417 C 253.500 39.824,253.575 40.000,253.750 40.000 C 253.925 40.000,254.000 40.176,254.000 40.583 C 254.000 40.904,254.075 41.167,254.167 41.167 C 254.258 41.167,254.333 41.429,254.333 41.750 C 254.333 42.071,254.408 42.333,254.500 42.333 C 254.592 42.333,254.667 42.506,254.667 42.718 C 254.667 42.930,254.777 43.249,254.911 43.426 C 255.046 43.604,255.158 43.994,255.161 44.292 C 255.164 44.590,255.242 44.833,255.333 44.833 C 255.425 44.833,255.500 45.061,255.500 45.339 C 255.500 45.634,255.604 45.884,255.750 45.940 C 255.904 45.999,256.000 46.252,256.000 46.601 C 256.000 46.912,256.075 47.167,256.167 47.167 C 256.258 47.167,256.333 47.429,256.333 47.750 C 256.333 48.071,256.408 48.333,256.500 48.333 C 256.592 48.333,256.667 48.596,256.667 48.917 C 256.667 49.324,256.742 49.500,256.917 49.500 C 257.091 49.500,257.167 49.676,257.167 50.083 C 257.167 50.404,257.242 50.667,257.333 50.667 C 257.425 50.667,257.500 50.929,257.500 51.250 C 257.500 51.571,257.575 51.833,257.667 51.833 C 257.758 51.833,257.833 51.946,257.833 52.083 C 257.833 52.301,257.065 52.333,251.917 52.333 L 246.000 52.333 246.000 51.917 C 246.000 51.657,246.094 51.500,246.250 51.500 C 246.425 51.500,246.500 51.324,246.500 50.917 C 246.500 50.596,246.575 50.333,246.667 50.333 C 246.758 50.333,246.833 50.146,246.833 49.917 C 246.833 49.688,246.908 49.500,247.000 49.500 C 247.092 49.500,247.167 49.246,247.167 48.934 C 247.167 48.586,247.262 48.332,247.417 48.273 C 247.563 48.217,247.667 47.967,247.667 47.672 C 247.667 47.394,247.742 47.167,247.833 47.167 C 247.925 47.167,248.000 46.936,248.000 46.655 C 248.000 46.373,248.112 46.030,248.250 45.893 C 248.387 45.755,248.500 45.465,248.500 45.248 C 248.500 45.031,248.575 44.807,248.667 44.750 C 248.758 44.693,248.833 44.389,248.833 44.073 C 248.833 43.758,248.908 43.500,249.000 43.500 C 249.092 43.500,249.167 43.246,249.167 42.934 C 249.167 42.586,249.262 42.332,249.417 42.273 C 249.563 42.217,249.667 41.967,249.667 41.672 C 249.667 41.394,249.742 41.167,249.833 41.167 C 249.925 41.167,250.000 40.904,250.000 40.583 C 250.000 40.262,250.075 40.000,250.167 40.000 C 250.258 40.000,250.333 39.746,250.333 39.434 C 250.333 39.086,250.429 38.832,250.583 38.773 C 250.729 38.717,250.833 38.467,250.833 38.172 C 250.833 37.894,250.908 37.667,251.000 37.667 C 251.092 37.667,251.167 37.404,251.167 37.083 C 251.167 36.762,251.242 36.500,251.333 36.500 C 251.425 36.500,251.500 36.237,251.500 35.917 C 251.500 35.406,251.552 35.333,251.917 35.333 C 252.282 35.333,252.333 35.406,252.333 35.917 " stroke="none" fill="#fcfcfc" fill-rule="evenodd"></path><path id="path1" d="M358.958 0.115 C 358.798 0.157,358.667 0.285,358.667 0.400 C 358.667 0.515,358.479 0.785,358.250 1.000 C 358.021 1.215,357.833 1.457,357.833 1.537 C 357.833 1.741,357.051 2.500,356.841 2.500 C 356.745 2.500,356.667 2.596,356.667 2.713 C 356.667 2.830,356.517 3.035,356.333 3.167 C 356.150 3.299,356.000 3.503,356.000 3.620 C 356.000 3.737,355.920 3.833,355.821 3.833 C 355.608 3.833,355.167 4.251,355.167 4.453 C 355.167 4.532,354.904 4.876,354.583 5.216 C 354.262 5.556,354.000 5.909,354.000 6.000 C 354.000 6.092,353.920 6.167,353.821 6.167 C 353.551 6.167,353.167 6.607,353.167 6.917 C 353.167 7.226,352.782 7.667,352.512 7.667 C 352.414 7.667,352.333 7.779,352.333 7.917 C 352.333 8.054,352.258 8.167,352.167 8.167 C 352.075 8.167,352.000 8.317,352.000 8.500 C 352.000 8.683,351.925 8.833,351.833 8.833 C 351.742 8.833,351.667 8.946,351.667 9.083 C 351.667 9.221,351.554 9.333,351.417 9.333 C 351.278 9.333,351.167 9.481,351.167 9.667 C 351.167 9.850,351.092 10.000,351.000 10.000 C 350.908 10.000,350.833 10.112,350.833 10.250 C 350.833 10.387,350.721 10.500,350.583 10.500 C 350.444 10.500,350.333 10.648,350.333 10.833 C 350.333 11.017,350.258 11.167,350.167 11.167 C 350.075 11.167,350.000 11.279,350.000 11.417 C 350.000 11.554,349.925 11.667,349.833 11.667 C 349.742 11.667,349.667 11.854,349.667 12.083 C 349.667 12.313,349.586 12.500,349.488 12.500 C 349.194 12.500,348.833 12.952,348.833 13.321 C 348.833 13.511,348.758 13.667,348.667 13.667 C 348.575 13.667,348.500 13.817,348.500 14.000 C 348.500 14.183,348.406 14.334,348.292 14.335 C 348.076 14.336,347.667 15.067,347.667 15.450 C 347.667 15.569,347.554 15.667,347.417 15.667 C 347.278 15.667,347.167 15.815,347.167 16.000 C 347.167 16.183,347.092 16.333,347.000 16.333 C 346.908 16.333,346.833 16.521,346.833 16.750 C 346.833 16.979,346.758 17.167,346.667 17.167 C 346.575 17.167,346.500 17.354,346.500 17.583 C 346.500 17.843,346.406 18.000,346.250 18.000 C 346.113 18.000,346.000 18.146,346.000 18.323 C 346.000 18.501,345.925 18.693,345.833 18.750 C 345.742 18.807,345.667 19.036,345.667 19.260 C 345.667 19.484,345.592 19.667,345.500 19.667 C 345.408 19.667,345.333 19.892,345.333 20.167 C 345.333 20.500,345.250 20.667,345.083 20.667 C 344.928 20.667,344.833 20.824,344.833 21.083 C 344.833 21.313,344.758 21.500,344.667 21.500 C 344.575 21.500,344.500 21.762,344.500 22.083 C 344.500 22.491,344.425 22.667,344.250 22.667 C 344.084 22.667,344.000 22.832,344.000 23.157 C 344.000 23.426,343.925 23.693,343.833 23.750 C 343.742 23.807,343.667 24.021,343.667 24.227 C 343.667 24.879,343.282 25.497,342.875 25.499 C 342.652 25.499,342.500 25.399,342.500 25.250 C 342.500 25.094,342.343 25.000,342.083 25.000 C 341.854 25.000,341.667 24.925,341.667 24.833 C 341.667 24.742,341.479 24.667,341.250 24.667 C 341.021 24.667,340.833 24.592,340.833 24.500 C 340.833 24.408,340.691 24.333,340.518 24.333 C 340.344 24.333,340.159 24.221,340.106 24.083 C 340.050 23.937,339.801 23.833,339.505 23.833 C 339.227 23.833,339.000 23.758,339.000 23.667 C 339.000 23.575,338.817 23.500,338.593 23.500 C 338.369 23.500,338.140 23.425,338.083 23.333 C 338.027 23.242,337.768 23.167,337.508 23.167 C 337.242 23.167,336.994 23.058,336.940 22.917 C 336.884 22.771,336.634 22.667,336.339 22.667 C 336.061 22.667,335.833 22.592,335.833 22.500 C 335.833 22.408,335.580 22.333,335.270 22.333 C 334.961 22.333,334.614 22.221,334.500 22.083 C 334.381 21.940,334.017 21.833,333.646 21.833 C 333.291 21.833,333.000 21.758,333.000 21.667 C 333.000 21.575,332.662 21.500,332.250 21.500 C 331.837 21.500,331.500 21.425,331.500 21.333 C 331.500 21.242,331.125 21.167,330.667 21.167 C 330.037 21.167,329.833 21.106,329.833 20.917 C 329.833 20.722,329.611 20.667,328.833 20.667 C 328.278 20.667,327.833 20.593,327.833 20.500 C 327.833 20.405,327.333 20.333,326.667 20.333 C 326.000 20.333,325.500 20.262,325.500 20.167 C 325.500 20.067,324.861 20.000,323.917 20.000 C 322.620 20.000,322.333 19.955,322.333 19.750 C 322.333 19.565,322.139 19.500,321.583 19.500 L 320.833 19.500 320.833 21.333 C 320.833 22.852,320.790 23.167,320.583 23.167 C 320.369 23.167,320.333 23.648,320.333 26.500 C 320.333 29.352,320.369 29.833,320.583 29.833 C 320.793 29.833,320.833 30.185,320.833 32.000 C 320.833 33.333,320.897 34.167,321.000 34.167 C 321.097 34.167,321.167 34.722,321.167 35.500 C 321.167 36.278,321.236 36.833,321.333 36.833 C 321.426 36.833,321.500 37.278,321.500 37.833 C 321.500 38.611,321.556 38.833,321.750 38.833 C 321.939 38.833,322.000 39.037,322.000 39.667 C 322.000 40.125,322.075 40.500,322.167 40.500 C 322.258 40.500,322.333 40.837,322.333 41.250 C 322.333 41.662,322.408 42.000,322.500 42.000 C 322.592 42.000,322.667 42.262,322.667 42.583 C 322.667 42.991,322.742 43.167,322.917 43.167 C 323.102 43.167,323.167 43.361,323.167 43.917 C 323.167 44.329,323.242 44.667,323.333 44.667 C 323.425 44.667,323.500 44.854,323.500 45.083 C 323.500 45.313,323.575 45.500,323.667 45.500 C 323.758 45.500,323.833 45.720,323.833 45.988 C 323.833 46.257,323.946 46.589,324.083 46.726 C 324.221 46.864,324.333 47.094,324.333 47.238 C 324.333 47.382,324.408 47.500,324.500 47.500 C 324.592 47.500,324.667 47.762,324.667 48.083 C 324.667 48.491,324.742 48.667,324.917 48.667 C 325.072 48.667,325.167 48.824,325.167 49.083 C 325.167 49.313,325.242 49.500,325.333 49.500 C 325.425 49.500,325.500 49.688,325.500 49.917 C 325.500 50.146,325.575 50.333,325.667 50.333 C 325.758 50.333,325.833 50.486,325.833 50.672 C 325.833 50.858,325.946 51.054,326.083 51.106 C 326.221 51.159,326.333 51.344,326.333 51.518 C 326.333 51.691,326.408 51.833,326.500 51.833 C 326.592 51.833,326.667 51.989,326.667 52.179 C 326.667 52.548,327.027 53.000,327.321 53.000 C 327.420 53.000,327.500 53.188,327.500 53.417 C 327.500 53.646,327.575 53.833,327.667 53.833 C 327.758 53.833,327.833 54.021,327.833 54.250 C 327.833 54.479,327.914 54.667,328.012 54.667 C 328.243 54.667,328.667 55.091,328.667 55.321 C 328.667 55.420,328.404 55.500,328.083 55.500 C 327.762 55.500,327.500 55.575,327.500 55.667 C 327.500 55.758,327.313 55.833,327.083 55.833 C 326.854 55.833,326.667 55.908,326.667 56.000 C 326.667 56.092,326.479 56.167,326.250 56.167 C 325.991 56.167,325.833 56.261,325.833 56.417 C 325.833 56.556,325.685 56.667,325.500 56.667 C 325.317 56.667,325.167 56.742,325.167 56.833 C 325.167 56.925,325.007 57.000,324.811 57.000 C 324.615 57.000,324.281 57.188,324.069 57.417 C 323.856 57.646,323.567 57.833,323.425 57.833 C 323.283 57.833,323.167 57.908,323.167 58.000 C 323.167 58.092,322.979 58.167,322.750 58.167 C 322.521 58.167,322.333 58.247,322.333 58.345 C 322.333 58.615,321.893 59.000,321.583 59.000 C 321.274 59.000,320.833 59.385,320.833 59.655 C 320.833 59.753,320.646 59.833,320.417 59.833 C 320.188 59.833,320.000 59.908,320.000 60.000 C 320.000 60.092,319.813 60.167,319.583 60.167 C 319.229 60.167,319.167 60.244,319.167 60.679 C 319.167 61.189,319.483 61.667,319.821 61.667 C 319.920 61.667,320.000 61.779,320.000 61.917 C 320.000 62.054,320.075 62.167,320.167 62.167 C 320.258 62.167,320.333 62.354,320.333 62.583 C 320.333 62.813,320.412 63.000,320.508 63.000 C 320.811 63.000,321.500 63.804,321.500 64.159 C 321.500 64.347,321.580 64.500,321.679 64.500 C 321.873 64.500,322.333 64.910,322.333 65.083 C 322.333 65.256,322.794 65.667,322.988 65.667 C 323.086 65.667,323.167 65.779,323.167 65.917 C 323.167 66.054,323.242 66.167,323.333 66.167 C 323.425 66.167,323.500 66.269,323.500 66.393 C 323.500 66.518,323.688 66.761,323.917 66.933 C 324.146 67.105,324.333 67.308,324.333 67.385 C 324.333 67.583,324.777 68.000,324.988 68.000 C 325.086 68.000,325.167 68.112,325.167 68.250 C 325.167 68.387,325.234 68.500,325.317 68.500 C 325.399 68.500,325.729 68.763,326.050 69.083 C 326.371 69.404,326.716 69.667,326.817 69.667 C 326.917 69.667,327.000 69.742,327.000 69.833 C 327.000 69.925,327.112 70.000,327.250 70.000 C 327.387 70.000,327.500 70.080,327.500 70.179 C 327.500 70.409,327.924 70.833,328.155 70.833 C 328.253 70.833,328.333 70.908,328.333 71.000 C 328.333 71.092,328.483 71.167,328.667 71.167 C 328.852 71.167,329.000 71.278,329.000 71.417 C 329.000 71.554,329.096 71.667,329.213 71.667 C 329.330 71.667,329.535 71.817,329.667 72.000 C 329.799 72.183,330.078 72.333,330.287 72.333 C 330.496 72.333,330.667 72.414,330.667 72.512 C 330.667 72.806,331.119 73.167,331.488 73.167 C 331.684 73.167,331.833 73.275,331.833 73.417 C 331.833 73.557,331.982 73.667,332.174 73.667 C 332.361 73.667,332.675 73.817,332.872 74.000 C 333.069 74.183,333.365 74.333,333.531 74.333 C 333.697 74.333,333.833 74.446,333.833 74.583 C 333.833 74.739,333.991 74.833,334.250 74.833 C 334.479 74.833,334.667 74.908,334.667 75.000 C 334.667 75.092,334.812 75.167,334.990 75.167 C 335.168 75.167,335.360 75.242,335.417 75.333 C 335.473 75.425,335.740 75.500,336.010 75.500 C 336.334 75.500,336.500 75.584,336.500 75.750 C 336.500 75.904,336.656 76.000,336.907 76.000 C 337.131 76.000,337.360 76.075,337.417 76.167 C 337.473 76.258,337.736 76.333,338.000 76.333 C 338.264 76.333,338.527 76.408,338.583 76.500 C 338.640 76.592,339.019 76.667,339.427 76.667 C 339.936 76.667,340.167 76.737,340.167 76.891 C 340.167 77.157,342.459 77.333,345.917 77.333 C 349.173 77.333,351.167 77.166,351.167 76.892 C 351.167 76.736,351.398 76.667,351.917 76.667 C 352.329 76.667,352.667 76.592,352.667 76.500 C 352.667 76.408,352.854 76.333,353.083 76.333 C 353.313 76.333,353.500 76.258,353.500 76.167 C 353.500 76.075,353.762 76.000,354.083 76.000 C 354.491 76.000,354.667 75.925,354.667 75.750 C 354.667 75.594,354.824 75.500,355.083 75.500 C 355.313 75.500,355.500 75.425,355.500 75.333 C 355.500 75.242,355.688 75.167,355.917 75.167 C 356.146 75.167,356.333 75.092,356.333 75.000 C 356.333 74.908,356.473 74.833,356.643 74.833 C 356.814 74.833,357.094 74.646,357.266 74.417 C 357.438 74.188,357.717 74.000,357.885 74.000 C 358.221 74.000,358.667 73.626,358.667 73.345 C 358.667 73.247,358.848 73.167,359.069 73.167 C 359.291 73.167,359.516 73.073,359.569 72.958 C 359.647 72.792,359.686 72.792,359.764 72.958 C 359.817 73.073,360.042 73.167,360.264 73.167 C 360.485 73.167,360.667 73.247,360.667 73.345 C 360.667 73.639,361.119 74.000,361.488 74.000 C 361.678 74.000,361.833 74.075,361.833 74.167 C 361.833 74.258,361.946 74.333,362.083 74.333 C 362.221 74.333,362.333 74.446,362.333 74.583 C 362.333 74.722,362.481 74.833,362.667 74.833 C 362.850 74.833,363.000 74.908,363.000 75.000 C 363.000 75.092,363.188 75.167,363.417 75.167 C 363.646 75.167,363.833 75.242,363.833 75.333 C 363.833 75.425,364.021 75.500,364.250 75.500 C 364.509 75.500,364.667 75.594,364.667 75.750 C 364.667 75.906,364.824 76.000,365.083 76.000 C 365.313 76.000,365.500 76.075,365.500 76.167 C 365.500 76.258,365.762 76.333,366.083 76.333 C 366.404 76.333,366.667 76.408,366.667 76.500 C 366.667 76.592,367.004 76.667,367.417 76.667 C 367.935 76.667,368.167 76.736,368.167 76.892 C 368.167 77.172,370.175 77.333,373.667 77.333 C 377.159 77.333,379.167 77.172,379.167 76.892 C 379.167 76.733,379.411 76.667,380.000 76.667 C 380.458 76.667,380.833 76.592,380.833 76.500 C 380.833 76.408,381.054 76.333,381.323 76.333 C 381.593 76.333,381.860 76.258,381.917 76.167 C 381.973 76.075,382.203 76.000,382.427 76.000 C 382.677 76.000,382.833 75.904,382.833 75.750 C 382.833 75.584,382.999 75.500,383.323 75.500 C 383.593 75.500,383.860 75.425,383.917 75.333 C 383.973 75.242,384.203 75.167,384.427 75.167 C 384.650 75.167,384.833 75.092,384.833 75.000 C 384.833 74.908,384.983 74.833,385.167 74.833 C 385.352 74.833,385.500 74.722,385.500 74.583 C 385.500 74.428,385.657 74.333,385.917 74.333 C 386.146 74.333,386.333 74.258,386.333 74.167 C 386.333 74.075,386.446 74.000,386.583 74.000 C 386.721 74.000,386.833 73.925,386.833 73.833 C 386.833 73.742,386.983 73.667,387.167 73.667 C 387.352 73.667,387.500 73.556,387.500 73.417 C 387.500 73.275,387.649 73.167,387.845 73.167 C 388.214 73.167,388.667 72.806,388.667 72.512 C 388.667 72.414,388.854 72.333,389.083 72.333 C 389.313 72.333,389.500 72.258,389.500 72.167 C 389.500 72.075,389.580 72.000,389.679 72.000 C 389.909 72.000,390.333 71.576,390.333 71.345 C 390.333 71.247,390.487 71.167,390.674 71.167 C 391.029 71.167,391.833 70.478,391.833 70.174 C 391.833 70.078,391.946 70.000,392.083 70.000 C 392.221 70.000,392.333 69.925,392.333 69.833 C 392.333 69.742,392.429 69.667,392.546 69.667 C 392.663 69.667,392.878 69.535,393.022 69.375 C 393.427 68.926,393.986 68.500,394.169 68.500 C 394.259 68.500,394.333 68.404,394.333 68.287 C 394.333 68.170,394.483 67.965,394.667 67.833 C 394.850 67.701,395.000 67.510,395.000 67.408 C 395.000 67.306,395.188 67.123,395.417 67.000 C 395.646 66.877,395.833 66.640,395.833 66.472 C 395.833 66.304,395.908 66.167,396.000 66.167 C 396.092 66.167,396.167 66.054,396.167 65.917 C 396.167 65.779,396.247 65.667,396.345 65.667 C 396.576 65.667,397.000 65.243,397.000 65.012 C 397.000 64.914,397.080 64.833,397.179 64.833 C 397.449 64.833,397.833 64.393,397.833 64.083 C 397.833 63.814,398.207 63.333,398.417 63.333 C 398.649 63.333,399.000 62.839,399.000 62.512 C 399.000 62.322,399.075 62.167,399.167 62.167 C 399.258 62.167,399.333 62.054,399.333 61.917 C 399.333 61.779,399.438 61.667,399.566 61.667 C 399.846 61.667,400.000 61.308,400.000 60.653 C 400.000 60.278,399.924 60.167,399.667 60.167 C 399.483 60.167,399.333 60.092,399.333 60.000 C 399.333 59.908,399.183 59.833,399.000 59.833 C 398.815 59.833,398.667 59.722,398.667 59.583 C 398.667 59.446,398.554 59.333,398.417 59.333 C 398.279 59.333,398.167 59.258,398.167 59.167 C 398.167 59.075,398.017 59.000,397.833 59.000 C 397.650 59.000,397.500 58.925,397.500 58.833 C 397.500 58.742,397.387 58.667,397.250 58.667 C 397.113 58.667,397.000 58.554,397.000 58.417 C 397.000 58.261,396.843 58.167,396.583 58.167 C 396.354 58.167,396.167 58.092,396.167 58.000 C 396.167 57.908,396.051 57.833,395.909 57.833 C 395.767 57.833,395.477 57.646,395.265 57.417 C 395.052 57.188,394.756 57.000,394.606 57.000 C 394.456 57.000,394.333 56.925,394.333 56.833 C 394.333 56.742,394.146 56.667,393.917 56.667 C 393.657 56.667,393.500 56.572,393.500 56.417 C 393.500 56.261,393.343 56.167,393.083 56.167 C 392.854 56.167,392.667 56.092,392.667 56.000 C 392.667 55.908,392.479 55.833,392.250 55.833 C 392.021 55.833,391.833 55.758,391.833 55.667 C 391.833 55.575,391.571 55.500,391.250 55.500 C 390.843 55.500,390.667 55.425,390.667 55.250 C 390.667 55.112,390.747 55.000,390.845 55.000 C 391.139 55.000,391.500 54.548,391.500 54.179 C 391.500 53.989,391.575 53.833,391.667 53.833 C 391.758 53.833,391.833 53.646,391.833 53.417 C 391.833 53.188,391.914 53.000,392.012 53.000 C 392.306 53.000,392.667 52.548,392.667 52.179 C 392.667 51.989,392.742 51.833,392.833 51.833 C 392.925 51.833,393.000 51.683,393.000 51.500 C 393.000 51.315,393.111 51.167,393.250 51.167 C 393.406 51.167,393.500 51.009,393.500 50.750 C 393.500 50.521,393.575 50.333,393.667 50.333 C 393.758 50.333,393.833 50.146,393.833 49.917 C 393.833 49.657,393.928 49.500,394.083 49.500 C 394.239 49.500,394.333 49.343,394.333 49.083 C 394.333 48.854,394.408 48.667,394.500 48.667 C 394.592 48.667,394.667 48.404,394.667 48.083 C 394.667 47.762,394.742 47.500,394.833 47.500 C 394.925 47.500,395.000 47.358,395.000 47.184 C 395.000 47.011,395.113 46.826,395.250 46.773 C 395.407 46.713,395.500 46.458,395.500 46.089 C 395.500 45.765,395.575 45.500,395.667 45.500 C 395.758 45.500,395.833 45.313,395.833 45.083 C 395.833 44.854,395.908 44.667,396.000 44.667 C 396.092 44.667,396.167 44.329,396.167 43.917 C 396.167 43.361,396.231 43.167,396.417 43.167 C 396.591 43.167,396.667 42.991,396.667 42.583 C 396.667 42.262,396.742 42.000,396.833 42.000 C 396.925 42.000,397.000 41.671,397.000 41.268 C 397.000 40.771,397.080 40.505,397.250 40.440 C 397.421 40.374,397.500 40.106,397.500 39.589 C 397.500 39.173,397.575 38.833,397.667 38.833 C 397.759 38.833,397.833 38.389,397.833 37.833 C 397.833 37.278,397.907 36.833,398.000 36.833 C 398.097 36.833,398.167 36.278,398.167 35.500 C 398.167 34.426,398.215 34.167,398.417 34.167 C 398.626 34.167,398.667 33.815,398.667 32.000 C 398.667 30.667,398.731 29.833,398.833 29.833 C 398.939 29.833,399.000 28.556,399.000 26.333 C 399.000 24.111,398.939 22.833,398.833 22.833 C 398.733 22.833,398.667 22.167,398.667 21.167 L 398.667 19.500 397.833 19.500 C 397.204 19.500,397.000 19.561,397.000 19.750 C 397.000 19.954,396.722 20.000,395.500 20.000 C 394.611 20.000,394.000 20.068,394.000 20.167 C 394.000 20.263,393.472 20.333,392.750 20.333 C 392.028 20.333,391.500 20.404,391.500 20.500 C 391.500 20.593,391.056 20.667,390.500 20.667 C 389.722 20.667,389.500 20.722,389.500 20.917 C 389.500 21.102,389.306 21.167,388.750 21.167 C 388.337 21.167,388.000 21.242,388.000 21.333 C 388.000 21.425,387.625 21.500,387.167 21.500 C 386.708 21.500,386.333 21.575,386.333 21.667 C 386.333 21.758,386.031 21.833,385.661 21.833 C 385.218 21.833,384.957 21.918,384.894 22.083 C 384.834 22.238,384.581 22.333,384.232 22.333 C 383.921 22.333,383.667 22.408,383.667 22.500 C 383.667 22.592,383.404 22.667,383.083 22.667 C 382.676 22.667,382.500 22.742,382.500 22.917 C 382.500 23.091,382.324 23.167,381.917 23.167 C 381.596 23.167,381.333 23.242,381.333 23.333 C 381.333 23.425,381.146 23.500,380.917 23.500 C 380.688 23.500,380.500 23.575,380.500 23.667 C 380.500 23.758,380.238 23.833,379.917 23.833 C 379.509 23.833,379.333 23.909,379.333 24.083 C 379.333 24.239,379.176 24.333,378.917 24.333 C 378.688 24.333,378.500 24.408,378.500 24.500 C 378.500 24.592,378.313 24.667,378.083 24.667 C 377.854 24.667,377.667 24.742,377.667 24.833 C 377.667 24.925,377.479 25.000,377.250 25.000 C 376.991 25.000,376.833 25.094,376.833 25.250 C 376.833 25.622,376.206 25.552,376.083 25.167 C 376.025 24.983,375.908 24.833,375.822 24.833 C 375.737 24.833,375.667 24.608,375.667 24.333 C 375.667 24.058,375.592 23.833,375.500 23.833 C 375.408 23.833,375.333 23.571,375.333 23.250 C 375.333 22.843,375.258 22.667,375.083 22.667 C 374.909 22.667,374.833 22.491,374.833 22.083 C 374.833 21.762,374.758 21.500,374.667 21.500 C 374.575 21.500,374.500 21.313,374.500 21.083 C 374.500 20.854,374.425 20.667,374.333 20.667 C 374.242 20.667,374.167 20.517,374.167 20.333 C 374.167 20.148,374.056 20.000,373.917 20.000 C 373.751 20.000,373.667 19.834,373.667 19.510 C 373.667 19.240,373.592 18.973,373.500 18.917 C 373.408 18.860,373.333 18.631,373.333 18.407 C 373.333 18.183,373.258 18.000,373.167 18.000 C 373.075 18.000,373.000 17.848,373.000 17.661 C 373.000 17.475,372.887 17.280,372.750 17.227 C 372.613 17.174,372.500 16.984,372.500 16.804 C 372.500 16.624,372.406 16.372,372.292 16.244 C 371.797 15.692,371.667 15.504,371.667 15.340 C 371.667 15.245,371.592 15.167,371.500 15.167 C 371.408 15.167,371.333 14.979,371.333 14.750 C 371.333 14.521,371.258 14.333,371.167 14.333 C 371.075 14.333,371.000 14.183,371.000 14.000 C 371.000 13.815,370.889 13.667,370.750 13.667 C 370.601 13.667,370.500 13.513,370.500 13.287 C 370.500 13.078,370.350 12.799,370.167 12.667 C 369.983 12.535,369.833 12.255,369.833 12.047 C 369.833 11.820,369.732 11.667,369.583 11.667 C 369.446 11.667,369.333 11.554,369.333 11.417 C 369.333 11.279,369.258 11.167,369.167 11.167 C 369.075 11.167,369.000 11.017,369.000 10.833 C 369.000 10.648,368.889 10.500,368.750 10.500 C 368.613 10.500,368.500 10.387,368.500 10.250 C 368.500 10.112,368.425 10.000,368.333 10.000 C 368.242 10.000,368.167 9.850,368.167 9.667 C 368.167 9.483,368.092 9.333,368.000 9.333 C 367.908 9.333,367.833 9.221,367.833 9.083 C 367.833 8.946,367.721 8.833,367.583 8.833 C 367.444 8.833,367.333 8.685,367.333 8.500 C 367.333 8.317,367.258 8.167,367.167 8.167 C 367.075 8.167,367.000 8.086,367.000 7.988 C 367.000 7.757,366.576 7.333,366.345 7.333 C 366.247 7.333,366.167 7.178,366.167 6.988 C 366.167 6.619,365.806 6.167,365.512 6.167 C 365.414 6.167,365.333 6.088,365.333 5.992 C 365.333 5.897,365.165 5.638,364.958 5.417 C 364.359 4.776,364.167 4.523,364.167 4.377 C 364.167 4.302,364.017 4.132,363.833 4.000 C 363.650 3.868,363.500 3.664,363.500 3.547 C 363.500 3.429,363.420 3.333,363.321 3.333 C 363.127 3.333,362.667 2.923,362.667 2.750 C 362.667 2.611,362.222 2.167,362.083 2.167 C 361.923 2.167,361.500 1.713,361.500 1.541 C 361.500 1.459,361.313 1.215,361.083 1.000 C 360.854 0.785,360.667 0.517,360.667 0.405 C 360.667 0.047,359.790 -0.103,358.958 0.115 M359.833 10.667 C 359.833 10.758,359.928 10.833,360.043 10.833 C 360.158 10.833,360.358 11.077,360.488 11.375 C 360.617 11.673,360.898 12.082,361.112 12.284 C 361.325 12.486,361.500 12.767,361.500 12.909 C 361.500 13.051,361.575 13.167,361.667 13.167 C 361.758 13.167,361.833 13.279,361.833 13.417 C 361.833 13.554,361.914 13.667,362.012 13.667 C 362.282 13.667,362.667 14.107,362.667 14.417 C 362.667 14.726,363.051 15.167,363.321 15.167 C 363.420 15.167,363.500 15.354,363.500 15.583 C 363.500 15.813,363.575 16.000,363.667 16.000 C 363.758 16.000,363.836 16.131,363.839 16.292 C 363.845 16.652,364.221 17.167,364.477 17.167 C 364.581 17.167,364.667 17.354,364.667 17.583 C 364.667 17.813,364.742 18.000,364.833 18.000 C 364.925 18.000,365.000 18.150,365.000 18.333 C 365.000 18.519,365.111 18.667,365.250 18.667 C 365.406 18.667,365.500 18.824,365.500 19.083 C 365.500 19.313,365.575 19.500,365.667 19.500 C 365.758 19.500,365.833 19.612,365.833 19.750 C 365.833 19.887,365.908 20.000,366.000 20.000 C 366.092 20.000,366.167 20.150,366.167 20.333 C 366.167 20.519,366.278 20.667,366.417 20.667 C 366.572 20.667,366.667 20.824,366.667 21.083 C 366.667 21.313,366.742 21.500,366.833 21.500 C 366.925 21.500,367.000 21.762,367.000 22.083 C 367.000 22.404,367.075 22.667,367.167 22.667 C 367.258 22.667,367.333 22.854,367.333 23.083 C 367.333 23.343,367.428 23.500,367.583 23.500 C 367.739 23.500,367.833 23.657,367.833 23.917 C 367.833 24.146,367.908 24.333,368.000 24.333 C 368.092 24.333,368.167 24.596,368.167 24.917 C 368.167 25.238,368.242 25.500,368.333 25.500 C 368.425 25.500,368.500 25.636,368.500 25.801 C 368.500 25.967,368.610 26.249,368.745 26.426 C 368.879 26.604,368.992 26.952,368.995 27.198 C 368.998 27.445,369.075 27.693,369.167 27.750 C 369.258 27.807,369.333 28.111,369.333 28.427 C 369.333 28.825,369.410 29.000,369.583 29.000 C 369.763 29.000,369.833 29.184,369.833 29.657 C 369.833 30.018,369.908 30.360,370.000 30.417 C 370.092 30.473,370.167 30.890,370.167 31.343 C 370.167 31.796,370.242 32.167,370.333 32.167 C 370.427 32.167,370.500 32.641,370.500 33.255 C 370.500 34.069,370.563 34.368,370.750 34.440 C 370.964 34.522,371.000 35.195,371.000 39.083 C 371.000 42.972,370.964 43.645,370.750 43.727 C 370.569 43.796,370.500 44.079,370.500 44.745 C 370.500 45.252,370.425 45.667,370.333 45.667 C 370.242 45.667,370.167 46.004,370.167 46.417 C 370.167 46.829,370.092 47.167,370.000 47.167 C 369.908 47.167,369.833 47.429,369.833 47.750 C 369.833 48.157,369.758 48.333,369.583 48.333 C 369.409 48.333,369.333 48.509,369.333 48.917 C 369.333 49.237,369.258 49.500,369.167 49.500 C 369.075 49.500,369.000 49.688,369.000 49.917 C 369.000 50.176,368.906 50.333,368.750 50.333 C 368.594 50.333,368.500 50.491,368.500 50.750 C 368.500 50.979,368.425 51.167,368.333 51.167 C 368.242 51.167,368.167 51.317,368.167 51.500 C 368.167 51.683,368.092 51.833,368.000 51.833 C 367.908 51.833,367.833 52.021,367.833 52.250 C 367.833 52.509,367.739 52.667,367.583 52.667 C 367.434 52.667,367.333 52.820,367.333 53.047 C 367.333 53.255,367.183 53.535,367.000 53.667 C 366.817 53.799,366.667 54.078,366.667 54.287 C 366.667 54.496,366.586 54.667,366.488 54.667 C 366.194 54.667,365.833 55.119,365.833 55.488 C 365.833 55.704,365.724 55.835,365.542 55.839 C 365.181 55.845,364.667 56.221,364.667 56.477 C 364.667 56.581,364.554 56.667,364.417 56.667 C 364.279 56.667,364.167 56.742,364.167 56.833 C 364.167 56.925,364.048 57.000,363.904 57.000 C 363.614 57.000,362.333 58.218,362.333 58.493 C 362.333 58.589,362.237 58.667,362.120 58.667 C 362.003 58.667,361.799 58.817,361.667 59.000 C 361.535 59.183,361.330 59.333,361.213 59.333 C 361.096 59.333,361.000 59.412,361.000 59.508 C 361.000 59.734,360.234 60.500,360.008 60.500 C 359.912 60.500,359.833 60.612,359.833 60.750 C 359.833 60.887,359.758 61.000,359.667 61.000 C 359.575 61.000,359.500 60.920,359.500 60.821 C 359.500 60.627,359.090 60.167,358.917 60.167 C 358.744 60.167,358.333 59.706,358.333 59.512 C 358.333 59.414,358.255 59.333,358.159 59.333 C 357.933 59.333,357.167 58.567,357.167 58.341 C 357.167 58.245,357.086 58.167,356.988 58.167 C 356.788 58.167,356.333 57.754,356.333 57.572 C 356.333 57.376,355.770 57.011,355.458 57.005 C 355.298 57.002,355.167 56.925,355.167 56.833 C 355.167 56.742,355.054 56.667,354.917 56.667 C 354.779 56.667,354.667 56.581,354.667 56.477 C 354.667 56.221,354.152 55.845,353.792 55.839 C 353.601 55.835,353.500 55.702,353.500 55.453 C 353.500 55.245,353.350 54.965,353.167 54.833 C 352.983 54.701,352.833 54.470,352.833 54.320 C 352.833 54.170,352.646 53.906,352.417 53.734 C 352.187 53.561,352.000 53.251,352.000 53.044 C 352.000 52.820,351.899 52.667,351.750 52.667 C 351.594 52.667,351.500 52.509,351.500 52.250 C 351.500 52.021,351.425 51.833,351.333 51.833 C 351.242 51.833,351.167 51.683,351.167 51.500 C 351.167 51.317,351.092 51.167,351.000 51.167 C 350.908 51.167,350.833 50.979,350.833 50.750 C 350.833 50.491,350.739 50.333,350.583 50.333 C 350.428 50.333,350.333 50.176,350.333 49.917 C 350.333 49.688,350.258 49.500,350.167 49.500 C 350.075 49.500,350.000 49.237,350.000 48.917 C 350.000 48.596,349.925 48.333,349.833 48.333 C 349.742 48.333,349.667 48.071,349.667 47.750 C 349.667 47.343,349.591 47.167,349.417 47.167 C 349.228 47.167,349.167 46.963,349.167 46.333 C 349.167 45.875,349.092 45.500,349.000 45.500 C 348.908 45.500,348.833 45.094,348.833 44.597 C 348.833 44.076,348.754 43.668,348.645 43.632 C 348.375 43.542,348.370 34.627,348.640 34.537 C 348.762 34.496,348.833 34.045,348.833 33.319 C 348.833 32.662,348.905 32.167,349.000 32.167 C 349.092 32.167,349.167 31.824,349.167 31.405 C 349.167 30.950,349.267 30.542,349.417 30.393 C 349.554 30.255,349.667 29.886,349.667 29.571 C 349.667 29.257,349.742 29.000,349.833 29.000 C 349.925 29.000,350.000 28.738,350.000 28.417 C 350.000 28.096,350.075 27.833,350.167 27.833 C 350.258 27.833,350.333 27.579,350.333 27.268 C 350.333 26.919,350.429 26.666,350.583 26.606 C 350.729 26.550,350.833 26.301,350.833 26.005 C 350.833 25.727,350.908 25.500,351.000 25.500 C 351.092 25.500,351.167 25.238,351.167 24.917 C 351.167 24.596,351.242 24.333,351.333 24.333 C 351.425 24.333,351.500 24.146,351.500 23.917 C 351.500 23.657,351.594 23.500,351.750 23.500 C 351.906 23.500,352.000 23.343,352.000 23.083 C 352.000 22.854,352.075 22.667,352.167 22.667 C 352.258 22.667,352.333 22.404,352.333 22.083 C 352.333 21.676,352.409 21.500,352.583 21.500 C 352.739 21.500,352.833 21.343,352.833 21.083 C 352.833 20.854,352.908 20.667,353.000 20.667 C 353.092 20.667,353.167 20.517,353.167 20.333 C 353.167 20.150,353.242 20.000,353.333 20.000 C 353.425 20.000,353.500 19.896,353.500 19.768 C 353.500 19.640,353.613 19.492,353.750 19.440 C 353.887 19.387,354.000 19.191,354.000 19.005 C 354.000 18.819,354.075 18.667,354.167 18.667 C 354.258 18.667,354.333 18.517,354.333 18.333 C 354.333 18.150,354.408 18.000,354.500 18.000 C 354.592 18.000,354.667 17.813,354.667 17.583 C 354.667 17.354,354.747 17.167,354.845 17.167 C 355.139 17.167,355.500 16.714,355.500 16.345 C 355.500 16.149,355.608 16.000,355.750 16.000 C 355.899 16.000,356.000 15.847,356.000 15.620 C 356.000 15.411,356.150 15.132,356.333 15.000 C 356.517 14.868,356.667 14.589,356.667 14.380 C 356.667 14.171,356.747 14.000,356.845 14.000 C 357.076 14.000,357.500 13.576,357.500 13.345 C 357.500 13.247,357.575 13.167,357.667 13.167 C 357.758 13.167,357.833 13.017,357.833 12.833 C 357.833 12.648,357.944 12.500,358.083 12.500 C 358.221 12.500,358.333 12.387,358.333 12.250 C 358.333 12.112,358.408 12.000,358.500 12.000 C 358.592 12.000,358.669 11.906,358.671 11.792 C 358.680 11.343,359.833 10.226,359.833 10.667 M328.667 28.000 C 328.667 28.092,328.996 28.167,329.399 28.167 C 329.896 28.167,330.162 28.247,330.227 28.417 C 330.293 28.588,330.561 28.667,331.078 28.667 C 331.493 28.667,331.833 28.742,331.833 28.833 C 331.833 28.925,332.096 29.000,332.417 29.000 C 332.737 29.000,333.000 29.075,333.000 29.167 C 333.000 29.258,333.262 29.333,333.583 29.333 C 333.991 29.333,334.167 29.409,334.167 29.583 C 334.167 29.758,334.343 29.833,334.750 29.833 C 335.071 29.833,335.333 29.908,335.333 30.000 C 335.333 30.092,335.521 30.167,335.750 30.167 C 335.979 30.167,336.167 30.242,336.167 30.333 C 336.167 30.425,336.429 30.500,336.750 30.500 C 337.157 30.500,337.333 30.575,337.333 30.750 C 337.333 30.906,337.491 31.000,337.750 31.000 C 337.979 31.000,338.167 31.075,338.167 31.167 C 338.167 31.258,338.354 31.333,338.583 31.333 C 338.843 31.333,339.000 31.428,339.000 31.583 C 339.000 31.722,339.148 31.833,339.333 31.833 C 339.517 31.833,339.667 31.908,339.667 32.000 C 339.667 32.092,339.854 32.167,340.083 32.167 C 340.313 32.167,340.500 32.242,340.500 32.333 C 340.500 32.425,340.688 32.500,340.917 32.500 C 341.176 32.500,341.333 32.594,341.333 32.750 C 341.333 32.887,341.408 33.000,341.500 33.000 C 341.592 33.000,341.667 33.262,341.667 33.583 C 341.667 33.904,341.592 34.167,341.500 34.167 C 341.393 34.167,341.333 35.858,341.333 38.907 C 341.333 41.887,341.395 43.685,341.500 43.750 C 341.592 43.807,341.667 44.376,341.667 45.015 C 341.667 45.894,341.728 46.200,341.917 46.273 C 342.092 46.340,342.167 46.613,342.167 47.184 C 342.167 47.633,342.242 48.000,342.333 48.000 C 342.425 48.000,342.500 48.337,342.500 48.750 C 342.500 49.163,342.575 49.500,342.667 49.500 C 342.758 49.500,342.833 49.762,342.833 50.083 C 342.833 50.491,342.909 50.667,343.083 50.667 C 343.258 50.667,343.333 50.843,343.333 51.250 C 343.333 51.571,343.408 51.833,343.500 51.833 C 343.592 51.833,343.667 52.021,343.667 52.250 L 343.667 52.667 340.750 52.667 C 338.917 52.667,337.833 52.729,337.833 52.833 C 337.833 52.925,337.422 53.000,336.919 53.000 C 335.959 53.000,335.333 52.671,335.333 52.166 C 335.333 52.024,335.183 51.799,335.000 51.667 C 334.817 51.535,334.667 51.303,334.667 51.153 C 334.667 51.003,334.479 50.739,334.250 50.567 C 334.021 50.395,333.833 50.085,333.833 49.877 C 333.833 49.653,333.732 49.500,333.583 49.500 C 333.444 49.500,333.333 49.352,333.333 49.167 C 333.333 48.983,333.258 48.833,333.167 48.833 C 333.075 48.833,333.000 48.721,333.000 48.583 C 333.000 48.446,332.925 48.333,332.833 48.333 C 332.742 48.333,332.667 48.146,332.667 47.917 C 332.667 47.657,332.572 47.500,332.417 47.500 C 332.278 47.500,332.167 47.352,332.167 47.167 C 332.167 46.983,332.092 46.833,332.000 46.833 C 331.908 46.833,331.833 46.646,331.833 46.417 C 331.833 46.188,331.758 46.000,331.667 46.000 C 331.575 46.000,331.500 45.773,331.500 45.495 C 331.500 45.199,331.396 44.950,331.250 44.894 C 331.112 44.841,331.000 44.618,331.000 44.399 C 331.000 44.179,330.925 44.000,330.833 44.000 C 330.742 44.000,330.667 43.737,330.667 43.417 C 330.667 43.009,330.591 42.833,330.417 42.833 C 330.242 42.833,330.167 42.657,330.167 42.250 C 330.167 41.929,330.092 41.667,330.000 41.667 C 329.908 41.667,329.833 41.404,329.833 41.083 C 329.833 40.762,329.758 40.500,329.667 40.500 C 329.575 40.500,329.500 40.243,329.500 39.929 C 329.500 39.614,329.387 39.245,329.250 39.107 C 329.101 38.958,329.000 38.550,329.000 38.095 C 329.000 37.676,328.925 37.333,328.833 37.333 C 328.742 37.333,328.667 36.963,328.667 36.510 C 328.667 36.057,328.592 35.640,328.500 35.583 C 328.408 35.527,328.333 35.003,328.333 34.419 C 328.333 33.697,328.253 33.277,328.083 33.107 C 327.883 32.907,327.833 32.356,327.833 30.345 L 327.833 27.833 328.250 27.833 C 328.479 27.833,328.667 27.908,328.667 28.000 M391.700 28.033 C 391.563 28.170,391.500 28.985,391.500 30.617 C 391.500 32.094,391.437 33.000,391.333 33.000 C 391.238 33.000,391.167 33.493,391.167 34.146 C 391.167 34.962,391.095 35.352,390.917 35.500 C 390.757 35.633,390.667 36.001,390.667 36.520 C 390.667 36.968,390.592 37.333,390.500 37.333 C 390.408 37.333,390.333 37.708,390.333 38.167 C 390.333 38.625,390.258 39.000,390.167 39.000 C 390.075 39.000,390.000 39.337,390.000 39.750 C 390.000 40.306,389.935 40.500,389.750 40.500 C 389.575 40.500,389.500 40.676,389.500 41.083 C 389.500 41.404,389.425 41.667,389.333 41.667 C 389.242 41.667,389.167 41.929,389.167 42.250 C 389.167 42.657,389.091 42.833,388.917 42.833 C 388.742 42.833,388.667 43.009,388.667 43.417 C 388.667 43.737,388.592 44.000,388.500 44.000 C 388.408 44.000,388.333 44.188,388.333 44.417 C 388.333 44.646,388.258 44.833,388.167 44.833 C 388.075 44.833,388.000 45.096,388.000 45.417 C 388.000 45.824,387.925 46.000,387.750 46.000 C 387.594 46.000,387.500 46.157,387.500 46.417 C 387.500 46.646,387.425 46.833,387.333 46.833 C 387.242 46.833,387.167 46.983,387.167 47.167 C 387.167 47.350,387.092 47.500,387.000 47.500 C 386.908 47.500,386.833 47.688,386.833 47.917 C 386.833 48.176,386.739 48.333,386.583 48.333 C 386.446 48.333,386.333 48.446,386.333 48.583 C 386.333 48.721,386.258 48.833,386.167 48.833 C 386.075 48.833,386.000 48.983,386.000 49.167 C 386.000 49.352,385.889 49.500,385.750 49.500 C 385.601 49.500,385.500 49.653,385.500 49.880 C 385.500 50.089,385.350 50.368,385.167 50.500 C 384.983 50.632,384.833 50.911,384.833 51.120 C 384.833 51.329,384.753 51.500,384.655 51.500 C 384.408 51.500,384.001 51.929,383.995 52.196 C 383.978 52.882,381.946 53.419,381.583 52.833 C 381.521 52.733,380.332 52.667,378.573 52.667 L 375.667 52.667 375.667 52.268 C 375.667 52.048,375.779 51.826,375.917 51.773 C 376.063 51.717,376.167 51.467,376.167 51.172 C 376.167 50.894,376.242 50.667,376.333 50.667 C 376.425 50.667,376.500 50.404,376.500 50.083 C 376.500 49.762,376.575 49.500,376.667 49.500 C 376.758 49.500,376.833 49.171,376.833 48.768 C 376.833 48.271,376.914 48.005,377.083 47.940 C 377.255 47.874,377.333 47.606,377.333 47.089 C 377.333 46.673,377.408 46.333,377.500 46.333 C 377.596 46.333,377.667 45.809,377.667 45.093 C 377.667 44.411,377.742 43.807,377.833 43.750 C 377.938 43.685,378.000 41.887,378.000 38.907 C 378.000 35.858,377.941 34.167,377.833 34.167 C 377.742 34.167,377.667 33.904,377.667 33.583 C 377.667 33.262,377.742 33.000,377.833 33.000 C 377.925 33.000,378.000 32.887,378.000 32.750 C 378.000 32.594,378.157 32.500,378.417 32.500 C 378.646 32.500,378.833 32.425,378.833 32.333 C 378.833 32.242,379.021 32.167,379.250 32.167 C 379.479 32.167,379.667 32.092,379.667 32.000 C 379.667 31.908,379.819 31.833,380.005 31.833 C 380.191 31.833,380.387 31.721,380.440 31.583 C 380.492 31.446,380.678 31.333,380.851 31.333 C 381.025 31.333,381.167 31.258,381.167 31.167 C 381.167 31.075,381.354 31.000,381.583 31.000 C 381.843 31.000,382.000 30.906,382.000 30.750 C 382.000 30.575,382.176 30.500,382.583 30.500 C 382.904 30.500,383.167 30.425,383.167 30.333 C 383.167 30.242,383.354 30.167,383.583 30.167 C 383.813 30.167,384.000 30.092,384.000 30.000 C 384.000 29.908,384.262 29.833,384.583 29.833 C 384.991 29.833,385.167 29.758,385.167 29.583 C 385.167 29.409,385.343 29.333,385.750 29.333 C 386.071 29.333,386.333 29.258,386.333 29.167 C 386.333 29.075,386.596 29.000,386.917 29.000 C 387.238 29.000,387.500 28.925,387.500 28.833 C 387.500 28.742,387.875 28.667,388.333 28.667 C 388.963 28.667,389.167 28.606,389.167 28.417 C 389.167 28.231,389.361 28.167,389.917 28.167 C 390.329 28.167,390.667 28.092,390.667 28.000 C 390.667 27.908,390.944 27.833,391.283 27.833 C 391.763 27.833,391.856 27.878,391.700 28.033 M344.917 60.000 C 344.973 60.092,345.353 60.167,345.760 60.167 C 346.167 60.167,346.500 60.242,346.500 60.333 C 346.500 60.425,346.762 60.500,347.083 60.500 C 347.491 60.500,347.667 60.575,347.667 60.750 C 347.667 60.925,347.843 61.000,348.250 61.000 C 348.571 61.000,348.833 61.075,348.833 61.167 C 348.833 61.258,348.989 61.333,349.179 61.333 C 349.548 61.333,350.000 61.694,350.000 61.988 C 350.000 62.086,350.155 62.167,350.345 62.167 C 350.714 62.167,351.167 62.527,351.167 62.821 C 351.167 62.920,351.338 63.000,351.547 63.000 C 351.755 63.000,352.035 63.150,352.167 63.333 C 352.299 63.517,352.503 63.667,352.620 63.667 C 352.737 63.667,352.833 63.745,352.833 63.841 C 352.833 64.067,353.600 64.833,353.826 64.833 C 353.922 64.833,354.000 65.021,354.000 65.250 C 354.000 65.479,354.075 65.667,354.167 65.667 C 354.258 65.667,354.333 65.747,354.333 65.845 C 354.333 65.943,354.427 66.128,354.542 66.256 C 355.250 67.046,355.350 67.333,354.917 67.333 C 354.779 67.333,354.667 67.408,354.667 67.500 C 354.667 67.592,354.517 67.667,354.333 67.667 C 354.150 67.667,354.000 67.742,354.000 67.833 C 354.000 67.925,353.891 68.000,353.758 68.000 C 353.624 68.000,353.328 68.188,353.098 68.417 C 352.869 68.646,352.528 68.833,352.341 68.833 C 352.153 68.833,352.000 68.908,352.000 69.000 C 352.000 69.092,351.818 69.167,351.595 69.167 C 351.373 69.167,351.078 69.279,350.940 69.417 C 350.803 69.554,350.535 69.667,350.345 69.667 C 350.155 69.667,350.000 69.742,350.000 69.833 C 350.000 69.925,349.585 70.000,349.078 70.000 C 348.412 70.000,348.130 70.069,348.060 70.250 C 347.982 70.455,347.565 70.500,345.750 70.500 C 343.935 70.500,343.518 70.455,343.440 70.250 C 343.372 70.074,343.097 70.000,342.505 70.000 C 342.044 70.000,341.667 69.925,341.667 69.833 C 341.667 69.742,341.404 69.667,341.083 69.667 C 340.762 69.667,340.500 69.595,340.500 69.508 C 340.500 69.420,340.237 69.299,339.917 69.239 C 339.596 69.179,339.333 69.063,339.333 68.981 C 339.333 68.900,339.146 68.833,338.917 68.833 C 338.688 68.833,338.500 68.758,338.500 68.667 C 338.500 68.575,338.237 68.500,337.917 68.500 C 337.596 68.500,337.333 68.420,337.333 68.321 C 337.333 68.027,336.881 67.667,336.512 67.667 C 336.322 67.667,336.167 67.592,336.167 67.500 C 336.167 67.408,335.979 67.333,335.750 67.333 C 335.521 67.333,335.333 67.253,335.333 67.155 C 335.333 66.885,334.893 66.500,334.583 66.500 C 334.274 66.500,333.833 66.115,333.833 65.845 C 333.833 65.747,333.680 65.667,333.493 65.667 C 333.296 65.667,332.743 65.245,332.180 64.667 C 331.645 64.117,331.086 63.667,330.937 63.667 C 330.788 63.667,330.667 63.592,330.667 63.500 C 330.667 63.408,330.586 63.333,330.488 63.333 C 330.294 63.333,329.833 62.923,329.833 62.750 C 329.833 62.476,330.359 62.167,330.827 62.167 C 331.133 62.167,331.383 62.065,331.440 61.917 C 331.492 61.779,331.678 61.667,331.851 61.667 C 332.025 61.667,332.167 61.592,332.167 61.500 C 332.167 61.408,332.429 61.333,332.750 61.333 C 333.071 61.333,333.333 61.258,333.333 61.167 C 333.333 61.075,333.598 61.000,333.922 61.000 C 334.291 61.000,334.546 60.907,334.606 60.750 C 334.672 60.580,334.937 60.500,335.434 60.500 C 335.837 60.500,336.167 60.425,336.167 60.333 C 336.167 60.242,336.575 60.167,337.073 60.167 C 337.572 60.167,338.027 60.092,338.083 60.000 C 338.146 59.898,339.471 59.833,341.500 59.833 C 343.529 59.833,344.854 59.898,344.917 60.000 M381.333 60.000 C 381.333 60.092,381.746 60.167,382.250 60.167 C 382.754 60.167,383.167 60.242,383.167 60.333 C 383.167 60.425,383.542 60.500,384.000 60.500 C 384.630 60.500,384.833 60.561,384.833 60.750 C 384.833 60.925,385.009 61.000,385.417 61.000 C 385.738 61.000,386.000 61.075,386.000 61.167 C 386.000 61.258,386.262 61.333,386.583 61.333 C 386.904 61.333,387.167 61.408,387.167 61.500 C 387.167 61.592,387.354 61.667,387.583 61.667 C 387.843 61.667,388.000 61.761,388.000 61.917 C 388.000 62.085,388.168 62.167,388.512 62.167 C 388.975 62.167,389.500 62.477,389.500 62.750 C 389.500 62.923,389.039 63.333,388.845 63.333 C 388.747 63.333,388.667 63.408,388.667 63.500 C 388.667 63.592,388.517 63.667,388.333 63.667 C 388.148 63.667,388.000 63.778,388.000 63.917 C 388.000 64.054,387.922 64.167,387.826 64.167 C 387.600 64.167,386.833 64.933,386.833 65.159 C 386.833 65.255,386.721 65.333,386.583 65.333 C 386.446 65.333,386.333 65.408,386.333 65.500 C 386.333 65.592,386.146 65.667,385.917 65.667 C 385.688 65.667,385.500 65.747,385.500 65.845 C 385.500 66.115,385.059 66.500,384.750 66.500 C 384.441 66.500,384.000 66.885,384.000 67.155 C 384.000 67.253,383.813 67.333,383.583 67.333 C 383.354 67.333,383.167 67.408,383.167 67.500 C 383.167 67.592,383.017 67.667,382.833 67.667 C 382.650 67.667,382.500 67.742,382.500 67.833 C 382.500 67.925,382.387 68.000,382.250 68.000 C 382.113 68.000,382.000 68.112,382.000 68.250 C 382.000 68.416,381.834 68.500,381.510 68.500 C 381.240 68.500,380.973 68.575,380.917 68.667 C 380.860 68.758,380.631 68.833,380.407 68.833 C 380.183 68.833,380.000 68.908,380.000 69.000 C 380.000 69.092,379.864 69.167,379.699 69.167 C 379.533 69.167,379.251 69.277,379.074 69.411 C 378.896 69.546,378.506 69.658,378.208 69.661 C 377.910 69.664,377.667 69.742,377.667 69.833 C 377.667 69.925,377.335 70.000,376.929 70.000 C 376.495 70.000,376.087 70.103,375.940 70.250 C 375.744 70.447,375.228 70.500,373.530 70.500 C 371.763 70.500,371.352 70.454,371.273 70.250 C 371.204 70.069,370.921 70.000,370.255 70.000 C 369.748 70.000,369.333 69.925,369.333 69.833 C 369.333 69.742,369.071 69.667,368.750 69.667 C 368.343 69.667,368.167 69.591,368.167 69.417 C 368.167 69.261,368.009 69.167,367.750 69.167 C 367.521 69.167,367.333 69.092,367.333 69.000 C 367.333 68.908,367.183 68.833,367.000 68.833 C 366.817 68.833,366.667 68.758,366.667 68.667 C 366.667 68.575,366.479 68.500,366.250 68.500 C 365.991 68.500,365.833 68.406,365.833 68.250 C 365.833 68.112,365.721 68.000,365.583 68.000 C 365.446 68.000,365.333 67.925,365.333 67.833 C 365.333 67.742,365.183 67.667,365.000 67.667 C 364.817 67.667,364.667 67.592,364.667 67.500 C 364.667 67.408,364.554 67.333,364.417 67.333 C 363.983 67.333,364.083 67.046,364.792 66.256 C 364.906 66.128,365.000 65.943,365.000 65.845 C 365.000 65.747,365.075 65.667,365.167 65.667 C 365.258 65.667,365.333 65.479,365.333 65.250 C 365.333 65.021,365.429 64.833,365.547 64.833 C 365.664 64.833,365.868 64.683,366.000 64.500 C 366.132 64.317,366.336 64.167,366.453 64.167 C 366.571 64.167,366.667 64.088,366.667 63.992 C 366.667 63.689,367.471 63.000,367.826 63.000 C 368.013 63.000,368.167 62.920,368.167 62.821 C 368.167 62.527,368.619 62.167,368.988 62.167 C 369.184 62.167,369.333 62.058,369.333 61.917 C 369.333 61.779,369.446 61.667,369.583 61.667 C 369.721 61.667,369.833 61.592,369.833 61.500 C 369.833 61.408,369.983 61.333,370.167 61.333 C 370.350 61.333,370.500 61.258,370.500 61.167 C 370.500 61.075,370.762 61.000,371.083 61.000 C 371.491 61.000,371.667 60.925,371.667 60.750 C 371.667 60.575,371.843 60.500,372.250 60.500 C 372.571 60.500,372.833 60.425,372.833 60.333 C 372.833 60.242,373.208 60.167,373.667 60.167 C 374.125 60.167,374.500 60.092,374.500 60.000 C 374.500 59.894,375.750 59.833,377.917 59.833 C 380.083 59.833,381.333 59.894,381.333 60.000 " stroke="none" fill="#fcb413" fill-rule="evenodd"></path><path id="path2" d="" stroke="none" fill="#fcd8100" fill-rule="evenodd"></path><path id="path3" d="" stroke="none" fill="#fcd8100" fill-rule="evenodd"></path><path id="path4" d="" stroke="none" fill="#fcd8100" fill-rule="evenodd"></path></g></svg>