<?xml version="1.0" standalone="no"?>
<!DOCTYPE svg PUBLIC "-//W3C//DTD SVG 20010904//EN"
 "http://www.w3.org/TR/2001/REC-SVG-20010904/DTD/svg10.dtd">
<svg version="1.0" xmlns="http://www.w3.org/2000/svg"
 width="1012.000000pt" height="196.000000pt" viewBox="0 0 1012.000000 196.000000"
 preserveAspectRatio="xMidYMid meet">

<g transform="translate(0.000000,196.000000) scale(0.100000,-0.100000)"
fill="#000000" stroke="none">
<path d="M9027 1882 c-136 -154 -257 -353 -317 -519 l-22 -62 -37 18 c-103 53
-279 103 -437 125 l-94 13 0 -156 c0 -86 5 -187 10 -226 23 -157 81 -327 155
-454 20 -34 35 -64 33 -65 -1 -2 -32 -17 -67 -35 -35 -18 -88 -48 -118 -67
l-54 -34 46 -59 c107 -136 223 -233 356 -296 177 -84 352 -84 517 -1 39 20 73
40 77 46 10 17 32 11 79 -20 273 -185 650 -74 921 271 l46 59 -54 34 c-30 19
-83 49 -118 67 -35 18 -66 33 -67 35 -2 1 13 31 33 65 53 90 101 212 131 331
22 88 27 132 31 304 l5 201 -95 -13 c-159 -22 -335 -72 -438 -125 l-37 -18
-22 62 c-39 108 -139 290 -213 390 -60 79 -173 209 -180 206 -1 0 -33 -35 -70
-77z m138 -259 c164 -231 252 -520 225 -739 -19 -155 -93 -316 -170 -369 -22
-15 -58 -47 -80 -71 l-40 -44 -40 44 c-22 24 -58 56 -80 71 -77 53 -151 214
-170 369 -20 166 20 358 116 551 54 110 156 265 174 265 5 0 34 -35 65 -77z
m-748 -394 c54 -17 128 -47 165 -65 l67 -34 -6 -107 c-6 -121 6 -216 41 -326
l23 -74 -106 -7 c-122 -7 -112 -13 -178 103 -72 126 -120 291 -138 474 -8 82
-9 81 132 36z m1498 -36 c-18 -183 -66 -348 -138 -474 -66 -116 -56 -110 -178
-103 l-106 7 23 74 c35 110 47 205 41 326 l-6 107 62 32 c70 35 250 97 285 98
23 0 23 -2 17 -67z m-1092 -775 c65 -31 170 -130 165 -156 -2 -9 -33 -32 -70
-51 -126 -64 -280 -52 -420 33 -64 38 -158 115 -158 128 0 5 21 18 48 29 86
37 152 48 267 46 95 -2 118 -6 168 -29z m946 -1 c101 -36 105 -41 56 -83 -65
-56 -151 -111 -213 -135 -46 -19 -77 -23 -157 -24 -94 0 -105 2 -168 33 -38
19 -71 40 -74 48 -7 19 54 92 106 129 77 53 133 66 261 62 92 -3 130 -9 189
-30z"/>
<path d="M0 795 l0 -605 120 0 120 0 0 230 0 230 235 0 235 0 0 115 0 115
-235 0 -235 0 0 140 0 140 240 0 240 0 0 120 0 120 -360 0 -360 0 0 -605z"/>
<path d="M1310 795 l0 -605 375 0 375 0 0 115 0 115 -255 0 -255 0 0 130 0
130 228 2 227 3 3 113 3 112 -231 0 -230 0 0 125 0 125 250 0 250 0 0 120 0
120 -370 0 -370 0 0 -605z"/>
<path d="M2630 795 l0 -605 120 0 120 0 0 210 0 210 88 0 88 0 112 -193 c61
-106 117 -201 124 -210 12 -15 29 -17 140 -15 l126 3 -129 220 c-71 121 -129
222 -129 225 0 3 16 14 36 25 48 26 126 112 153 170 68 145 41 307 -70 429
-57 63 -142 110 -223 125 -33 6 -171 11 -308 11 l-248 0 0 -605z m567 349 c52
-39 73 -81 73 -149 0 -71 -22 -114 -79 -152 -31 -21 -45 -23 -177 -23 l-144 0
0 176 0 175 149 -3 c133 -3 153 -5 178 -24z"/>
<path d="M4100 795 l0 -605 120 0 120 0 0 387 0 387 168 -277 c106 -176 173
-277 183 -277 10 0 74 96 180 271 l164 271 3 -381 2 -381 120 0 120 0 0 605 0
605 -119 0 c-83 0 -122 -4 -129 -12 -5 -7 -84 -136 -175 -286 l-165 -273 -29
48 c-16 27 -89 147 -163 268 -73 121 -140 228 -148 238 -13 14 -33 17 -134 17
l-118 0 0 -605z"/>
<path d="M6226 1392 c-8 -13 -416 -1183 -416 -1193 0 -6 52 -8 127 -7 l126 3
35 103 34 102 242 0 242 0 34 -105 34 -105 128 0 c70 0 128 4 128 8 0 5 -94
276 -209 603 l-209 594 -145 3 c-80 1 -148 -1 -151 -6z m233 -524 l80 -238
-163 0 -164 0 80 241 c44 132 81 239 83 237 1 -2 39 -110 84 -240z"/>
</g>
</svg>
