<svg width="192" height="192" xmlns="http://www.w3.org/2000/svg">

 <g>
  <title>background</title>
  <rect fill="none" id="canvas_background" height="402" width="582" y="-1" x="-1"/>
 </g>
 <g>
  <title>Layer 1</title>
  <g id="svg_1" fill-rule="evenodd" fill="none">
   <path id="svg_2" d="m66.56,0c53.76,0 5.12,0 58.88,0c53.76,0 66.56,12.8 66.56,66.56c0,53.76 0,5.12 0,58.88c0,53.76 -12.8,66.56 -66.56,66.56c-53.76,0 -5.12,0 -58.88,0c-53.76,0 -66.56,-12.8 -66.56,-66.56c0,-53.76 0,-28.85967 0,-58.88c0,-53.76 12.8,-66.56 66.56,-66.56z" fill="#ffffff"/>
   <path id="svg_3" d="m157.23399,66.14622c0.88957,-2.96645 0,-5.14622 -4.23375,-5.14622l-14,0c-3.55973,0 -5.20082,1.883 -6.09088,3.95939c0,0 -7.11948,17.35355 -17.20516,28.62581c-3.26297,3.26297 -4.74632,4.30116 -6.52619,4.30116c-0.88981,0 -2.17801,-1.03819 -2.17801,-4.00439l0,-27.73575c0,-3.55974 -1.03306,-5.14622 -3.99976,-5.14622l-22,0c-2.22452,0 -3.56237,1.65216 -3.56237,3.21797c0,3.37456 5.04259,4.15278 5.56237,13.64542l0,20.61651c0,4.5201 -0.8163,5.33961 -2.59617,5.33961c-4.74607,0 -16.29091,-17.43107 -23.13806,-37.37677c-1.34187,-3.87675 -2.68776,-5.44274 -6.26577,-5.44274l-14,0c-4,0 -4.80004,1.883 -4.80004,3.95939c0,3.70813 4.74631,22.09987 22.09961,46.42426c11.56878,16.61162 27.86843,25.61635 42.70043,25.61635c8.8991,0 10,-2 10,-5.44499l0,-12.55501c0,-4 0.84305,-4.79829 3.66112,-4.79829c2.07639,0 5.63613,1.0382 13.94218,9.04749c9.4924,9.49239 11.05734,13.7508 16.3967,13.7508l14,0c4,0 6,-2 4.84623,-5.94689c-1.26256,-3.9337 -5.79467,-9.64097 -11.80835,-16.40649c-3.26321,-3.85626 -8.15767,-8.00905 -9.64102,-10.08593c-2.07639,-2.66943 -1.4831,-3.85626 0,-6.22917c0,0 17.05702,-24.02787 18.83689,-32.1853z" fill="#1a1a1a"/>
  </g>
 </g>
</svg>