<svg width="970" height="517" xmlns="http://www.w3.org/2000/svg">

 <g>
  <title>background</title>
  <rect fill="none" id="canvas_background" height="519" width="972" y="-1" x="-1"/>
 </g>
 <g>
  <title>Layer 1</title>
  <g id="svg_1" fill-rule="evenodd" fill="#FFFFFF00">
   <g id="svg_2">
    <rect id="svg_3" height="768" width="1024" y="-146" x="-42"/>
    <polyline id="svg_4" points="176,312.4573059082031 178.61341857910156,345.2317199707031 228.26837158203125,357.0304870605469 266.1629333496094,374.07318115234375 296.2172546386719,400.29266357421875 310.591064453125,388.493896484375 328.8849792480469,347.8536682128906 349.7923278808594,343.9207458496094 425.58148193359375,351.7865905761719 451.7156677246094,359.6524353027344 442.5686950683594,404.2255859375 433.4217224121094,437 585,427.82318115234375 579.773193359375,351.7865905761719 548.4121704101562,282.30487060546875 424.2747497558594,222 331.4984130859375,233.79876708984375 266.1629333496094,305.9024353027344 237.41534423828125,321.6341552734375 186.45367431640625,319.01220703125 " fill="#ff6161"/>
    <path id="svg_5" fill="#000000" d="m801.00619,11.2105c10.21231,12.4143 -4.83329,29.96996 -13.3653,38.63213c-4.14003,4.20562 -7.57242,9.066 -11.61974,13.37617c-3.99902,4.25921 -9.0177,7.61142 -12.60937,11.72294c-3.77054,4.31802 -8.12207,9.04379 -11.27506,13.90156c-1.99494,3.07776 -4.95471,6.51492 -5.94565,10.08669c-1.4244,5.13614 -0.2337,2.16947 1.64896,5.07341c1.92313,2.96537 2.5707,3.13657 3.2235,7.27031c0.6332,4.01874 1.53406,6.95927 3.70525,10.39251c3.57601,5.65498 7.43794,10.97148 9.96034,17.22371c3.35275,8.31584 5.725,16.75845 8.39624,25.31345c1.04185,3.33653 1.74034,7.15792 3.42194,10.23176c2.38662,4.36637 2.72346,4.00044 6.27596,1.27685c10.6053,-8.12895 21.3307,-16.72185 32.38643,-24.46919c6.3334,-4.43825 12.91226,-8.78371 19.59557,-12.67175c4.58784,-2.6687 14.44372,-7.418 16.74025,-12.37117c3.04463,-6.56851 -1.69465,-12.59595 4.82937,-18.64431c4.24708,-3.93901 11.17192,-6.12285 16.70631,-7.07951c7.82308,-1.35134 16.46477,0.57896 24.27872,1.27815c7.90011,0.70573 15.62528,-0.06273 23.37264,-1.67937c11.85996,-2.47397 34.64378,-16.1638 42.32978,0.28229c3.3632,7.19582 1.09017,15.16925 0.45696,22.54543c-0.54966,6.42867 -2.43623,13.25333 -6.44047,18.54106c-4.57739,6.04183 -11.23981,6.3581 -18.16987,7.96298c-8.18473,1.8937 -16.58358,2.58375 -24.77876,4.43171c-4.03688,0.90961 -8.01892,1.35265 -12.16417,1.54346c-3.68828,0.1712 -9.00856,-1.3239 -12.24641,-0.8521c-3.06944,0.44696 -2.02105,2.3851 -4.17658,3.7286c-0.87475,0.54498 -2.65687,0.15421 -3.20261,0.59333c-1.49881,1.20497 -1.93227,2.25442 -3.02505,4.43695c-3.47156,6.93313 -8.72263,13.69114 -13.18644,20.0427c-3.75879,5.35047 -8.11423,11.90198 -12.53626,16.67611c-9.37542,10.12329 -18.4806,21.27773 -27.7333,31.85582c-4.70795,5.38184 -10.35462,11.10739 -15.82504,15.73383c-1.68812,1.42845 -5.10093,2.71314 -5.96392,4.7127c-1.23117,2.85036 2.11766,9.12351 2.89971,11.98825c1.85785,6.81159 2.10983,13.84666 4.08127,20.555c1.88657,6.4156 2.57201,13.41147 2.98979,20.0989c0.94656,15.11567 3.012,29.45242 2.52762,44.57724c-0.41909,13.04291 -0.89694,25.5513 -5.42602,38.35767c-4.12305,11.65629 -16.47391,24.34634 -27.96048,28.64083c-6.83737,2.55761 -13.18905,4.88129 -20.0695,6.26792c-6.79559,1.36964 -13.95543,2.77194 -20.70271,4.69963c-12.51798,3.57569 -25.71226,6.07319 -38.71331,7.29776c-16.63972,1.56698 -33.99882,1.71727 -50.59546,1.14093c-7.56849,-0.26269 -15.34719,-0.27837 -22.81646,-0.25616c-7.74083,0.02353 -15.03254,1.54869 -22.76946,2.36028c-27.30507,2.86343 -56.16118,0.56197 -83.45059,3.36266c-13.48803,1.38402 -26.95517,4.0488 -40.6769,4.20824c-12.28559,0.14114 -24.7422,-0.66914 -36.75623,-0.72272c-3.8097,-0.01699 -7.12981,0.28752 -10.93691,-0.5868c-2.00799,-0.46134 -4.83068,-2.25703 -6.85825,-1.22196c-1.77038,0.90308 -3.106,4.7127 -4.204,6.33457c-2.39837,3.54825 -5.32158,6.39731 -8.40799,9.33915c-12.25164,11.6772 -24.3923,15.60968 -40.47193,19.88849c-7.38179,1.96558 -11.02569,2.99281 -17.22332,7.48856c-5.04871,3.66195 -10.15747,6.29275 -15.96865,8.45176c-11.39778,4.23437 -24.83881,0.95927 -35.55117,-2.71444c-5.1871,-1.7787 -10.63793,-3.39665 -15.93731,-5.50861c-7.2186,-2.87519 -13.176,-7.65193 -20.29015,-10.58985c0.816,7.5905 -7.41704,10.14028 -9.91463,15.24113c-1.61371,3.29601 -0.63583,8.47136 -2.35659,12.19735c-1.59543,3.45545 -4.06299,6.72272 -7.91056,7.62709c-5.24324,1.23111 -14.61606,-4.60161 -18.29913,-8.00479c-2.04455,-1.88979 -3.86976,-6.92137 -6.37388,-7.7591c-3.26527,-1.09388 -9.25139,3.73775 -12.34172,4.82771c-14.79101,5.22109 -29.77916,7.6833 -45.66034,5.60401c-16.09137,-2.10804 -30.84191,-7.82183 -45.9319,-13.24026c-29.55329,-10.61076 -55.2773,-28.07886 -78.41885,-49.11219c-1.28731,-1.17099 -3.15561,-2.2139 -4.04341,-3.74821c-0.77552,-1.33958 -0.70763,-4.50229 -1.21419,-5.24984c-1.50796,-2.22566 -3.76663,-1.83228 -6.59453,-2.0453c-8.737,-0.65999 -15.6775,-2.76934 -22.44959,-8.62427c-10.65882,-9.2163 -14.6017,-30.70313 1.73774,-36.41039c4.17657,-1.45981 8.77355,-1.74994 13.09113,-0.85079c1.78082,0.37116 8.40538,4.38597 10.09742,4.11675c2.56548,-0.40775 2.06675,-3.7103 2.74826,-5.47463c1.7286,-4.47092 4.16091,-8.40732 7.09326,-12.20126c4.87376,-6.30713 10.81289,-12.64693 16.90737,-17.77915c6.62064,-5.57787 13.91104,-8.05315 21.79288,-11.14136c5.30983,-2.0806 15.67489,-5.65237 21.29937,-3.79134c7.32435,2.42431 3.7392,10.42911 -0.87605,13.2285c-6.59192,4.00044 -14.50248,5.6393 -21.18187,9.68678c-7.37135,4.46701 -14.10427,10.58463 -20.85024,15.9534c-5.42864,4.32062 -10.13267,9.6528 -15.64748,13.79569c-1.46225,1.0978 -3.85018,3.01895 -4.30452,3.62535c-0.15798,0.21042 0.03656,1.91854 -0.68674,2.67785c-3.20783,3.3679 -2.45712,2.98759 -7.28779,1.80615c-5.69498,-1.39316 -19.29007,-4.54411 -23.1298,2.5171c-3.4559,6.35417 10.68885,12.07972 15.33282,14.01786c6.81779,2.84383 8.4106,5.70073 13.28175,11.12046c4.98996,5.55566 13.27914,9.33131 19.5303,13.47289c13.51153,8.94969 28.69944,15.29994 43.16927,22.41081c14.08077,6.91876 29.21776,11.89938 43.88996,16.74015c8.85842,2.92224 19.47416,6.05751 28.77125,6.95797c9.3676,0.9083 18.1529,-0.61948 27.34424,-2.40732c3.67523,-0.71488 6.44961,-1.26247 10.29326,-2.61773c1.71162,-0.60379 4.50428,-0.69266 5.8634,-1.74864c2.10721,-1.63756 1.23116,-2.94577 1.60456,-5.74254c1.63199,-12.264 10.1392,1.42714 13.90452,5.50991c2.90493,3.15095 5.76547,7.02461 9.58954,9.02157c4.79282,2.50011 5.62448,1.32128 7.1951,-2.80201c2.94019,-7.7225 4.04602,-16.49968 15.15657,-15.36529c-8.77224,-7.50555 -17.13193,-13.88195 -24.64036,-22.9009c-7.40791,-8.89741 -14.33406,-18.45873 -21.43776,-27.60315c-5.82293,-7.4951 -10.89383,-17.83795 -18.45188,-23.75039c-2.38923,-1.86887 -9.65221,-6.17513 -12.41745,-6.08495c-4.13741,0.13461 -7.81134,6.89523 -12.26861,7.4572c-4.92338,0.62209 -7.18988,-1.09649 -8.596,-5.09432c-1.45834,-4.14681 2.02758,-8.91962 0.84994,-11.93466c-0.3277,-0.83903 -2.42317,-1.84404 -3.07074,-3.06207c-0.97397,-1.82967 -1.04447,-4.23699 -0.75333,-6.26269c0.43476,-3.02418 1.50404,-4.2579 1.27556,-7.30038c-0.26503,-3.53518 -1.81476,-6.12024 -0.59404,-9.81747c1.28078,-3.88412 5.22235,-6.01177 7.68208,-8.88042c3.72354,-4.34154 1.8213,-7.61534 0.3277,-13.19321c-3.19869,-11.93466 -6.92875,-23.7334 -10.17444,-35.66153c-7.46405,2.36158 -14.76229,5.03943 -22.26551,7.24026c-7.21729,2.11849 -16.14882,4.01873 -22.84518,7.35918c-4.02382,2.00741 -2.90624,0.16336 -2.60856,4.62122c0.19061,2.88565 1.41003,6.11109 1.97666,8.95622c1.04577,5.25637 1.50142,18.81944 5.61794,21.33c2.49237,1.52124 6.50314,-0.68874 9.24357,2.38249c2.30828,2.58245 1.61632,6.3398 3.00546,9.21107c0.863,1.78523 2.53284,2.46482 3.57209,4.10499c2.16989,3.42932 1.9388,6.31235 2.32134,10.15596c0.24023,2.41908 -0.13187,9.66718 1.07189,11.54782c1.60587,2.50795 4.78759,2.07275 7.47057,2.85428c6.76034,1.9682 12.98669,5.39229 18.72736,9.38489c2.97935,3.64365 24.30222,24.97627 15.04168,27.69071c-4.47164,1.31082 -12.3835,-8.7628 -15.60178,-11.50208c-4.98865,-4.24352 -10.21362,-7.03115 -16.29635,-9.37181c-14.84585,-5.71249 -28.27774,-10.84601 -44.44484,-8.47398c-6.93136,1.01547 -15.3511,4.08539 -22.3138,3.40972c-7.0071,-0.67959 -5.19233,-6.93052 -0.81078,-10.41865c3.91808,-3.11828 9.37152,-2.24135 11.09098,-7.47027c1.73512,-5.28252 -0.12795,-11.95819 2.65687,-17.25116c2.37748,-4.52058 7.98237,-9.21237 12.30908,-11.83141c1.88658,-1.14093 5.12052,-1.93814 6.10624,-3.62013c0.80816,-1.38009 -2.52239,-9.29079 -2.98457,-10.93488c-2.26128,-8.05576 -4.72623,-16.11937 -6.64153,-24.26269c-1.7756,-7.54738 -2.23778,-11.45895 5.71195,-14.19822c12.13283,-4.1821 24.85318,-6.13723 36.99123,-9.98215c-2.15161,-5.60531 -8.87669,-0.88869 -13.70737,-1.08342c-5.91693,-0.23786 -12.76343,-2.18515 -18.39835,-4.00305c-12.79215,-4.12852 -21.49651,-14.4217 -23.47317,-27.69463c-0.43476,-2.91179 0.9348,-8.75104 -0.12534,-11.32564c-1.00008,-2.43216 -3.82798,-3.61491 -5.89473,-5.34786c-5.3268,-4.46439 -10.04519,-10.59378 -12.91879,-16.9375c-2.88013,-6.35809 -3.08119,-13.50033 -1.40743,-20.20998c0.92175,-3.69724 1.44268,-4.20562 0.1397,-7.70159c-1.50926,-4.04357 -3.9703,-7.64409 -5.36205,-11.80005c-2.27956,-6.80636 -3.52248,-14.14464 -3.39845,-21.33262c0.14101,-8.0636 3.37495,-11.68112 5.51742,-18.79068c1.69074,-5.61186 -0.61624,-13.36834 -0.22979,-19.59574c0.49482,-7.9682 2.53415,-14.36943 6.05532,-21.462c5.41036,-10.89698 13.97763,-22.5781 25.12866,-28.29189c2.20514,-1.13047 5.82945,-1.19713 7.79958,-2.51057c2.44798,-1.63232 2.6399,-4.03833 3.5982,-6.89784c2.28609,-6.81944 5.14011,-12.34372 10.08306,-17.55697c16.03132,-16.90743 44.12366,-22.89567 66.65289,-21.46853c4.04602,0.25746 7.90273,2.17207 11.73724,1.04683c2.65687,-0.78023 5.47172,-3.54825 8.21085,-4.69441c3.46633,-1.45066 6.9392,-2.29884 10.66926,-2.67c7.36613,-0.73449 13.35748,0.04182 20.14654,2.52886c2.56287,0.93966 5.01737,1.96558 7.54368,2.98497c3.98858,1.61141 3.7614,0.84426 7.51236,0.09671c7.4758,-1.48857 11.77118,-0.38684 18.39443,2.80331c1.76516,0.84949 4.55781,1.48073 6.0749,2.67132c2.149,1.68721 3.02505,6.8142 5.41689,7.77086c1.32648,0.53191 5.42863,-1.42453 7.13896,-1.7029c3.01852,-0.4927 5.97437,-0.05881 8.97722,-0.09148c5.31766,-0.05751 10.93822,0.13983 15.7937,2.65432c3.65695,1.8924 8.05809,5.54389 11.20717,7.97604c4.35675,3.36398 7.0789,9.72469 12.51929,11.4864c2.13072,0.69004 4.43638,-0.00785 6.6115,0.58026c2.83573,0.76585 5.55919,2.8203 7.85572,4.63429c3.95071,3.11958 7.29171,10.3716 11.31684,11.6393c2.68559,0.84687 6.86086,-0.0366 9.93422,0.84034c3.85671,1.10041 7.05409,2.69484 9.91333,5.61315c5.45344,5.56742 6.99404,13.79701 7.22774,21.34569c0.06266,2.03485 -1.192,7.77217 0.02741,9.57831c1.08234,1.60227 5.16099,2.52625 6.8217,4.17033c5.19102,5.14006 7.53586,13.70552 8.0607,20.74713c0.60058,8.03485 -1.47401,13.69767 -2.90232,21.3862c-0.8891,4.79242 -2.03933,1.7225 2.00408,4.54541c2.77699,1.93815 4.69489,3.29341 6.4953,6.33588c3.76532,6.36071 4.71187,13.85973 4.09041,21.10914c-0.77683,9.04509 -5.36336,15.78611 -7.42619,24.34372c9.50469,0 19.74311,2.51188 29.02845,4.26444c3.42587,0.64691 6.08013,2.53016 9.12084,4.04095c2.62423,1.30298 4.58131,1.45458 7.05801,2.31845c5.99135,2.08974 4.83329,1.74079 9.00203,-2.5354c16.60578,-17.0342 40.24215,-27.31824 64.07827,-26.98367c13.29481,0.18558 26.15616,1.94075 38.58536,6.72664c5.15185,1.98257 10.87816,4.12067 15.44902,7.23111c5.29416,3.60444 6.08143,3.56262 13.08069,3.70899c25.34539,0.52538 49.93875,14.1381 68.3841,30.63778c1.64765,-11.06687 19.62169,-17.70333 28.32605,-22.29057c2.97412,-1.56698 5.70672,-2.3838 7.17029,-5.32042c1.36956,-2.74842 1.28861,-8.40209 2.20383,-11.63929c1.68029,-5.94512 3.6217,-13.21935 3.47025,-19.48858c-0.43476,-18.15161 -4.63484,-36.21957 -5.17927,-54.413c-0.13708,-4.56894 -0.6554,-9.69724 -0.0483,-14.22175c0.48959,-3.64496 2.15291,-5.91766 -0.23893,-9.29209c-4.54083,-6.40515 -12.91357,-8.0048 -15.72842,-16.43695c-4.53692,-13.5879 3.25614,-27.48291 13.89668,-35.56482c6.12713,-4.65258 12.11325,-5.63799 17.02357,-12.16075c4.42203,-5.87716 8.15992,-12.82728 13.2008,-18.16991c4.2275,-4.47876 8.07767,-10.48007 12.92271,-14.20737c4.96646,-3.82139 12.25948,-6.40514 18.19076,-8.22043c14.23875,-4.35984 31.72319,-3.31954 41.74227,8.8582zm-445.06589,341.34539c-3.31228,0.14115 -6.64544,0.51361 -9.96425,0.50969c-2.01844,-0.00261 -6.70942,-1.09257 -8.5281,-0.32411c-3.63476,1.53823 -6.57625,9.9547 -8.27482,13.31345c-5.50305,10.88913 -9.8363,22.30626 -15.20488,33.23721c-2.79265,5.68635 -6.9627,9.4254 -13.552,9.51689c-7.38311,0.10194 -10.85728,-4.62906 -15.54303,-9.48291c-9.34279,-9.68286 -21.91952,-18.00654 -33.51706,-24.74102c-12.52712,-7.27163 -27.46436,-14.31976 -41.7266,-16.88784c-9.49816,-1.70943 -31.2584,-9.08429 -37.03693,2.82946c2.95324,-0.39469 14.22438,-2.1185 14.70223,2.87649c0.35903,3.74821 -13.50631,4.38859 -15.21924,10.26575c3.62561,-0.2823 16.13968,-3.77565 17.01964,1.61272c0.4674,2.86473 -4.76148,4.30756 -6.60105,5.27336c-3.6452,1.91723 -5.8399,3.90765 -8.70958,6.78937c4.42725,0 8.79183,-3.75996 12.99583,-3.36789c1.73382,0.16205 3.81884,2.75495 5.39599,3.54563c2.23778,1.12002 4.65312,1.67807 7.12068,1.98389c5.3725,0.66521 8.62472,-0.8508 12.90835,2.64909c3.84626,3.1418 7.84528,7.28992 11.38865,10.7872c7.56196,7.46635 13.78701,16.94272 20.27448,25.33305c8.00978,10.35854 16.32768,18.58158 26.98259,26.34068c8.67302,6.31366 17.46355,10.40297 27.29071,15.05163c9.64046,4.5611 21.76546,9.85015 32.70237,10.10107c8.72394,0.20126 19.62822,-2.59813 27.5675,-6.3215c4.61787,-2.16554 6.29685,-2.16293 10.91733,-3.02026c7.17159,-1.33043 15.47252,-5.18057 22.11144,-8.20083c20.84763,-9.48552 34.05888,-30.15815 43.45912,-50.39296c5.3503,-11.51645 8.6926,-22.76891 10.92255,-35.22895c1.21419,-6.78806 2.27303,-8.38118 -4.33978,-11.18841c-6.67939,-2.83468 -13.89798,-4.58724 -20.85024,-6.58942c-20.39198,-5.87192 -43.63537,-7.16707 -64.6919,-6.27053zm49.81472,-122.8295c-2.0798,0.93705 -3.18563,10.9401 -4.12044,13.16838c-4.16613,9.94424 -11.55706,16.14943 -22.39606,17.1845c-3.3645,0.32149 -8.85188,-2.74189 -11.26331,-1.29384c-3.22872,1.93945 -3.81231,11.20933 -7.28648,14.2505c-3.1987,2.80069 -9.86242,5.76083 -13.96458,6.83772c-3.16735,0.8312 -6.3086,0.60249 -9.4642,-0.12938c-1.80041,-0.4169 -5.23411,-2.64125 -6.99665,-1.80222c-3.00155,1.42975 -4.4155,9.04248 -7.84137,11.62492c-5.00954,3.77565 -12.96449,6.57243 -19.09684,6.50186c-6.32426,-0.07319 -13.94759,-5.06949 -19.5786,-3.87367c-6.68461,1.4193 -5.80595,7.63755 -8.72394,12.49793c-6.19762,10.32194 -13.23997,19.21282 -24.38186,24.14116c-12.05188,5.32956 -29.32742,6.00784 -41.96813,3.29602c-6.87131,-1.47419 -13.76743,-3.55871 -19.56685,-7.49772c-4.62026,-3.13882 -8.08878,-7.31864 -12.36769,-10.86489l-0.69959,-0.56719l0.03519,0.12537c0.0949,0.33039 0.1913,0.65282 0.28955,0.96647c2.03802,6.49794 2.94279,18.02746 6.99142,23.32696c3.62301,4.74276 16.20235,5.00806 22.25898,5.64583c16.22976,1.71074 30.1865,5.50991 44.50358,13.65193c13.70346,7.79308 26.22013,17.22371 38.08401,27.38751c2.43753,2.08713 4.38547,5.43411 7.33349,6.77761c4.81501,2.19299 4.42594,-0.36724 5.69889,-4.65519c2.61248,-8.79417 5.38294,-17.48117 9.36368,-25.77087c1.70379,-3.55348 5.5827,-7.95513 6.41436,-11.72817c0.79641,-3.62013 -0.8395,-7.5696 -0.28332,-11.45633c1.40351,-9.81878 5.83598,-18.19082 11.39126,-26.13158c3.85671,-5.51121 15.3955,-14.89479 13.92149,-1.0233c-1.08886,10.24352 -8.56727,19.31867 -10.40685,29.38315c5.67017,-1.05728 9.22921,-0.74885 14.33406,-0.42605c6.96531,0.44043 14.88631,-2.28578 22.06705,-2.3093c13.76612,-0.04313 27.32596,0.85472 40.85708,3.30778c6.26682,1.137 12.23336,2.42169 18.27562,4.56632c4.74712,1.6846 11.05964,7.05076 16.11749,7.45982c3.66609,0.29667 2.38792,0.77761 3.38539,-2.35112c0.92697,-2.90264 -0.0692,-8.12503 -0.25459,-11.17012c-0.4204,-6.89132 -2.07197,-13.59835 -2.92843,-20.44392c-0.36687,-2.93793 -3.87238,-15.18363 -0.17365,-17.55697c5.66103,-3.63189 8.02676,10.6186 8.74744,13.17099c3.69221,13.08474 6.06707,25.97605 5.9574,39.65674c-0.09661,11.83141 -0.88258,23.2041 -3.09555,34.96625c-1.3082,6.94751 -3.70787,13.62057 -6.39999,20.13549c-1.41787,3.43194 -9.73577,16.44087 -8.57902,18.73188c0.92697,1.8362 15.06126,-1.36049 17.23507,-1.54607c7.73692,-0.6626 15.49342,-0.20127 23.23947,-0.6613c11.4487,-0.68089 22.98227,-0.54106 33.94529,-2.55892c6.53709,-1.20496 13.47368,-0.05358 20.00423,-0.01176c7.20293,0.04705 14.16432,-0.61817 21.41426,0.06927c5.50566,0.52014 13.76742,3.4267 19.07856,2.21912c5.43777,-1.23633 3.8319,-4.87606 3.86976,-10.41211c0.08878,-13.37618 -1.10192,-28.76891 -4.0891,-41.77523c-1.57585,-6.85734 -3.69482,-13.49511 -4.82546,-20.46614c-1.13064,-6.97365 -1.07188,-14.51057 -3.17519,-21.26335c-3.73137,-11.98171 -13.98807,-22.38206 -22.48484,-31.23635c-8.74352,-9.11174 -18.46885,-15.7273 -29.19556,-22.26182c-9.11692,-5.55304 -18.75086,-10.7676 -28.62894,-15.11175c-11.85474,-5.21455 -25.31666,-8.42954 -36.30319,-15.29471c-9.14303,-5.71249 -22.36733,-11.34525 -32.91518,-13.99043c-1.66985,-0.41821 -10.17837,-3.94031 -11.35862,-3.40971zm325.65287,-110.73409c-7.60635,1.06905 -21.82552,-2.64649 -21.81899,7.84143c0.00261,5.753 1.91138,11.78567 2.4532,17.54128c0.63844,6.79199 0.19715,13.62711 1.23117,20.39295c1.67507,10.95187 4.13219,21.06601 3.30967,32.31847c-0.89694,12.23132 -3.44545,23.98432 -3.20783,36.39078c0.22456,11.80658 -0.41126,23.19103 5.19885,34.02528c2.36703,4.57417 4.28755,9.94816 6.8922,14.22828c3.05247,5.0159 5.69628,6.48486 11.15234,8.50534c3.41672,1.26508 11.82993,2.91178 14.0429,6.3215c3.19608,4.9218 -1.07188,6.91222 -5.27457,6.74494c-12.98016,-0.51623 -26.30761,-6.30843 -38.47699,-10.53889c-5.72631,-1.99172 -11.2372,-4.49967 -16.86429,-6.67306c-4.49644,-1.73687 -8.16253,-2.33674 -12.25164,-5.2995c-9.96555,-7.22065 -17.65808,-17.20018 -27.48524,-24.60641c-18.59288,-14.01133 -40.88319,-22.37684 -64.23494,-24.85865c-6.00832,-0.63908 -10.66013,-0.35156 -16.67759,0.15814c-3.32925,0.28229 -6.62586,0.37246 -9.92247,0.9841c-1.90354,0.35417 -9.06339,3.75604 -10.55045,3.04901c-9.66005,-4.59247 17.69333,-18.57244 20.76929,-19.33698c-3.88543,-2.73796 -11.95788,-2.26617 -16.62014,-2.87519c-5.95217,-0.77891 -11.73854,-1.53823 -17.74947,-1.21019c-8.40276,0.46003 -17.34082,0.21172 -25.58822,2.0257c-10.33243,2.2714 -20.11781,5.75953 -29.45538,10.65389c-3.11774,1.63364 -7.50321,3.62013 -7.47334,8.17339c0.02757,4.27881 1.73137,3.57831 5.8975,4.52581c11.22414,2.555 21.6114,9.99391 31.6109,15.66196c10.63271,6.02483 21.22234,12.7946 31.08867,20.01395c18.91405,13.84143 29.70866,33.75475 38.10881,55.40102c4.345,11.19495 7.49538,24.26923 8.80228,36.20128c1.45573,13.27554 0.24153,26.62689 1.28078,39.88806c0.24415,3.13396 0.66324,15.63974 3.02766,17.58833c1.79388,1.47811 10.69668,-1.16445 13.20602,-1.33696c10.4904,-0.72272 21.04478,-0.65084 31.33543,-1.24418c21.74979,-1.25332 44.04663,0.49532 65.99487,-0.7946c11.04136,-0.64953 21.72891,-2.20213 32.55615,-4.4304c10.06347,-2.07014 22.60365,-2.31715 31.78324,-7.10042c17.67114,-9.20715 28.44355,-31.40363 29.21906,-50.19824c0.8408,-20.37334 -0.55095,-42.54369 -4.82937,-62.83993c-2.243,-10.64213 -4.18832,-20.77064 -6.82822,-31.28731c-2.95455,-11.77391 -6.27205,-23.49685 -9.51513,-35.1257c-5.58661,-20.01656 -14.28183,-38.66479 -18.44405,-59.18059c-2.29,-11.28513 -5.53438,-23.08387 -8.92108,-34.09847c-1.24814,-4.05925 -3.70918,-11.7713 -6.61411,-14.85559c-3.05246,-3.23852 -5.61534,-1.3814 -10.15748,-0.74363zm-620.0369,243.7862c-4.58131,2.93139 -7.88445,9.52212 -7.67556,14.95623c0,7.17229 5.95348,4.11675 11.5636,4.37682c3.41542,0.15814 16.04568,3.66195 18.26648,0.27968c2.65165,-4.03964 -5.32288,-2.23611 -6.3321,-4.40296c-2.04064,-4.38205 7.31652,-6.23263 6.17282,-10.0305c-1.1437,-3.79656 -10.65099,4.96624 -12.68901,0.55674c-1.88658,-4.08146 7.71733,-7.61142 6.24332,-10.42257c-1.25075,-2.38249 -13.93063,3.64888 -15.54956,4.68656l0.00001,0zm19.8939,-37.36952c-0.0235,3.05685 -1.07712,7.12264 -4.87768,6.49924c-4.74582,-0.77891 -6.18457,-9.89066 -6.61803,-13.33827c3.03941,-11.35178 11.54662,-0.12416 11.49571,6.83903zm137.80288,-97.56453c-5.48739,0.85994 -6.10624,3.31692 -8.67172,7.08734c-1.17111,-0.93313 -1.89702,-2.17077 -2.17642,-3.71292c-12.97363,5.84449 -26.4721,10.41081 -40.54373,12.57113c-15.67881,2.40862 -32.03392,-1.23633 -47.9647,-2.72098c-2.06153,-0.19211 -8.38972,-2.74058 -10.07001,-1.72904c-1.39045,0.83773 -1.36695,7.86888 -1.48053,9.22806c-0.77422,9.26335 0.99224,17.44719 2.35267,26.51319c0.36295,2.41386 0.00652,7.64148 1.90877,9.70116c1.33822,1.44805 3.71962,0.92137 5.41427,3.10782c4.56793,5.89946 5.99288,17.3262 8.096,24.93419l0.05206,0.18507l0.01017,-0.13607c0.65079,-7.75673 6.71397,-3.77199 11.22584,-1.73857c6.78253,3.05816 13.89015,4.6931 21.22756,5.72163c5.89995,0.82727 12.5937,2.80462 18.64641,2.48835c6.35691,-0.33065 14.17608,-2.84775 20.36457,-4.65912c5.86339,-1.71466 9.09864,-5.42627 13.14596,-10.20562c3.86585,-4.56502 8.07245,-7.69114 12.24511,-11.76476c10.50999,-10.26182 7.63247,-31.52387 -1.4975,-41.56744c7.38701,-3.79133 20.19745,-12.12546 8.96286,-20.57853c-2.90363,-2.18645 -7.74606,-3.27379 -11.24764,-2.72489zm-93.08334,85.16502l-0.01033,0.1393l0,0l0.06433,0.0517l-0.054,-0.191zm35.99022,-17.61671c2.91277,0.22087 5.00563,2.41124 4.23925,5.43019c-0.96875,3.81355 -7.59852,6.20258 -10.91341,6.4143c-8.78531,1.05075 -0.47524,-12.38424 6.67416,-11.84449zm-27.74453,-14.67341c0.31465,2.2139 0.00261,3.59399 1.92183,4.31279c1.46748,0.55021 4.24055,-0.58157 6.04487,0.18297c1.8004,0.76454 1.85785,1.22718 2.96368,3.02287c-1.25205,3.9181 -6.99795,8.34982 -11.60798,5.99347c-5.73284,-2.93008 -6.26682,-14.48705 -4.6949,-19.41931c2.6634,-8.35897 4.90249,2.60466 5.3725,5.90721zm509.74917,-44.13824c-2.39184,0.86909 -4.50167,3.33261 -6.64022,4.67349c-5.68975,3.56655 -11.91349,5.46025 -17.36302,9.36529c3.89196,4.19908 5.92998,9.89327 9.73055,13.93422c2.37878,2.52886 5.27066,2.80985 8.1312,4.1821c8.35838,4.01089 18.19599,9.6528 27.42911,11.57003c-5.40644,-6.32542 -8.83622,-12.04836 -12.04667,-19.73427c-1.14761,-2.74842 -2.58767,-5.65498 -3.44675,-8.50926c-1.23247,-4.088 -0.56924,-8.41386 -1.61371,-12.44827c-1.12541,-4.35461 0.42693,-4.70617 -4.18049,-3.03333zm-525.51937,23.94734c2.43101,2.86996 4.2993,9.33784 4.50558,13.0024c-2.56417,12.2836 -11.14972,-4.66434 -10.8886,-10.16511c0.24284,-5.07341 2.90624,-6.93836 6.38302,-2.83729zm23.26023,-6.72155c4.16613,3.55348 5.52655,9.48814 5.9587,14.39165c0.47002,5.31518 -0.74418,7.57482 -6.03834,4.15857c-4.63484,-2.99151 -6.95356,-10.95579 -7.19379,-15.62275c0,-5.3191 3.23655,-6.37116 7.27343,-2.92747zm83.81276,-15.21355c1.04055,5.54651 -11.24242,11.24723 -9.23704,2.56153c-0.40212,-5.54258 8.13251,-8.43738 9.23704,-2.56153zm579.94634,-100.37648c-9.27751,11.32695 -20.5121,18.51885 -32.12139,27.07778c-10.28412,7.58266 -20.07603,15.77434 -31.21008,22.0684c-3.2692,1.84927 -8.62342,2.92486 -9.21485,6.3594c-0.55487,3.22937 5.43778,11.90199 6.82301,15.40319c4.67661,11.80789 8.12859,23.92552 11.78424,36.10979c10.89644,-16.98454 21.88688,-34.25137 35.24305,-49.60882c11.78685,-13.55261 23.8779,-27.73384 34.1816,-42.3372c-6.23679,-3.79917 -11.40431,-9.03855 -15.48558,-15.07254zm68.00548,-26.12111c-10.33243,3.22936 -22.23547,5.04727 -33.00397,3.94685c-4.88159,-0.49924 -9.69007,-0.91483 -14.61867,-1.21934c-3.68959,-0.2274 -9.9303,-2.02701 -13.10419,0.81681c-3.00285,2.68831 -2.6399,8.03878 -1.11105,11.38054c0.98833,2.16031 2.3605,2.50925 3.25613,4.29841c0.28854,0.57634 -0.56662,1.5722 0.17626,2.92747c2.04194,3.7299 8.99028,9.96254 12.7334,11.86147c4.80196,2.43738 5.52003,-0.3973 9.26315,-2.85297c7.88184,-5.16882 21.12311,-5.26291 30.35623,-6.19343c0.1867,1.9865 26.94604,-7.56306 29.58724,-9.31562c4.93904,-3.27641 10.72672,-18.35679 5.47172,-22.82641c-6.34254,-5.39491 -22.86999,5.25637 -29.00625,7.17622zm-179.95184,-71.88372c-3.25222,5.18319 -7.57763,10.74799 -12.3822,14.62558c-5.42602,4.37944 -12.46837,6.07972 -18.67121,9.07646c-5.61926,2.71313 -10.61313,5.43149 -14.11994,10.66696c-2.42709,3.62143 -6.87392,8.70268 -4.84635,13.36964c2.07458,4.77413 10.24626,8.12242 13.79616,12.27184c4.88812,5.71248 4.89465,4.59116 12.21639,3.01242c3.65695,-0.78937 7.13112,-1.03507 10.86902,-0.90438c1.51187,0.05228 6.61672,1.53431 7.95756,0.53975c1.71554,-1.27423 0.02872,-6.56458 0.24545,-8.62296c0.33162,-3.13134 1.44398,-6.36202 2.49889,-9.31431c4.18311,-11.72033 12.13675,-19.44937 19.86975,-28.33633c8.29571,-9.53518 19.66216,-16.22784 27.83775,-25.80746c4.51342,-5.28904 2.45843,-9.0281 -3.73528,-11.50469c-3.14778,-1.25724 -6.83606,-1.25201 -10.06609,-2.25441c-3.33969,-1.03637 -6.31513,-3.07776 -9.89375,-3.11827c-15.20749,-0.61033 -15.69186,16.9205 -21.57615,26.30016z"/>
   </g>
  </g>
 </g>
</svg>